<?xml version="1.0" encoding="UTF-8" standalone="no"?>
<!DOCTYPE svg PUBLIC "-//W3C//DTD SVG 1.1//EN" "http://www.w3.org/Graphics/SVG/1.1/DTD/svg11.dtd">
<svg xmlns="http://www.w3.org/2000/svg" xmlns:xlink="http://www.w3.org/1999/xlink" version="1.1">
<metadata/>
<defs>
<font id="uvf_funkydoriregular" horiz-adv-x="866">
<font-face units-per-em="2048" ascent="1372" descent="-676"/>
<missing-glyph horiz-adv-x="366"/>
<glyph unicode="ﬁ" horiz-adv-x="841" d="M-184 -287q0 10 9 23.5t19 25.5q20 29 39 66t35 96q16 61 35.5 155.5t36 184.5t27 159t10.5 79q0 37 -41 37q-33 0 -33 28q0 23 15.5 42.5t29.5 19.5q31 0 42 11t19 42q25 106 69 173t96 103.5t108.5 50t107.5 13.5q129 0 189.5 -45t60.5 -105q0 -51 -32.5 -84.5 t-77.5 -33.5q-59 0 -85 31.5t-26 72.5q0 45 -41 45q-18 0 -33.5 -23.5t-27 -56t-16.5 -66.5t-5 -55q0 -23 12.5 -36t32 -22t43 -13t45.5 -4q49 -2 100.5 5t82.5 7q68 0 67 -53q0 -31 -10 -70t-22.5 -84t-22.5 -93t-10 -99q0 -41 19 -62.5t48 -21.5q27 0 42 11t36 32 q20 20 35 20q14 0 21 -9t7 -20q0 -16 -8 -30.5t-24 -34.5t-41 -44t-57.5 -44.5t-72.5 -33.5t-89 -13q-102 0 -152.5 49t-50.5 121q0 49 10 97t23.5 93t23.5 82t10 66q0 47 -61 47q-47 0 -65.5 -43t-28.5 -90q-10 -51 -22.5 -116t-25 -130.5t-25.5 -125.5t-26 -106 q-14 -57 -59 -103t-98 -79t-103.5 -50t-74.5 -17q-39 0 -39 28z"/>
<glyph unicode="ﬂ" horiz-adv-x="954" d="M-184 -287q0 10 9 23.5t19 25.5q20 29 39 66t35 96q16 61 35.5 155.5t36 184.5t27 159t10.5 79q0 37 -41 37q-33 0 -33 28q0 23 15.5 42.5t29.5 19.5q31 0 42 11t19 42q25 106 69 174t97.5 104.5t114.5 50t121 13.5q18 27 44.5 55.5t58.5 51t68 38t75 15.5q80 0 127 -41 t47 -119q0 -66 -26 -168t-56.5 -215t-56 -220.5t-25.5 -180.5q0 -41 18.5 -62.5t46.5 -21.5q27 0 42.5 11t35.5 32q20 20 35 20q14 0 21.5 -9t7.5 -20q0 -16 -8.5 -30.5t-24.5 -34.5t-41 -44t-56.5 -44.5t-71.5 -33.5t-89 -13q-104 0 -152.5 56t-48.5 136q0 70 22.5 149 t49 163t49 171t22.5 175q0 51 -25.5 71.5t-72.5 20.5q-33 0 -57.5 -24.5t-41 -59.5t-24.5 -75t-8 -71q0 -33 19.5 -53t78.5 -20q10 0 19.5 -5.5t9.5 -17.5q0 -31 -14.5 -50t-32.5 -19q-113 0 -137 -125q-10 -51 -22.5 -116t-25 -130.5t-25.5 -125.5t-26 -106 q-14 -57 -59 -103t-98 -79t-103.5 -50t-74.5 -17q-39 0 -39 28z"/>
<glyph horiz-adv-x="0"/>
<glyph unicode="" horiz-adv-x="366"/>
<glyph unicode=" " horiz-adv-x="366"/>
<glyph unicode="	" horiz-adv-x="366"/>
<glyph unicode=" " horiz-adv-x="366"/>
<glyph unicode="!" horiz-adv-x="335" d="M20 84q0 25 10.5 51.5t29 48t43 35.5t53.5 14q37 0 59.5 -26.5t22.5 -67.5q0 -25 -10.5 -52.5t-29 -49t-44 -35.5t-56.5 -14q-35 0 -56.5 27.5t-21.5 68.5zM80 373q0 6 8 67.5t21.5 151.5t29 194.5t29.5 196.5t24.5 158.5t12.5 83.5q4 23 13 38t40 25q45 14 89 26.5 t73 12.5q14 0 25.5 -9t11.5 -26q0 -14 -9.5 -60t-23.5 -115.5t-33.5 -157t-40 -180.5t-42.5 -188t-40 -181q-6 -27 -14 -35t-29 -19q-29 -14 -60.5 -22t-45.5 -8q-16 0 -27.5 9t-11.5 38z"/>
<glyph unicode="&quot;" horiz-adv-x="430" d="M-8 1163q0 68 86 68q49 0 69.5 -16.5t20.5 -51.5q0 -10 -5 -47t-12.5 -79t-14.5 -79.5t-9 -50.5q-6 -25 -13 -38t-36 -13t-37 13.5t-12 37.5q-2 10 -8.5 48t-12.5 80t-11 80t-5 48zM238 1163q0 68 86 68q49 0 69.5 -16.5t20.5 -51.5q0 -10 -5.5 -47t-12.5 -80t-14 -79.5 t-9 -49.5q-6 -25 -14 -38t-35 -13q-29 0 -37 13.5t-13 37.5q-2 10 -8 48t-12 80t-11 80t-5 48z"/>
<glyph unicode="#" horiz-adv-x="925" d="M16 422q0 27 15.5 46t44.5 19h110l93 236q-41 2 -74 2t-37 2q-41 0 -41 41q0 25 13.5 44t41.5 19h142l84 211q8 23 23 29t30 6q25 0 42 -16.5t17 -38.5l-74 -191h179l77 216q6 18 26 24t32 6q23 0 39 -16.5t16 -38.5q0 -6 -7 -26.5t-16.5 -49t-20.5 -59.5t-19 -56h114 q16 0 31.5 -8t15.5 -28q0 -27 -15 -48.5t-44 -21.5h-145l-80 -240h100q43 0 43 -32q0 -23 -15.5 -47.5t-43.5 -24.5h-125l-70 -209q-14 -35 -65 -35q-49 0 -50 47q0 8 7.5 32t16.5 51.5t20.5 58t19.5 55.5h-197l-84 -219q-8 -16 -23.5 -20.5t-31.5 -4.5q-25 0 -39 15.5 t-14 37.5q0 6 6 26t16.5 45.5t21.5 57t23 62.5h-86q-20 0 -31.5 14.5t-11.5 26.5zM313 487h191l82 236h-180z"/>
<glyph unicode="$" horiz-adv-x="784" d="M37 315q0 35 19.5 59.5t52.5 24.5q29 0 45 -19.5t16 -60.5q0 -12 11.5 -24t27.5 -21.5t36.5 -15.5t37.5 -6l82 313q-88 45 -137.5 109.5t-49.5 142.5q0 63 29 114.5t76 89.5t107.5 60.5t123.5 28.5l14 53q4 20 29 31.5t47 11.5q37 0 37 -28q0 -10 -2 -15l-12 -57 q23 -6 57.5 -24.5t52.5 -37.5q8 -6 15.5 -18t7.5 -25q0 -27 -17.5 -52t-52.5 -25q-12 0 -20 11t-19.5 24.5t-26 24.5t-36.5 11l-80 -323q82 -47 134 -116t52 -140q0 -92 -32.5 -148.5t-81 -89.5t-104.5 -44t-103 -11l-17 -66q-4 -16 -29.5 -27.5t-52.5 -11.5q-41 0 -41 33 q0 4 1.5 6t1.5 6l20 64q-37 6 -76 23.5t-70.5 43t-52 57.5t-20.5 64zM342 831q0 -41 13.5 -68.5t52.5 -49.5l71 282q-53 -4 -95 -51t-42 -113zM397 248q51 0 95.5 43.5t44.5 111.5q0 66 -74 113z"/>
<glyph unicode="%" horiz-adv-x="1042" d="M16 883q0 45 17.5 85t47.5 69.5t69.5 47t85.5 17.5q45 0 84.5 -17.5t69.5 -47t47.5 -69.5t17.5 -85t-17.5 -85t-47.5 -70t-69.5 -47t-84.5 -17t-85 17t-70 47t-47.5 70t-17.5 85zM139 883q0 -41 28 -69t69 -28t67.5 28t26.5 69t-27 67.5t-67 26.5q-41 0 -69 -26.5 t-28 -67.5zM188 41q0 10 11 35q12 27 42.5 99.5t72.5 171.5t91.5 214t97.5 228.5t90 216t73 174.5q4 10 16 20t29 10q55 0 96 -11.5t41 -27.5t-4 -31.5t-15 -41.5q-27 -63 -68.5 -163.5t-90.5 -215.5t-100.5 -232.5t-93.5 -217t-71.5 -168t-35.5 -85.5q-12 -29 -45 -28 q-12 0 -35 1t-45.5 6t-39 16.5t-16.5 29.5zM578 276q0 45 17 85t47 70t70 47.5t85 17.5t85 -17.5t69.5 -47.5t47 -69.5t17.5 -85.5q0 -45 -17.5 -84.5t-47 -69.5t-69.5 -47.5t-85 -17.5t-85 17.5t-70 47.5t-47 69.5t-17 84.5zM700 276q0 -41 28 -68.5t69 -27.5t67.5 28 t26.5 68q0 41 -26.5 68t-67.5 27t-69 -27t-28 -68z"/>
<glyph unicode="&amp;" horiz-adv-x="1159" d="M41 369q0 96 32.5 166.5t79 121t97.5 83t86 53.5q-57 53 -88 108t-31 133q0 76 38 139.5t99.5 108.5t139 69.5t157.5 24.5q135 0 211 -56t76 -165q0 -78 -39 -129t-104 -51q-41 0 -72 24.5t-31 67.5q0 31 13.5 48.5t30 30.5t29.5 27.5t13 38.5q0 51 -69 52 q-41 0 -76 -21.5t-60.5 -58.5t-40 -85t-14.5 -104q0 -35 6 -57.5t15 -38.5q8 -18 22 -29q12 4 29 9q14 4 34.5 7t49.5 3q51 0 79.5 -26.5t28.5 -67.5q0 -53 -36.5 -84t-96.5 -31q-59 0 -104 17.5t-64 27.5q-14 -10 -33.5 -36.5t-38 -63.5t-30.5 -83t-12 -96 q0 -133 69.5 -197.5t171.5 -64.5q39 0 78 10.5t69.5 32t49 56t18.5 82.5q0 53 -29.5 80.5t-60.5 27.5q-45 0 -45 -33q0 -8 6 -15t14.5 -14.5t14.5 -17.5t6 -26q0 -35 -23.5 -53.5t-54.5 -18.5q-39 0 -61.5 29.5t-22.5 74.5q0 35 18.5 67t48.5 58.5t68.5 48t79.5 37.5 q135 51 185.5 92t50.5 82q0 53 -47 54q-23 0 -34 -6.5t-28 -6.5q-23 0 -22 25q0 12 13 34.5t38 44t61.5 38t83.5 16.5q96 0 148.5 -47t52.5 -137q0 -61 -27.5 -106.5t-77 -78t-113.5 -54.5t-138 -36q10 -25 20 -63.5t10 -87.5q0 -90 -37.5 -161t-101 -120t-148.5 -75.5 t-179 -26.5q-96 0 -178.5 26.5t-142.5 75.5t-95 119t-35 158z"/>
<glyph unicode="'" horiz-adv-x="200" d="M10 1163q0 68 86 68q49 0 69.5 -16.5t20.5 -51.5q0 -10 -5 -47t-12 -80t-14.5 -79.5t-9.5 -49.5q-6 -25 -13 -38t-36 -13t-37 13.5t-12 37.5q-2 10 -8 48t-12.5 80t-11.5 80t-5 48z"/>
<glyph unicode="(" horiz-adv-x="372" d="M0 375q0 150 57.5 291t142.5 262t180 217t173 155q10 10 28.5 19.5t28.5 9.5q12 0 19.5 -7t7.5 -17q0 -16 -8 -30.5t-25 -31.5q-59 -66 -130 -164t-132 -219t-103 -259t-42 -279q0 -68 4 -120t13 -93t22.5 -75t31.5 -67q4 -6 7.5 -14t3.5 -19q0 -27 -27 -26 q-10 0 -21.5 8t-19.5 14q-10 8 -44 44t-71 94.5t-66.5 136.5t-29.5 170z"/>
<glyph unicode=")" horiz-adv-x="399" d="M-86 -68q0 16 8 30.5t25 31.5q57 63 128.5 162.5t133 220.5t103.5 259t42 279q0 68 -4 120t-13 93t-22.5 75t-31.5 67q-4 6 -7.5 14t-3.5 19q0 27 27 26q10 0 21.5 -8t19.5 -14q10 -8 44 -44t71 -94.5t66.5 -136.5t29.5 -170q0 -150 -58.5 -290t-143.5 -261t-180 -217 t-171 -157q-10 -10 -28.5 -19.5t-28.5 -9.5q-12 0 -19.5 7t-7.5 17z"/>
<glyph unicode="*" horiz-adv-x="466" d="M10 936q0 12 6.5 25.5t16.5 19.5q37 20 64.5 30.5t41.5 16.5q-41 20 -64.5 28.5t-41.5 18.5q-12 4 -17.5 15.5t-5.5 25.5q0 23 17.5 46.5t40.5 23.5q10 0 25.5 -8.5t30.5 -20.5t29.5 -25.5t24.5 -21.5q0 23 -2 54.5t-2 64.5q0 16 17.5 29.5t37.5 13.5q27 0 45.5 -13.5 t18.5 -29.5q0 -6 -1 -21.5t-2 -34l-2 -37t-1 -26.5q10 8 25.5 20.5t30.5 24.5t29.5 21.5t26.5 9.5q20 0 38 -23.5t18 -46.5q0 -12 -4.5 -23.5t-14.5 -17.5q-35 -20 -66.5 -30.5t-50.5 -14.5q31 -10 64 -26.5t49 -22.5q10 -4 16.5 -18.5t6.5 -26.5q0 -20 -16.5 -43t-39.5 -23 q-6 0 -21.5 8.5t-32.5 20.5t-34.5 24.5t-25.5 20.5q2 -25 4 -47q2 -20 3 -39.5t1 -34.5q0 -12 -18.5 -28.5t-45.5 -16.5q-20 0 -37.5 16.5t-17.5 28.5q0 29 2 60.5t4 62.5q-10 -10 -24.5 -23.5t-29.5 -24.5t-30.5 -19.5t-27.5 -8.5q-20 0 -39 20.5t-19 45.5z"/>
<glyph unicode="+" horiz-adv-x="880" d="M27 573q0 29 10 50.5t29 21.5h301v299q0 23 21.5 33t49.5 10q29 0 52.5 -10t23.5 -29v-303h299q23 0 33 -21.5t10 -50.5t-10 -52t-29 -23h-303v-297q0 -23 -23.5 -33t-52.5 -10t-50 10t-21 29v301h-297q-23 0 -33 23.5t-10 51.5z"/>
<glyph unicode="," horiz-adv-x="294" d="M-6 -174q0 14 10 30.5t22.5 38t22.5 49t10 64.5q0 29 -11 47t-11 49q0 47 28.5 78t79.5 31q109 0 109 -111q0 -55 -29.5 -109t-69.5 -97t-78 -70t-52 -27q-31 0 -31 27z"/>
<glyph unicode="-" horiz-adv-x="708" d="M61 305q0 10 5.5 29.5t14.5 38t21.5 33t24.5 14.5h467q23 0 30 -6t7 -23q0 -10 -6.5 -29.5t-16.5 -40t-23.5 -35t-25.5 -14.5h-467q-31 0 -31 33z"/>
<glyph unicode="." horiz-adv-x="428" d="M57 84q0 25 10.5 51.5t29 48t43 35.5t53.5 14q37 0 59 -26.5t22 -67.5q0 -25 -10 -52.5t-28.5 -49t-44 -35.5t-56.5 -14q-35 0 -56.5 27.5t-21.5 68.5z"/>
<glyph unicode="/" horiz-adv-x="512" d="M59 20q0 10 11 35q12 27 42.5 101.5t72.5 175t91.5 218.5t97.5 234.5t90 220t73 175.5q4 10 16 20t29 10q55 0 96 -11.5t41 -27.5t-4 -31.5t-15 -41.5q-20 -47 -48.5 -116t-62.5 -150.5t-72 -171t-74.5 -175.5t-71.5 -165.5t-61.5 -143t-45 -105.5t-24.5 -55 q-4 -16 -17.5 -22t-27.5 -6h-66q-27 0 -48.5 5t-21.5 27z"/>
<glyph unicode="0" horiz-adv-x="956" d="M27 391q0 170 47 316.5t126 255t182 171t216 62.5q72 0 133.5 -23.5t105.5 -73.5t69.5 -128t25.5 -187q0 -139 -40 -281.5t-115 -259t-180 -190t-237 -73.5q-72 0 -133 24.5t-106 74.5t-69.5 128t-24.5 184zM315 252q0 -63 26 -108.5t73 -45.5q41 0 74.5 42t61.5 109.5 t47 156t32.5 181.5t19.5 183t6 164q0 29 -3 56.5t-11 49t-23 34.5t-40 13q-57 0 -105.5 -60t-83.5 -171t-54.5 -264.5t-19.5 -339.5z"/>
<glyph unicode="1" horiz-adv-x="432" d="M10 35q0 43 12.5 119.5t31 166t40 181.5t40 169t30.5 127t12 56q-23 0 -49.5 -11.5t-52.5 -11.5q-14 0 -26.5 13.5t-12.5 27.5q0 18 9 30.5t26 25.5q61 45 124.5 95t112.5 91q35 31 58.5 50.5t37.5 19.5q41 0 69 -20.5t28 -55.5q0 -31 -20.5 -88t-51.5 -176 q-16 -66 -43 -174.5t-52.5 -226t-44 -226t-18.5 -174.5q0 -27 -10 -35t-33 -8q-47 0 -100 -5t-78 -5q-18 0 -28.5 9t-10.5 36z"/>
<glyph unicode="2" horiz-adv-x="897" d="M41 139q0 41 21.5 64.5t56.5 58.5q82 80 168 167t154.5 174t112.5 172t44 163q0 76 -35 109.5t-104 33.5q-53 0 -91 -37.5t-38 -89.5q0 -23 9 -35t20.5 -25t20.5 -30.5t9 -48.5q0 -43 -30.5 -72.5t-71.5 -29.5q-66 0 -106 44t-40 122q0 63 29 120.5t80 100.5t120.5 67.5 t151.5 24.5q80 0 149.5 -19.5t122 -57.5t83 -96t30.5 -136q0 -96 -62.5 -182.5t-147.5 -164t-171 -147.5t-135 -131q14 2 27.5 3t25.5 1q53 0 101.5 -6t91.5 -6q35 0 58.5 4t40 12t30.5 22.5t31 33.5q27 33 43 32q31 0 30 -37q0 -33 -19.5 -88t-58 -108t-97 -92t-136.5 -39 q-53 0 -88 8t-65.5 19.5t-65.5 19.5t-84 8q-18 0 -34.5 -7t-33 -15.5t-33 -15.5t-32.5 -7t-31.5 15.5t-27 37t-17.5 46t-6 40.5z"/>
<glyph unicode="3" horiz-adv-x="872" d="M76 342q0 51 35 51q14 0 22 -8t17 -33q16 -53 69 -91t117 -38q88 0 137 52.5t49 144.5q0 119 -112 149q-39 10 -55.5 23.5t-16.5 38.5q0 39 18.5 59.5t63.5 32.5q37 10 68.5 34.5t54 57.5t35 72t12.5 78q0 59 -27.5 90.5t-87.5 31.5q-41 0 -62.5 -22.5t-21.5 -52.5 q0 -23 7.5 -33t15.5 -19.5t15 -23.5t7 -41q0 -43 -35.5 -70.5t-76.5 -27.5q-59 0 -96.5 38.5t-37.5 100.5q0 74 35 123t89.5 78.5t120 43t126.5 13.5q137 0 219 -57.5t82 -186.5q0 -59 -20.5 -105t-52 -79t-69.5 -54.5t-71 -33.5q29 -12 62.5 -33.5t62.5 -54.5t48.5 -77 t19.5 -99q0 -86 -28 -163t-80 -135.5t-127 -92t-169 -33.5q-102 0 -170.5 38t-111.5 93t-61.5 115.5t-18.5 105.5z"/>
<glyph unicode="4" horiz-adv-x="894" d="M20 549q0 25 36 65.5t78 94t78 114t36 125.5q0 20 -8.5 34.5t-19.5 27t-19 29t-8 44.5q0 43 35.5 71t76.5 28q66 0 99.5 -35t33.5 -96q0 -49 -15 -105.5t-41 -112t-56.5 -105.5t-61.5 -85q20 4 44 6t50 2q39 0 84 -4t99 -10q23 88 37 144.5t18 72.5q18 57 34.5 98t35 71 t39 51.5t45.5 39.5q35 27 75.5 45.5t69.5 18.5q33 0 33 -29q0 -16 -13.5 -42t-29.5 -79q-8 -25 -21.5 -77t-28 -113.5t-28.5 -125t-25 -110.5q14 -4 34 -4h34q12 0 21.5 -4t9.5 -19q0 -16 -12.5 -40.5t-32 -48t-44 -44t-51.5 -26.5q-51 -250 -51 -373q0 -27 -10 -35t-33 -8 q-47 0 -100 -5t-78 -5q-18 0 -28.5 9t-10.5 36q0 59 14.5 158.5t40.5 220.5q-37 6 -77.5 9t-79.5 5t-72 2h-51q-41 0 -60.5 -7t-42.5 -7q-16 0 -30.5 15t-25.5 36.5t-18.5 44.5t-7.5 37z"/>
<glyph unicode="5" horiz-adv-x="831" d="M49 342q0 51 35 51q16 0 23.5 -10t15.5 -37q23 -72 72 -97.5t112 -25.5q43 0 78 18.5t57.5 50.5t34.5 73t12 84q0 27 -7 60.5t-25.5 63t-50 50t-82.5 20.5q-29 0 -74 -10q-6 -2 -19 -2q-29 0 -47 22.5t-18 46.5q0 12 11 49t25.5 88.5t30 113t21.5 122.5q4 43 34.5 74 t71.5 31q10 0 28 -4.5t45.5 -10.5t69.5 -10t101 -4q63 0 102 5t63 11t36 11.5t22 5.5q12 0 21.5 -6.5t9.5 -20.5q0 -10 -9 -40t-26.5 -64.5t-42 -67.5t-53.5 -47q-18 -10 -41.5 -13t-50.5 -3q-55 0 -110.5 11t-110.5 25q-16 -82 -35 -139q-10 -33 -23 -59q39 8 84 8 q70 0 133.5 -22.5t112.5 -64.5t78 -102.5t29 -136.5q0 -94 -31 -176t-86 -143.5t-133 -96t-172 -34.5q-84 0 -144.5 30.5t-99.5 80t-58.5 112.5t-19.5 129z"/>
<glyph unicode="6" horiz-adv-x="860" d="M20 457q0 172 41 308t114 231.5t170 145.5t208 50q70 0 122 -18.5t87 -50t52 -72.5t17 -86q0 -86 -38.5 -132.5t-104.5 -46.5q-41 0 -71.5 30t-30.5 73q0 31 9 46t20.5 26.5t20.5 22.5t9 34q0 35 -25.5 52t-60.5 17q-55 0 -98 -38.5t-74 -104t-47 -153t-16 -183.5 q31 29 69 51q35 18 80 35t105 17q117 0 189.5 -78t72.5 -209q0 -84 -26 -162t-80 -138.5t-137 -97t-200 -36.5q-55 0 -120.5 21.5t-122 73.5t-95.5 142t-39 230zM317 297q0 -86 29 -140.5t76 -54.5q66 0 105.5 93.5t39.5 246.5q0 137 -96 138q-29 0 -56.5 -21.5t-49 -58.5 t-35 -89.5t-13.5 -113.5z"/>
<glyph unicode="7" horiz-adv-x="694" d="M72 946q0 8 9 39t26.5 65.5t42 67.5t53.5 47q18 10 42.5 13.5t51.5 3.5q59 0 152.5 -11.5t183.5 -11.5q25 0 40 3t26.5 6t20.5 6.5t23 3.5t27.5 -14.5t25 -35t18.5 -43t7 -38.5q0 -23 -32.5 -46.5t-75.5 -70.5q-72 -80 -133.5 -198t-107.5 -241.5t-71.5 -237.5 t-25.5 -185q0 -23 -13.5 -36.5t-35.5 -13.5q-10 0 -39 -4t-63 -10t-66.5 -10t-53.5 -4q-16 0 -23 11t-7 28q0 47 18.5 117.5t50 152.5t74.5 170t94 172t109 159t117 128q-20 4 -80 14t-131 10q-63 0 -102.5 -5t-63 -11t-35.5 -11t-23 -5q-12 0 -21 6t-9 20z"/>
<glyph unicode="8" horiz-adv-x="901" d="M20 270q0 63 25 119.5t62.5 104t84 85t87.5 64.5q-55 47 -91 100.5t-36 126.5q0 82 38.5 142.5t100 99.5t137.5 57.5t150 18.5q137 0 215.5 -55.5t78.5 -171.5q0 -49 -18 -91.5t-50 -79t-74 -68.5t-87 -60q27 -18 56.5 -47t52 -67t38 -84t15.5 -99q0 -90 -33 -162 t-91 -121t-140 -75.5t-183 -26.5q-63 0 -123.5 14t-108.5 48t-77 90t-29 138zM262 209q0 -53 36 -85t83 -32q63 0 101 42.5t38 101.5q0 72 -37 122t-92 101q-49 -53 -89 -115.5t-40 -134.5zM436 911q0 -51 20.5 -79.5t63.5 -69.5q63 53 105.5 119.5t42.5 128.5 q0 35 -24.5 55t-55.5 20q-63 0 -107.5 -49t-44.5 -125z"/>
<glyph unicode="9" horiz-adv-x="847" d="M-2 244q0 45 35 45q14 0 23.5 -9.5t29.5 -25.5q23 -20 56.5 -32.5t84.5 -12.5q59 0 112.5 25.5t93.5 71.5t63.5 109.5t23.5 137.5q-25 -33 -61 -55q-31 -20 -77 -37t-108 -17q-57 0 -106 19.5t-86 55.5t-57.5 88t-20.5 118q0 82 28.5 166t86 150.5t143.5 108.5t203 42 q76 0 141.5 -21.5t113.5 -68.5t75.5 -124t27.5 -187q0 -186 -42 -335t-114.5 -252.5t-171.5 -158.5t-214 -55q-76 0 -129.5 27.5t-87 67.5t-50 84t-16.5 75zM276 711q0 -59 27 -94t70 -35q29 0 56.5 27.5t49 73.5t34.5 105.5t13 120.5q0 86 -19.5 128t-66.5 42 q-33 0 -62.5 -28.5t-52 -78.5t-36 -118t-13.5 -143z"/>
<glyph unicode=":" horiz-adv-x="356" d="M61 145q0 25 10.5 51.5t29 48t43 36t53.5 14.5q37 0 59.5 -26.5t22.5 -67.5q0 -25 -10.5 -52.5t-29 -49t-44 -36t-56.5 -14.5q-35 0 -56.5 27.5t-21.5 68.5zM98 473q0 25 10.5 51.5t29 48t43 36t52.5 14.5q37 0 59.5 -27t22.5 -68q0 -25 -10 -52t-28.5 -48.5t-44 -36 t-56.5 -14.5q-35 0 -56.5 27.5t-21.5 68.5z"/>
<glyph unicode=";" horiz-adv-x="264" d="M-41 -174q0 14 10.5 30.5t22.5 38t22.5 49t10.5 64.5q0 29 -11.5 47t-11.5 49q0 47 28.5 78t80.5 31q109 0 108 -111q0 -55 -29.5 -109t-69.5 -97t-78 -70t-52 -27q-31 0 -31 27zM43 473q0 25 10 51.5t28.5 48t43.5 36t53 14.5q37 0 59.5 -27t22.5 -68q0 -25 -10 -52 t-28.5 -48.5t-44 -36t-56.5 -14.5q-35 0 -56.5 27.5t-21.5 68.5z"/>
<glyph unicode="&lt;" horiz-adv-x="638" d="M37 618q0 12 8 32.5t37 45.5q121 86 219 154q41 29 81 56.5t72.5 49t53 35t24.5 13.5q12 0 23.5 -11.5t19 -27t12.5 -30.5t5 -26q0 -12 -3 -18t-16 -17l-368 -253l370 -246q18 -12 19 -39q0 -6 -3 -21.5t-10.5 -32t-17.5 -28.5t-24 -12q-4 0 -25.5 13t-55.5 34.5 t-76 48.5t-85 55q-102 68 -229 154q-16 14 -23.5 34.5t-7.5 36.5z"/>
<glyph unicode="=" horiz-adv-x="868" d="M0 408q0 10 5 29.5t14.5 38t21.5 32.5t25 14h686q23 0 29.5 -6t6.5 -22q0 -10 -6 -30t-16 -40.5t-23.5 -34.5t-25.5 -14h-686q-31 0 -31 33zM41 682q0 10 5 29.5t14.5 38t21.5 33t24 14.5h687q23 0 29.5 -6.5t6.5 -22.5q0 -10 -6 -29.5t-16 -40t-23.5 -35t-25.5 -14.5 h-686q-31 0 -31 33z"/>
<glyph unicode="&gt;" horiz-adv-x="634" d="M37 336q0 27 18 39l371 246l-369 253q-12 10 -15 16.5t-3 18.5q0 10 5 25.5t12 31t18.5 27t23.5 11.5q2 0 23.5 -13.5t53.5 -35t73 -49t82 -56.5q98 -68 219 -154q29 -25 37 -45t8 -33q0 -16 -7 -36.5t-24 -34.5q-127 -86 -229 -154q-43 -29 -86 -55.5t-77 -48 t-55.5 -34.5t-23.5 -13q-14 0 -24.5 12t-17.5 28.5t-10 32t-3 21.5z"/>
<glyph unicode="?" horiz-adv-x="772" d="M4 1001q0 76 29.5 134.5t81 98.5t119 60.5t145.5 20.5q80 0 152.5 -17.5t128 -56.5t88 -101.5t32.5 -152.5q0 -63 -26.5 -116.5t-67.5 -101.5t-90 -91t-94 -88t-79 -93.5t-44 -103.5q-8 -47 -60 -51q-43 -4 -74.5 -17.5t-49.5 -13.5q-10 0 -20.5 8.5t-10.5 24.5 q0 74 49 158t109.5 172t109.5 181t49 185q0 84 -34.5 124t-118.5 40q-53 0 -94 -38t-41 -89q0 -23 9 -37t21.5 -29.5t21.5 -34t9 -48.5q0 -43 -32 -67.5t-72 -24.5q-66 0 -106 44t-40 121zM139 84q0 25 10.5 51.5t29 48t43 35.5t52.5 14q37 0 59.5 -26.5t22.5 -67.5 q0 -25 -10 -52.5t-28.5 -49t-44 -35.5t-56.5 -14q-35 0 -56.5 27.5t-21.5 68.5z"/>
<glyph unicode="@" horiz-adv-x="1112" d="M12 248q0 100 44 193.5t126 164t198 113.5t259 43q211 0 329.5 -86t118.5 -264q0 -68 -21.5 -134.5t-60 -119t-94 -84t-125.5 -31.5q-49 0 -79.5 14.5t-49 30.5t-27.5 30.5t-14 14.5q-6 0 -22 -14.5t-44 -30.5t-66 -30.5t-85 -14.5q-78 0 -131 51t-53 150 q0 63 19.5 124.5t62.5 110.5t108.5 79t157.5 30q35 0 57.5 -5t39 -11.5t27.5 -11.5t22 -5q10 0 28.5 5t39 11.5t40 11.5t35.5 5q25 0 25 -27q0 -16 -9.5 -47t-20.5 -73t-20.5 -90t-9.5 -99q0 -33 17.5 -51.5t39.5 -18.5q18 0 37 13.5t35.5 42t26.5 74.5t10 114 q0 135 -81 193.5t-247 58.5q-129 0 -227 -34t-162.5 -93t-97.5 -139t-33 -172q0 -129 72 -199t201 -70q53 0 96 18.5t51 22.5l10 5t10 3q16 0 17 -20q0 -8 -18.5 -31.5t-46 -49t-62.5 -45t-66 -19.5q-86 0 -157.5 26.5t-122.5 77.5t-79 124t-28 165zM438 242 q0 -35 15.5 -57.5t44.5 -22.5q53 0 88 80q8 16 16 44.5t14.5 60.5t10.5 63.5t4 56.5q0 51 -51 51q-37 0 -64 -29.5t-44 -72.5t-25.5 -91.5t-8.5 -82.5z"/>
<glyph unicode="A" horiz-adv-x="1476" d="M0 266q0 72 33 125t78 88t94 51.5t80 16.5q29 0 28 -27q0 -18 -18.5 -41.5t-18.5 -58.5q0 -47 28 -77t91 -30q47 0 92 33t88 84t82 112.5t76 121.5q43 70 86 143.5t86 141t88 127t92 102.5q-53 16 -122.5 28.5t-143.5 12.5q-88 0 -143 -46.5t-55 -103.5q0 -45 22.5 -67.5 t63.5 -22.5q25 0 38 10t23 10q23 0 23 -22q0 -29 -17.5 -64.5t-49.5 -67.5t-77 -53.5t-98 -21.5q-47 0 -90 17.5t-75 48t-50.5 74.5t-18.5 98q0 82 37 147.5t98.5 110.5t142.5 68.5t167 23.5q82 0 147.5 -8.5t117.5 -19.5t95 -19t82 -8q127 0 196.5 16t94.5 16 q20 0 28.5 -10t8.5 -25q0 -10 -6 -23t-16.5 -36.5t-26 -61.5t-33.5 -100q-20 -66 -46 -171t-48.5 -221t-38 -227.5t-15.5 -189.5q0 -53 16.5 -83.5t51.5 -30.5q27 0 42 11t36 32q20 20 35 20q14 0 21 -9t7 -20q0 -16 -8 -30.5t-24 -34.5t-41 -44t-57.5 -44.5t-72.5 -33.5 t-89 -13q-102 0 -150.5 62.5t-48.5 164.5q0 43 5 97.5t13 106.5t16.5 98t14.5 77q-78 0 -125 -36t-86 -107q-49 -92 -97 -177.5t-109.5 -152t-140.5 -105t-187 -38.5q-70 0 -128.5 20t-101.5 58t-67.5 90.5t-24.5 117.5zM969 725h133q27 115 73 228.5t80 189.5 q-47 -37 -91 -93.5t-82 -116t-67.5 -114.5t-45.5 -94z"/>
<glyph unicode="B" horiz-adv-x="1441" d="M0 811q0 121 73.5 221.5t199.5 173t292 112.5t350 40q236 0 356 -79t120 -214q0 -72 -28 -130t-74 -101t-104.5 -69t-121.5 -34q43 -4 94 -29.5t95 -67.5t74 -98.5t30 -119.5q0 -123 -43 -205t-109.5 -131t-148.5 -69.5t-158 -20.5q-55 0 -101 11t-82 25.5t-59.5 25.5 t-33.5 11q-18 0 -45 -11t-55.5 -25.5t-58.5 -25.5t-50 -11q-33 0 -33 26q0 10 5 19.5t14.5 23t21.5 37t26 60.5q8 23 21.5 81t30 137t34 170t36 181t36 170t31.5 135q14 51 31.5 87t37 60.5t40 42t40.5 31.5q-100 -6 -185 -43t-146.5 -88t-96 -110.5t-34.5 -110.5 q0 -96 84 -96q20 0 40.5 7t28.5 7q20 0 21 -22q0 -23 -20.5 -58t-57.5 -68.5t-87 -58t-112 -24.5q-96 0 -157.5 58t-61.5 167zM760 193q0 -39 24.5 -67t65.5 -28q31 0 66.5 21.5t65.5 67.5t49.5 121t19.5 184q0 98 -60.5 150t-146.5 52q-25 -125 -43 -229q-8 -45 -15.5 -89 t-13.5 -82t-9 -64.5t-3 -36.5zM870 797q55 0 100.5 27.5t79 71.5t52 99.5t18.5 112.5q0 61 -26.5 104t-77.5 43q-14 -14 -30.5 -53t-33 -90t-32 -106.5t-26.5 -102.5t-14 -62z"/>
<glyph unicode="C" horiz-adv-x="976" d="M0 446q0 190 61.5 357.5t162 290.5t224 193.5t250.5 70.5q119 0 199 -65.5t80 -192.5q0 -86 -39 -142.5t-98 -56.5q-41 0 -71 24.5t-30 67.5q0 35 14.5 55.5t32 36t31.5 34t14 50.5q0 37 -27.5 55.5t-64.5 18.5q-78 0 -150.5 -60.5t-127.5 -161.5t-88 -236.5t-33 -282.5 q0 -145 77 -216t187 -71q41 0 76 14.5t64.5 35t52 43t39.5 38.5q31 35 47 35q27 0 26 -23q0 -14 -5 -28.5t-15 -34.5q-16 -37 -56 -92.5t-100.5 -105.5t-138.5 -87t-170 -37q-94 0 -172 26t-134.5 83t-87 147t-30.5 217z"/>
<glyph unicode="D" horiz-adv-x="1531" d="M0 811q0 121 75 221.5t198.5 173t283.5 112.5t330 40q123 0 232.5 -27.5t192.5 -90t131 -163t48 -243.5q0 -129 -15.5 -232.5t-54.5 -202.5q-82 -205 -217 -307t-295 -102q-51 0 -98 11t-85 25.5t-65.5 25.5t-39.5 11q-18 0 -45 -11t-55.5 -25.5t-58.5 -25.5t-50 -11 q-33 0 -33 26q0 10 5 19.5t14.5 23t21.5 37t26 60.5q8 23 21.5 81t30 136t35 170t37 181t35 170t30.5 136q12 51 29.5 87t37 60.5t41 42t41.5 31.5q-100 -6 -185 -43t-146.5 -88t-96 -110.5t-34.5 -110.5q0 -96 84 -96q20 0 40.5 7t28.5 7q20 0 21 -22q0 -23 -20.5 -58 t-57.5 -68.5t-87 -58t-112 -24.5q-96 0 -157.5 58t-61.5 167zM764 188q0 -79 82 -79h2q92 0 163.5 90t114.5 231q33 106 49.5 222t16.5 247q0 88 -14.5 150.5t-39 102.5t-56 61.5t-68.5 27.5q-25 -31 -46.5 -81t-45.5 -140q-18 -61 -37 -142t-36.5 -169t-32.5 -175.5 t-26.5 -159t-18.5 -121.5t-7 -65z"/>
<glyph unicode="E" horiz-adv-x="929" d="M0 350q0 102 33 177t81 127.5t100 84t89 47.5q-47 47 -76.5 106.5t-29.5 127.5q0 70 33.5 131t90 107.5t130 73t151.5 26.5q135 0 209 -55.5t74 -161.5q0 -78 -38 -128t-104 -50q-41 0 -70.5 24.5t-29.5 65.5q0 31 13.5 48t29.5 30.5t29.5 28t13.5 36.5q0 51 -70 51 q-41 0 -75.5 -21.5t-59 -57t-39 -84t-14.5 -103.5q0 -35 6 -57.5t15 -36.5q8 -16 22 -27q12 4 29 8q14 4 33.5 6.5t48.5 2.5q49 0 78.5 -26t29.5 -67q0 -51 -37 -81.5t-96 -30.5q-57 0 -102 16.5t-64 26.5q-14 -10 -33.5 -36t-37 -62.5t-29.5 -81t-12 -93.5 q0 -111 67.5 -169t163.5 -58q39 0 72.5 12.5t60.5 30.5t48.5 39.5t37.5 42.5q16 16 27.5 28.5t21.5 12.5q27 0 27 -23q0 -16 -17 -55q-16 -41 -47.5 -97t-84 -108.5t-125 -88.5t-173.5 -36q-86 0 -158.5 29t-127 79t-85 119.5t-30.5 149.5z"/>
<glyph unicode="F" horiz-adv-x="993" d="M0 279q0 72 27.5 128t70.5 94t96.5 57.5t106.5 19.5q47 0 63.5 -8.5t16.5 -20.5q0 -23 -27 -29q-35 -10 -66.5 -46t-31.5 -83q0 -53 35 -87t90 -34q59 0 101 34t71 90.5t47 129t33 148.5h-88q-27 0 -27 26q0 23 19.5 52.5t35.5 29.5h78q12 66 24.5 129.5t29.5 116.5 q18 59 47.5 97t64.5 59q-55 20 -104 28.5t-125 8.5q-88 0 -143.5 -46.5t-55.5 -103.5q0 -45 23.5 -67.5t62.5 -22.5q25 0 38 10t26 10q20 0 20 -22q0 -29 -17.5 -64.5t-49 -67.5t-76.5 -53.5t-99 -21.5q-47 0 -90 17.5t-74.5 48t-50 74.5t-18.5 98q0 82 37 147.5t98.5 110.5 t142 68.5t166.5 23.5q137 0 224.5 -17.5t140.5 -17.5q49 0 83 17.5t52 17.5q37 0 37 -35q0 -16 -21.5 -43t-64.5 -96q-43 -70 -63.5 -175.5t-36.5 -228.5h92q18 0 18 -20q0 -25 -19.5 -56.5t-41.5 -31.5h-64q-16 -125 -42.5 -250t-82 -224.5t-149 -161t-240.5 -61.5 q-76 0 -139.5 21.5t-110.5 61.5t-73.5 95.5t-26.5 125.5z"/>
<glyph unicode="G" horiz-adv-x="1062" d="M-20 -328q0 80 29.5 140.5t77.5 99.5t106.5 58.5t115.5 19.5q76 0 76 -31q0 -18 -27 -33q-33 -18 -60.5 -52t-27.5 -77q0 -55 33 -91t109 -36q66 0 120 48.5t95 133.5t68.5 198.5t39.5 244.5q-18 -31 -45.5 -65.5t-67.5 -65.5t-92.5 -51.5t-121.5 -20.5 q-68 0 -129.5 25.5t-107.5 75t-73.5 120t-27.5 160.5q0 178 60 339t156.5 283t215.5 192.5t237 70.5q129 0 200 -66.5t71 -171.5q0 -86 -37 -143t-96 -57q-41 0 -70 24.5t-29 65.5q0 35 12.5 56t28 37.5t28.5 32t13 38.5q0 53 -65 53q-35 0 -71 -14.5t-89 -59.5 q-47 -43 -87 -107.5t-68.5 -142.5t-45 -166t-16.5 -176q0 -115 45 -168t110 -53q53 0 89 27.5t58.5 68.5t35 89t20.5 89q2 14 20.5 31t46 31t60.5 23.5t62 9.5q35 0 34 -31q0 -18 -12 -39t-22 -68q-6 -25 -11.5 -59.5t-10.5 -71.5t-9 -71.5t-6 -57.5q-10 -207 -45 -383 t-102.5 -303t-173 -198.5t-259.5 -71.5q-76 0 -142.5 23.5t-116.5 65.5t-79.5 100.5t-29.5 127.5z"/>
<glyph unicode="H" horiz-adv-x="1538" d="M0 782q0 131 60.5 236.5t155.5 181.5t214 117t238 41q147 0 230 -63.5t83 -190.5q0 -70 -20.5 -169t-49.5 -214h254q16 72 34 139.5t34 125.5t29.5 103.5t23.5 73.5q12 39 51 70t85 51.5t91.5 30.5t67.5 10q41 0 41 -33q0 -16 -25.5 -52t-44.5 -85q-16 -43 -36.5 -116.5 t-42 -160.5t-42 -180.5t-36 -177.5t-24.5 -150.5t-9 -99.5q0 -53 16.5 -83.5t51.5 -30.5q27 0 42 11t35 32q20 20 35 20q14 0 21.5 -9t7.5 -20q0 -16 -8.5 -30.5t-24.5 -34.5t-40.5 -44t-57.5 -44.5t-73 -33.5t-89 -13q-102 0 -150.5 62.5t-48.5 164.5q0 68 16.5 173.5 t43.5 221.5q-59 0 -128 -14t-114 -59q-23 -23 -48.5 -87.5t-47 -142.5t-34.5 -152.5t-13 -119.5q0 -27 -10.5 -35t-32.5 -8q-25 0 -56.5 -2t-64.5 -4t-59.5 -4t-38.5 -2q-41 0 -41 47q0 43 19 121.5t48 179t62.5 213t62.5 223.5t48.5 212t19.5 179q0 45 -24.5 65.5 t-65.5 20.5q-59 0 -115.5 -36t-101 -92t-71 -123.5t-26.5 -129.5q0 -51 24.5 -74.5t57.5 -23.5q20 0 37.5 8t28.5 8q20 0 20 -22q0 -23 -19.5 -58.5t-54 -69.5t-83 -57.5t-103.5 -23.5q-92 0 -153.5 62.5t-61.5 170.5z"/>
<glyph unicode="I" horiz-adv-x="972" d="M0 279q0 72 28.5 127t73.5 93t100.5 57t108.5 19q39 0 54.5 -8t15.5 -18q0 -23 -27 -29q-35 -10 -66.5 -46t-31.5 -83q0 -53 35 -87t90 -34q82 0 131 61.5t79 155t46 205t30.5 212t35 176t57.5 98.5q-57 -23 -110.5 -51.5t-93.5 -66.5t-64.5 -86t-24.5 -108 q0 -76 49 -108q16 -10 23.5 -15.5t7.5 -17.5q0 -10 -15.5 -20.5t-46.5 -10.5q-45 0 -93 15.5t-88 45t-66.5 72.5t-26.5 99q0 74 47 125t121 89t161 65.5t167 56.5q45 16 67.5 40.5t50.5 32.5q43 12 75 17.5t52 5.5q41 0 41 -31q0 -16 -10 -39t-35 -82q-25 -57 -35 -169.5 t-24.5 -250t-42 -281t-86 -261t-156.5 -193.5t-254 -76q-76 0 -139.5 22.5t-110.5 62.5t-73.5 96.5t-26.5 122.5z"/>
<glyph unicode="J" horiz-adv-x="952" d="M-238 -88q0 78 34 139.5t86 103.5t114.5 64.5t118.5 22.5q41 0 58 -7.5t17 -23.5t-30 -29q-47 -16 -84 -53t-37 -102q0 -63 47 -103.5t119 -40.5q70 0 123 45t93 117t68.5 162t49.5 182q-88 0 -170 16.5t-145.5 50t-101.5 88t-38 132.5q0 104 46 186t123 146.5t176.5 117 t203.5 99.5q25 10 46 27.5t39.5 35t35 30.5t30.5 17q43 12 75 17.5t52 5.5q41 0 41 -31q0 -16 -11 -36.5t-28 -59.5q-23 -51 -35 -145.5t-22 -214t-22.5 -257t-34.5 -276.5q-25 -154 -71 -293t-122 -246.5t-183.5 -171t-256.5 -63.5q-82 0 -155.5 26.5t-129 73.5 t-87.5 110.5t-32 137.5zM410 694q0 -78 41 -138t102 -89q27 119 41 225.5t27.5 194.5t29 153.5t43.5 104.5q-156 -90 -220 -203t-64 -248z"/>
<glyph unicode="K" horiz-adv-x="1474" d="M0 782q0 131 62.5 236.5t161 181.5t216 117t228.5 41q147 0 230 -63.5t83 -190.5q0 -59 -17.5 -141t-45.5 -179q47 23 84.5 73t70.5 109.5t62.5 123t63.5 115.5t73 86t88 34q61 0 122.5 -13.5t90.5 -29.5q31 -16 31 -37q0 -25 -29 -24q-29 0 -63.5 -16.5t-69.5 -51.5 q-45 -47 -86 -112.5t-89 -129t-106.5 -118t-138.5 -78.5q55 -23 92 -60t62 -118q14 -55 27.5 -112.5t29.5 -105t40.5 -77t65.5 -29.5q35 0 58.5 13.5t40.5 25.5q12 10 19 14t18 4q27 0 26 -26q0 -18 -13 -40t-36 -52q-16 -23 -41 -50.5t-56.5 -52t-72.5 -42t-90 -17.5 q-84 0 -133 36.5t-77 96t-36 135.5t-8 156q0 47 -1 88t-7 71.5t-18.5 49t-34.5 20.5q-29 -90 -51.5 -178t-38 -168t-24.5 -146.5t-9 -113.5q0 -27 -10.5 -35t-32.5 -8q-25 0 -56.5 -2t-64.5 -4t-59.5 -4t-38.5 -2q-41 0 -41 47q0 43 19 121.5t48 179t62.5 213t62.5 223.5 t48.5 212t19.5 179q0 45 -24.5 65.5t-65.5 20.5q-51 0 -106.5 -36t-101.5 -92t-76 -123.5t-30 -129.5q0 -51 24.5 -74.5t57.5 -23.5q20 0 37.5 8t28.5 8q20 0 20 -22q0 -23 -19.5 -58.5t-54 -69.5t-83 -57.5t-103.5 -23.5q-92 0 -153.5 62.5t-61.5 170.5z"/>
<glyph unicode="L" horiz-adv-x="1474" d="M0 285q0 70 25.5 127t68.5 98t100.5 62.5t122.5 21.5q76 0 150 -20.5t139 -53.5q12 29 19.5 55.5t17.5 63.5q-90 14 -178 47t-160 83t-116 118.5t-44 154.5q0 117 72 190t186 73q66 0 113 -21.5t78 -52.5t45 -66t14 -59q0 -12 -7 -21.5t-21 -9.5q-12 0 -31 7.5t-39 7.5 q-39 0 -67.5 -33t-28.5 -82q0 -76 57 -136.5t158 -90.5q35 143 72.5 255.5t87 191.5t116 121t158.5 42q109 0 175.5 -58.5t66.5 -162.5q0 -80 -35 -161t-95.5 -150.5t-143.5 -120t-181 -66.5q-39 -137 -80 -250q78 -47 155 -82t160 -35q70 0 119 26t82 64q27 33 43 33 q31 0 31 -37q0 -33 -19.5 -94t-58.5 -122.5t-97.5 -106.5t-135.5 -45q-53 0 -99.5 20.5t-90.5 54t-85 76.5t-82 88q-63 -109 -155.5 -174t-229.5 -65q-74 0 -138 21.5t-112.5 61.5t-75 93t-26.5 119zM272 365q0 -47 30 -74t71 -27q72 0 120 36t74 95q-37 27 -85 49.5 t-93 22.5q-49 0 -83 -28.5t-34 -73.5zM922 743q66 16 115.5 54.5t83.5 85.5t51.5 96t17.5 88q0 31 -19.5 50.5t-50.5 19.5q-59 0 -106 -90.5t-92 -303.5z"/>
<glyph unicode="M" horiz-adv-x="1839" d="M0 180q0 55 25.5 103.5t61.5 84t76 55t68 19.5q29 0 29 -24q0 -18 -7 -35.5t-7 -52.5q0 -39 26.5 -72t81.5 -33q72 0 132.5 51.5t108.5 133.5t85 184t61.5 202.5t37 189.5t12.5 144q0 47 -29 80t-68 33q-43 0 -91 -30.5t-88 -80t-65.5 -112t-25.5 -123.5 q0 -51 24.5 -74.5t57.5 -23.5q20 0 36.5 8t26.5 8q23 0 23 -22q0 -23 -19.5 -59t-54.5 -69.5t-83 -57t-105 -23.5q-92 0 -152.5 62.5t-60.5 170.5q0 131 59.5 231.5t149.5 169t196.5 104.5t202.5 36q160 0 249 -68.5t132 -174t52 -230.5t9 -238q0 -76 -1 -124t-1 -50 q2 8 24.5 58.5t56.5 123t75 158.5t81 166t74.5 142.5t57.5 90.5q12 16 44 34t74 31t92 22.5t101 9.5q37 0 37 -37q0 -16 -22.5 -52t-40.5 -83q-16 -43 -36 -113t-40.5 -150.5t-37.5 -166.5t-31.5 -164t-23 -140.5t-8.5 -97.5q0 -53 19.5 -82.5t54.5 -29.5q31 0 54.5 17 t44.5 38q14 14 22 18t16 4q23 0 23 -22q0 -31 -27.5 -75t-71.5 -85t-101.5 -69.5t-116.5 -28.5q-102 0 -150.5 62.5t-48.5 164.5q0 49 13 125t33.5 163t44.5 176t44 165h-16q-29 -68 -77 -170.5t-100.5 -216t-98.5 -222t-73 -188.5q-8 -27 -20 -43t-35 -16h-160 q-18 0 -29.5 9t-11.5 36q0 6 3.5 55t7.5 125t10 167t10 179t7 164t3 121h-16q-16 -80 -37.5 -180.5t-54.5 -205t-79 -202.5t-110.5 -175t-148.5 -124t-193 -47q-70 0 -121 21.5t-85.5 58.5t-52 86t-17.5 102z"/>
<glyph unicode="N" horiz-adv-x="1478" d="M0 180q0 55 25.5 103.5t61.5 84t76 55t68 19.5q29 0 29 -24q0 -18 -7 -35.5t-7 -52.5q0 -39 27.5 -72t91.5 -33q45 0 95 39t96 104.5t88 151.5t74 182.5t50 195.5t18 189q0 86 -33.5 121t-88.5 35q-41 0 -83 -30.5t-76 -80t-54.5 -112t-20.5 -123.5q0 -51 24.5 -74.5 t57.5 -23.5q20 0 37.5 8t28.5 8q20 0 20 -22q0 -23 -19.5 -59t-54.5 -69.5t-83 -57t-103 -23.5q-92 0 -153.5 62.5t-61.5 170.5q0 131 56.5 231.5t143.5 169t191 104.5t199 36q111 0 185.5 -27.5t123.5 -78t76.5 -119t46.5 -150.5q8 -37 14 -86t11.5 -101.5t7.5 -106.5 t4 -99q45 227 86 385t98 270q27 53 62.5 83t97.5 30q43 0 75.5 -11.5t53 -27.5t31 -35.5t10.5 -34.5q0 -31 -31 -30q-37 0 -63.5 -9.5t-57.5 -46.5q-35 -43 -82 -151.5t-93 -259t-86 -329.5t-58 -364q-2 -33 -16.5 -46t-37.5 -13h-202q-16 0 -26.5 9t-12.5 36 q-6 96 -7 193.5t-2 191.5t-4.5 184.5t-13.5 173.5h-10q-16 -74 -39 -168t-55.5 -191t-76.5 -190.5t-105.5 -166t-140.5 -116.5t-181 -44q-70 0 -124 21.5t-92 58.5t-58.5 86t-20.5 102z"/>
<glyph unicode="O" horiz-adv-x="1159" d="M0 477q0 233 77 399t193.5 273.5t255 158t258.5 50.5q98 0 142.5 -18.5t44.5 -41.5q0 -20 -27 -20q-12 0 -35.5 2t-62.5 2q-98 0 -187.5 -51t-157 -150.5t-106.5 -244t-39 -330.5q0 -184 54.5 -268t134.5 -84q76 0 140.5 58t111.5 151.5t73.5 209t26.5 228.5 q0 121 -47 166t-111 45q-35 0 -63.5 -8.5t-52.5 -22.5q-14 -8 -21.5 -12t-17.5 -4q-18 0 -19 22q0 23 30 71t87 87q57 41 107.5 53t101.5 12q117 0 191.5 -78.5t74.5 -242.5q0 -168 -54 -331t-148.5 -292t-219.5 -209t-266 -80q-100 0 -186 31t-148.5 93.5t-98.5 156.5 t-36 219z"/>
<glyph unicode="P" horiz-adv-x="1452" d="M0 811q0 121 71.5 221.5t196.5 173t295 112.5t367 40q109 0 203 -22.5t162.5 -65.5t107.5 -104.5t39 -141.5q0 -117 -50.5 -206t-129 -150.5t-177 -93t-196.5 -31.5q-37 0 -37 30q0 25 43 39q119 39 189.5 154t70.5 272q0 96 -40 146.5t-99 66.5q-18 -16 -43 -55 t-49 -117q-53 -168 -99.5 -338t-81 -313t-54 -247.5t-19.5 -143.5q0 -27 -10.5 -35t-32.5 -8q-23 0 -55.5 -2t-65.5 -4t-59.5 -4t-38.5 -2q-39 0 -39 47q0 29 15 99.5t38.5 162.5t53.5 198.5t59.5 208t55 189.5t44.5 143q16 53 34.5 89t37 60.5t38 41t39.5 30.5 q-100 -6 -185 -43t-146.5 -88t-96 -110.5t-34.5 -110.5q0 -96 84 -96q20 0 40.5 7t28.5 7q20 0 21 -22q0 -23 -20.5 -58t-57.5 -68.5t-87 -58t-112 -24.5q-96 0 -157.5 58t-61.5 167z"/>
<glyph unicode="Q" horiz-adv-x="1138" d="M0 477q0 233 77 399t193.5 273.5t255 158t258.5 50.5q98 0 142.5 -18.5t44.5 -41.5q0 -20 -27 -20q-12 0 -35.5 2t-62.5 2q-98 0 -187.5 -51t-157 -150.5t-106.5 -244t-39 -330.5q0 -184 54.5 -268t134.5 -84q76 0 141.5 57t114.5 148.5t76.5 205t27.5 226.5 q0 131 -44 178t-113 47q-35 0 -68 -10.5t-57 -24.5q-14 -8 -21.5 -12t-17.5 -4q-18 0 -19 22q0 23 30 71t87 87q57 41 107.5 53t101.5 12q117 0 191.5 -78.5t74.5 -242.5q0 -135 -36 -269.5t-100.5 -250t-152.5 -205.5t-192 -139q39 -16 69.5 -45t60.5 -56.5t64.5 -48 t81.5 -20.5q39 0 62.5 13t40.5 34q27 27 41 26q27 0 26 -39q0 -41 -21.5 -93t-62.5 -99t-103.5 -79t-141.5 -32q-61 0 -103.5 29t-71 73t-49 95t-39 94t-39 71.5t-49.5 28.5q-96 4 -177 37t-139 95.5t-92 154.5t-34 213z"/>
<glyph unicode="R" horiz-adv-x="1458" d="M0 811q0 121 75 221.5t204 173t301.5 112.5t369.5 40q104 0 191.5 -18.5t150 -56.5t98 -96.5t35.5 -137.5q0 -88 -37.5 -158t-98 -122t-134.5 -85t-145 -45q37 -16 62.5 -55t45 -87t36.5 -101.5t38.5 -96.5t50.5 -71.5t72 -28.5q57 0 108 51q20 20 35 20q23 0 23 -22 q0 -12 -11.5 -37t-27.5 -49q-49 -72 -123 -122t-178 -50q-92 0 -141.5 45t-72 112.5t-28.5 146.5t-13 146.5t-25.5 112.5t-65.5 45q-12 -53 -34 -128t-42.5 -153.5t-34.5 -153.5t-14 -126q0 -27 -10.5 -35t-32.5 -8q-23 0 -55.5 -2t-65.5 -4t-59.5 -4t-38.5 -2q-39 0 -39 47 q0 29 15 99.5t40 163.5t55.5 199.5t59 208t54 188.5t42.5 142q14 53 32.5 89t37 60.5t39 41t40.5 30.5q-100 -6 -185 -43t-146.5 -88t-96 -110.5t-34.5 -110.5q0 -96 84 -96q20 0 40.5 7t28.5 7q20 0 21 -22q0 -23 -20.5 -58t-57.5 -68.5t-87 -58t-112 -24.5 q-96 0 -157.5 58t-61.5 167zM819 702q76 8 137.5 47t102.5 94.5t63.5 120t22.5 128.5q0 78 -35 120.5t-94 42.5q-18 -16 -43 -57t-49 -119q-18 -59 -37 -124.5t-34 -122t-20 -74.5z"/>
<glyph unicode="S" horiz-adv-x="1038" d="M0 287q0 70 34 123t85 86.5t112.5 51t114.5 17.5t71.5 -9t18.5 -24q0 -16 -9 -24t-26 -19q-45 -29 -79.5 -86t-34.5 -129q0 -78 43.5 -123t113.5 -45q74 0 122 73t48 183q0 76 -19.5 138.5t-48 116t-62 100.5t-62.5 94t-48.5 96t-19.5 109q0 84 38 147.5t95.5 106.5 t127 65.5t133.5 22.5q127 0 196.5 -56.5t69.5 -166.5q0 -68 -39 -120t-103 -52q-41 0 -70.5 24.5t-29.5 65.5q0 27 11.5 45t23.5 33.5t23.5 31t11.5 35.5q0 23 -12.5 39t-51.5 16q-53 0 -94 -42t-41 -109q0 -59 20.5 -110.5t51 -99.5t67.5 -95t68 -99.5t51.5 -114 t20.5 -134.5q0 -102 -40 -189.5t-108.5 -152t-164 -100.5t-206.5 -36q-82 0 -154.5 21.5t-127.5 61.5t-88 98.5t-33 134.5z"/>
<glyph unicode="T" horiz-adv-x="1048" d="M0 283q0 76 28.5 131t73.5 92t100.5 54.5t108.5 17.5q41 0 55.5 -6.5t14.5 -18.5q0 -23 -27 -29q-35 -10 -66.5 -46t-31.5 -83q0 -53 35 -87t90 -34q68 0 114 42t75.5 110t48 153t34 173t30.5 170t40 143q16 41 39.5 68.5t52.5 44.5q-55 18 -103 29.5t-124 11.5 q-88 0 -143.5 -46.5t-55.5 -103.5q0 -45 23.5 -67.5t62.5 -22.5q25 0 38 10t26 10q20 0 20 -22q0 -29 -17.5 -64.5t-49 -67.5t-76.5 -53.5t-99 -21.5q-47 0 -90 17.5t-74.5 48t-50 74.5t-18.5 98q0 82 37 147.5t98.5 110.5t142 68.5t166.5 23.5t154 -7.5t121 -15.5t96 -15 t82 -7q51 0 86 10t58.5 22.5t39 22.5t25.5 10q22 0 22 -20q0 -18 -10 -48t-22 -46q-35 -45 -80 -73t-113 -32q-29 -20 -45 -81.5t-28.5 -148.5t-24.5 -190.5t-33.5 -209t-57.5 -205t-95.5 -176t-144.5 -122.5t-208 -46q-76 0 -139.5 22.5t-110.5 62t-73.5 96t-26.5 122.5z "/>
<glyph unicode="U" horiz-adv-x="1613" d="M0 782q0 131 60.5 236.5t155.5 181.5t214 117t238 41q147 0 236 -66.5t89 -201.5q0 -100 -25.5 -202t-57 -201t-57.5 -194.5t-26 -183.5q0 -43 21.5 -68.5t62.5 -25.5q31 0 62 20.5t61.5 56.5t60 83t58.5 100q39 74 70.5 174.5t56.5 202.5t44 193.5t38 146.5 q6 20 30.5 40.5t60.5 37t82 28t97 11.5q39 0 39 -37q0 -16 -23.5 -51t-39.5 -84q-8 -29 -24.5 -91.5t-35 -144.5t-38 -175t-36 -180t-26.5 -160t-10 -116q0 -53 16 -83.5t51 -30.5q27 0 42.5 11t35.5 32q20 20 35 20q14 0 21.5 -9t7.5 -20q0 -16 -8.5 -30.5t-24.5 -34.5 t-41 -44t-57.5 -44.5t-72.5 -33.5t-89 -13q-102 0 -150.5 62.5t-48.5 164.5q0 10 1 40t3 38q-29 -45 -68.5 -100.5t-93 -102.5t-118 -79.5t-142.5 -32.5q-55 0 -101 19t-78 52t-50.5 78t-18.5 98q0 92 35 204t76 231.5t76 239.5t35 228q0 59 -24.5 86t-65.5 27 q-59 0 -115.5 -36t-101 -92t-71 -123.5t-26.5 -129.5q0 -51 24.5 -74.5t57.5 -23.5q20 0 37.5 8t28.5 8q20 0 20 -22q0 -23 -19.5 -58.5t-54 -69.5t-83 -57.5t-103.5 -23.5q-92 0 -153.5 62.5t-61.5 170.5z"/>
<glyph unicode="V" horiz-adv-x="1609" d="M0 782q0 131 60.5 236.5t155.5 181.5t214 117t238 41q166 0 243.5 -70.5t77.5 -202.5q0 -96 -24.5 -198.5t-55 -203.5t-55.5 -198.5t-25 -185.5q0 -76 76 -76q33 0 77 34t92 95.5t95.5 147.5t83.5 190q31 86 49.5 178.5t18.5 169.5q0 70 -28.5 103t-71.5 33q-33 0 -33 28 q0 18 17.5 45t46 51.5t68.5 42t83 17.5q86 0 135 -54.5t49 -152.5q0 -111 -32.5 -215.5t-86.5 -216.5q-72 -154 -165 -289t-192 -234.5t-196.5 -157.5t-177.5 -58q-111 0 -172 66.5t-61 176.5q0 109 32.5 214.5t70.5 217t71 231.5t33 255q0 51 -24.5 76.5t-65.5 25.5 q-59 0 -115.5 -36t-101 -92t-71 -123.5t-26.5 -129.5q0 -51 24.5 -74.5t57.5 -23.5q20 0 37.5 8t28.5 8q20 0 20 -22q0 -23 -19.5 -58.5t-54 -69.5t-83 -57.5t-103.5 -23.5q-92 0 -153.5 62.5t-61.5 170.5z"/>
<glyph unicode="W" horiz-adv-x="2160" d="M0 782q0 131 60.5 236.5t155.5 181.5t214 117t238 41q147 0 235 -72t88 -201q0 -109 -26.5 -212t-58.5 -198t-58.5 -182t-26.5 -163q0 -41 22.5 -65.5t55.5 -24.5q53 0 109.5 43t111.5 135q29 47 55.5 114.5t46 134t31 122t11.5 79.5q0 23 -2 34t-2 36t29.5 47.5 t67.5 39.5t75.5 27.5t54.5 10.5q74 0 74 -76q0 -53 -22.5 -140t-49.5 -180.5t-49.5 -181.5t-22.5 -143q0 -102 84 -102q78 0 143.5 84t124.5 215q51 113 70 232.5t19 207.5q0 111 -41 154t-93 43q-35 0 -34 30q0 16 17 42t48 50.5t73 42t91 17.5q104 0 151.5 -57.5 t47.5 -155.5q0 -63 -16.5 -144t-44 -170.5t-65.5 -182.5t-83 -183q-47 -98 -107.5 -186.5t-127 -155t-139.5 -105t-144 -38.5q-111 0 -175.5 70.5t-78.5 176.5q-27 -35 -68 -78t-94 -80.5t-120 -63t-142 -25.5q-117 0 -174.5 69.5t-57.5 173.5q0 106 36 215t79 223.5 t79 237.5t36 258q0 45 -24.5 65.5t-65.5 20.5q-59 0 -115.5 -36t-101 -92t-71 -123.5t-26.5 -129.5q0 -51 24.5 -74.5t57.5 -23.5q20 0 37.5 8t28.5 8q20 0 20 -22q0 -23 -19.5 -58.5t-54 -69.5t-83 -57.5t-103.5 -23.5q-92 0 -153.5 62.5t-61.5 170.5z"/>
<glyph unicode="X" horiz-adv-x="1361" d="M0 231q0 70 25.5 121t63.5 85t81 50.5t78 16.5q29 0 28 -25q0 -18 -8 -35.5t-8 -52.5q0 -39 26.5 -71.5t84.5 -32.5q59 0 110 32.5t96.5 91t86.5 139.5t81 175q-4 147 -18 245.5t-36.5 157t-55.5 83t-74 24.5t-71.5 -18.5t-51 -49t-31 -70.5t-10.5 -83q0 -53 26 -86 t69 -33q25 0 38 10t23 10q20 0 20 -22q0 -29 -15 -64.5t-46 -67.5t-76 -53.5t-104 -21.5q-47 0 -89 17.5t-75 48t-51.5 74.5t-18.5 98q0 96 43 176t114 137t161 89t186 32q92 0 162 -26.5t120 -86t79.5 -156t40.5 -235.5q10 31 26.5 80t30.5 84q27 68 56.5 129t62 108.5 t69.5 75t78 27.5q33 0 62.5 -11.5t52 -26.5t36 -31.5t13.5 -28.5q0 -35 -47 -35q-104 0 -209 -155t-207 -421q4 -80 22.5 -157.5t46 -141t62.5 -102.5t70 -39q31 0 52.5 10t41.5 29q16 14 23.5 18t15.5 4q23 0 22 -22q0 -31 -27.5 -75t-71.5 -85t-101.5 -69.5t-116.5 -28.5 q-78 0 -130 38t-84 106.5t-48.5 164.5t-20.5 211q-25 -66 -66.5 -157t-104 -175t-146.5 -143.5t-193 -59.5q-66 0 -115.5 19.5t-85.5 54.5t-54.5 81t-18.5 101z"/>
<glyph unicode="Y" horiz-adv-x="1622" d="M0 782q0 131 60.5 236.5t155.5 181.5t214 117t238 41q147 0 230 -65.5t83 -188.5q0 -90 -21.5 -178t-48 -173t-48 -169t-21.5 -166q0 -43 23.5 -71t64.5 -28q29 0 61.5 17.5t64 48.5t59.5 71t50 83q29 61 56.5 146t52 176t46 178t40.5 153q6 20 30.5 40.5t62.5 38t85 28 t98 10.5q39 0 39 -31q0 -16 -15 -40t-36 -73q-18 -43 -41.5 -123.5t-51.5 -187t-56.5 -232.5t-55.5 -260q-43 -211 -93 -399t-129 -330.5t-194.5 -225.5t-289.5 -83q-90 0 -163 24.5t-125 68.5t-81 105.5t-29 135.5q0 78 29 139.5t78 104.5t113.5 65.5t136.5 22.5 q53 0 77.5 -12.5t24.5 -26.5q0 -27 -31 -27q-37 0 -73.5 -32.5t-36.5 -96.5q0 -63 39 -102t110 -39q121 0 217.5 185.5t167.5 529.5q-29 -45 -71.5 -93.5t-96 -88.5t-113 -65.5t-120.5 -25.5q-106 0 -170 66.5t-64 177.5q0 84 28 177t61.5 195.5t61.5 212t28 226.5 q0 45 -24.5 68.5t-65.5 23.5q-59 0 -115.5 -36t-101 -92t-71 -123.5t-26.5 -129.5q0 -51 24.5 -74.5t57.5 -23.5q20 0 37.5 8t28.5 8q20 0 20 -22q0 -23 -19.5 -58.5t-54 -69.5t-83 -57.5t-103.5 -23.5q-92 0 -153.5 62.5t-61.5 170.5z"/>
<glyph unicode="Z" horiz-adv-x="1136" d="M0 139q0 37 16.5 70t44.5 74q80 119 193 231.5t225.5 217t206.5 203.5t137 195q-47 18 -109.5 36t-142.5 18q-39 0 -70.5 -13.5t-54 -35t-35 -49t-12.5 -56.5q0 -37 15.5 -59.5t31.5 -36.5l20.5 -20.5t6.5 -18.5q0 -14 -13.5 -22.5t-53.5 -8.5q-41 0 -91.5 12.5t-94.5 40 t-73.5 70.5t-29.5 107q0 61 23.5 110t66.5 83t101.5 52.5t125.5 18.5q88 0 163 -12.5t136.5 -27.5t110.5 -27.5t90 -12.5q51 0 80.5 4t47 9t27 9.5t19.5 4.5q29 0 29 -29q0 -12 -5.5 -45t-15.5 -72t-23.5 -77t-29.5 -62q-45 -70 -108.5 -139.5t-132 -137t-140.5 -132 t-134.5 -125t-110 -115t-72.5 -101.5q41 16 82.5 19.5t76.5 3.5q57 0 109.5 -10.5t114.5 -10.5q68 0 128 26t93 64q10 14 20 23.5t23 9.5q29 0 28 -37q0 -33 -24.5 -94t-67.5 -122.5t-104.5 -106.5t-134.5 -45q-49 0 -99.5 14t-99.5 32.5t-94 33t-86 14.5t-74 -13.5 t-61.5 -28.5t-54 -28.5t-50.5 -13.5t-42 16.5t-28.5 40t-15.5 47t-4 35.5z"/>
<glyph unicode="[" horiz-adv-x="391" d="M37 -92v1368q0 29 15.5 42t37.5 13h158q53 0 112 2q12 2 21 -4q8 -4 15 -14t7 -27q0 -35 -13 -46t-36 -11h-133v-1274h133q23 0 36 -11.5t13 -45.5q0 -18 -7 -27.5t-15 -13.5q-8 -6 -21 -4h-112q-45 0 -90 1t-68 1q-37 0 -45 20.5t-8 30.5z"/>
<glyph unicode="\" horiz-adv-x="714" d="M41 1171q0 16 41 27.5t96 11.5q16 0 28.5 -10t16.5 -20q35 -88 78 -197t88 -222.5t90 -224t83 -203.5t66.5 -162t41.5 -95q10 -25 10 -35q0 -12 -10 -27q-10 -12 -50 -19t-75 -7q-14 0 -27.5 6t-17.5 22q-8 14 -34 79t-63.5 160t-84 209t-92.5 229.5t-89 222t-74 186.5 q-22 55 -22 69z"/>
<glyph unicode="]" horiz-adv-x="385" d="M-31 -100q0 35 13.5 46t35.5 11h134v1274h-134q-23 0 -36 11t-13 46q0 16 6.5 26.5t14.5 14.5q8 6 22 4q59 -2 113 -2h158q37 0 45 -20.5t8 -30.5v-1368q0 -29 -15.5 -42t-37.5 -13q-23 0 -68 -1t-90 -1h-113q-14 -2 -22 4q-8 4 -14.5 13t-6.5 28z"/>
<glyph unicode="^" horiz-adv-x="841" d="M37 868q0 2 13 23.5t34.5 55.5t48.5 77t55 86q68 102 154 229q25 31 72 31q23 0 38 -8t40 -37q86 -121 153 -219q29 -41 56.5 -82t49 -72.5t35 -53t13.5 -24.5q0 -12 -11.5 -23t-27 -18.5t-30.5 -12.5t-25 -5q-12 0 -18.5 3t-16.5 16l-254 368l-246 -371q-12 -18 -39 -18 q-6 0 -21.5 3t-32 10.5t-28.5 17.5t-12 24z"/>
<glyph unicode="_" horiz-adv-x="1216" d="M61 -190q0 10 5.5 29.5t14.5 38t21.5 32.5t24.5 14h989q23 0 30 -6t7 -22q0 -10 -6 -30t-16.5 -40.5t-23.5 -34.5t-26 -14h-989q-31 0 -31 33z"/>
<glyph unicode="`" horiz-adv-x="368" d="M12 879q0 16 11.5 37.5t28 42t33 34t28.5 13.5q33 0 47 -39q29 -86 76 -134.5t92 -74.5q18 -10 24 -18.5t6 -20.5q0 -10 -9 -19.5t-25 -9.5q-23 0 -55.5 6t-68.5 19.5t-73 34t-68 47.5q-29 25 -38 41t-9 41z"/>
<glyph unicode="a" d="M-31 229q0 76 23.5 150t75 131t129 93t188.5 36q41 0 68.5 -6t46 -13.5t32 -13.5t25.5 -6t33.5 6t46.5 13.5t48.5 13.5t41.5 6q31 0 31 -31q0 -18 -11.5 -56t-24.5 -87t-24.5 -107.5t-11.5 -117.5q0 -41 20.5 -62.5t49.5 -21.5q27 0 42 11t36 32q20 20 34 20t21.5 -9 t7.5 -20q0 -16 -8.5 -30.5t-24.5 -34.5t-40.5 -44t-57.5 -44.5t-73 -33.5t-89 -13q-47 0 -76.5 16.5t-48.5 36.5q-23 23 -33 55q-35 -33 -73 -55q-35 -20 -82 -36.5t-103 -16.5q-92 0 -155.5 60.5t-63.5 178.5zM236 221q0 -41 17 -68.5t52 -27.5q29 0 57.5 24.5t49.5 71.5 q8 20 18 53t17.5 71t12.5 75.5t5 68.5q0 59 -62 60q-43 0 -74.5 -36t-52 -86t-30.5 -106.5t-10 -99.5z"/>
<glyph unicode="b" horiz-adv-x="749" d="M-41 254q0 74 22.5 153.5t48 167t48 180.5t22.5 193q0 51 -22.5 76t-54.5 25q-31 0 -31 24q0 16 18.5 35.5t50 36t72.5 28t84 11.5q82 0 128 -41t46 -119q0 -39 -15.5 -103.5t-34.5 -133t-37.5 -132t-24.5 -98.5q20 23 72 52.5t122 29.5q98 0 156.5 -47t58.5 -162 q0 -74 -26.5 -152.5t-80 -142t-133 -104.5t-186.5 -41q-158 0 -230.5 73.5t-72.5 190.5zM211 156q0 -31 14.5 -51.5t42.5 -20.5q37 0 67 44t50.5 102.5t31.5 119t11 92.5q0 39 -18.5 56.5t-47.5 17.5q-25 0 -52 -19.5t-44 -72.5q-25 -76 -40 -149.5t-15 -118.5z"/>
<glyph unicode="c" horiz-adv-x="673" d="M-31 256q0 80 30 150.5t85 123t135 83t178 30.5q117 0 165 -42t48 -101q0 -63 -34.5 -97t-86.5 -34q-35 0 -58 18.5t-23 48.5q0 35 15 52.5t17 35.5q0 27 -37 27q-23 0 -48 -19.5t-47.5 -53.5t-37 -80t-14.5 -101q0 -92 49 -134t115 -42q68 0 123 36t92 68q29 25 43 25 q12 0 18 -7t6 -18q0 -16 -10 -30.5t-33 -38.5q-27 -27 -59.5 -56.5t-76.5 -55.5t-99 -43t-127 -17q-143 0 -235.5 71.5t-92.5 200.5z"/>
<glyph unicode="d" d="M-31 227q0 86 29 162t80 131t122.5 87t157.5 32q53 0 94.5 -12.5t55.5 -22.5q23 90 41 176t18 168q0 51 -22.5 76t-55.5 25q-31 0 -30 24q0 16 18.5 35.5t50 36t72.5 28t84 11.5q80 0 127 -41t47 -119q0 -68 -26.5 -164t-59.5 -203.5t-59.5 -216t-26.5 -200.5 q0 -41 20.5 -62.5t49.5 -21.5q27 0 42 11t36 32q20 20 34 20t21.5 -9t7.5 -20q0 -16 -8 -30.5t-25 -34.5q-16 -20 -40.5 -44t-57.5 -44.5t-73 -33.5t-89 -13q-47 0 -77.5 15t-49.5 36q-23 23 -33 51q-33 -29 -71 -51q-35 -20 -81 -35.5t-102 -15.5q-109 0 -165 61.5 t-56 175.5zM238 207q0 -39 15 -61.5t50 -22.5q29 0 57.5 25.5t49.5 72.5q8 18 18 51t18.5 71t13.5 76.5t5 69.5q0 59 -66 60q-43 0 -73.5 -38t-50 -91t-28.5 -111.5t-9 -101.5z"/>
<glyph unicode="e" horiz-adv-x="675" d="M-31 266q0 74 30 142.5t85 121t135 83t182 30.5q104 0 153.5 -42t49.5 -107q0 -43 -24.5 -85t-69.5 -76t-108.5 -56.5t-139.5 -28.5q0 -53 40 -90t114 -37q39 0 71.5 11t60 27.5t50.5 34t39 31.5q29 25 43 25q12 0 18.5 -7t6.5 -18q0 -16 -9.5 -30.5t-31.5 -38.5 q-25 -27 -58 -57.5t-77 -56.5t-101 -42t-131 -16q-145 0 -236.5 67.5t-91.5 214.5zM262 334q43 8 79 29.5t61.5 47t39 52t13.5 45.5q0 47 -49 47q-23 0 -48.5 -17.5t-47 -48t-35 -70.5t-13.5 -85z"/>
<glyph unicode="f" horiz-adv-x="417" d="M-184 -287q0 10 9 23.5t19 25.5q20 29 39 66t35 96q16 61 35.5 155.5t36 184.5t27 159t10.5 79q0 37 -41 37q-33 0 -33 28q0 23 15.5 42.5t29.5 19.5q31 0 42 11t19 42q25 106 69 173t96 103.5t108.5 50t107.5 13.5q100 0 151.5 -40t51.5 -95q0 -51 -29.5 -80t-74.5 -29 q-41 0 -56.5 19.5t-21.5 43t-10.5 43t-22.5 19.5t-33.5 -20.5t-27 -49t-16.5 -59.5t-5 -51q0 -25 5 -42t22.5 -28.5t48.5 -17.5t84 -6q10 0 19.5 -5.5t9.5 -17.5q0 -31 -14.5 -50t-33.5 -19q-104 0 -145 -31t-53 -94q-10 -51 -23.5 -116t-27 -130.5t-27.5 -125.5t-27 -106 q-14 -57 -58 -103t-96.5 -79t-101.5 -50t-73 -17q-39 0 -39 28z"/>
<glyph unicode="g" horiz-adv-x="780" d="M-92 -360q0 61 21.5 105t50 71.5t58.5 41t48 13.5q23 0 23 -18q0 -16 -9.5 -28.5t-9.5 -47.5q0 -45 32 -70.5t85 -25.5q45 0 77.5 26.5t56.5 67.5t40 90t25.5 93t13.5 78t4 46q-4 -6 -21.5 -20.5t-46 -31t-68.5 -28.5t-89 -12q-104 0 -168 65.5t-64 173.5q0 76 23.5 149 t75 131t129 94t188.5 36q41 0 69.5 -6t49 -13.5t35 -13.5t26.5 -6q33 0 78 19.5t88 19.5q31 0 31 -31q0 -14 -6 -33.5t-18.5 -64.5t-30 -124t-37.5 -210q-12 -78 -26.5 -165t-38 -173t-56.5 -162.5t-83 -136t-117.5 -94.5t-160.5 -35q-55 0 -106 15.5t-89 45t-60.5 72.5 t-22.5 97zM233 227q0 -41 18.5 -68.5t53.5 -27.5q70 0 107 96q8 25 17 62t17.5 74.5t12.5 73.5t4 59q0 59 -70 59q-39 0 -68.5 -37t-50 -88t-31 -107.5t-10.5 -95.5z"/>
<glyph unicode="h" horiz-adv-x="851" d="M-51 35q0 66 27.5 176.5t61.5 238.5t62.5 259t28.5 239q0 51 -22.5 76t-55.5 25q-31 0 -31 24q0 16 18.5 35.5t50.5 36t73 28t84 11.5q82 0 128 -41t46 -119q0 -43 -14.5 -115.5t-34 -149.5t-40 -145.5t-30.5 -101.5q39 43 107.5 85t156.5 42q86 0 130 -37t44 -102 q0 -39 -9 -74t-21.5 -67.5t-21.5 -65.5t-9 -68t17.5 -52t45.5 -17q27 0 42.5 11t35.5 32q20 20 35 20q14 0 21.5 -9t7.5 -20q0 -16 -8.5 -30.5t-24.5 -34.5t-41 -44t-57.5 -44.5t-72.5 -33.5t-89 -13q-94 0 -138 43t-44 114q0 41 10 82t22.5 78t22.5 72t10 63 q0 23 -13.5 36.5t-35.5 13.5q-66 0 -129 -127q-14 -27 -28.5 -74t-27 -97.5t-21.5 -92.5t-9 -58q0 -27 -10.5 -35t-32.5 -8q-47 0 -100.5 -5t-77.5 -5q-18 0 -28.5 9t-10.5 36z"/>
<glyph unicode="i" horiz-adv-x="434" d="M-31 160q0 49 10.5 97t23.5 93t23.5 82t10.5 66q0 27 -6 36t-6 29q0 16 18 30.5t50 25t73 15.5t86 5q70 0 70 -53q0 -31 -10.5 -70t-23 -84t-22.5 -93t-10 -99q0 -41 19.5 -62.5t48.5 -21.5q27 0 42 11t35 32q20 20 35 20q14 0 21.5 -9t7.5 -20q0 -16 -8 -30.5t-25 -34.5 q-16 -20 -40.5 -44t-57.5 -44.5t-73 -33.5t-89 -13q-102 0 -152.5 49t-50.5 121zM90 858q0 31 12.5 60.5t34 54t49 39t56.5 14.5q55 0 84.5 -30.5t29.5 -77.5q0 -31 -12 -62t-33.5 -54.5t-49.5 -38.5t-56 -15q-47 0 -81 31.5t-34 78.5z"/>
<glyph unicode="j" horiz-adv-x="358" d="M-532 -346q0 49 17 89t44 68.5t56.5 44t52.5 15.5q25 0 24 -18q0 -16 -10 -28.5t-10 -37.5q0 -47 27.5 -76.5t76.5 -29.5q55 0 95 53t73 131q31 80 51.5 181t32.5 195.5t17 166.5t5 90q0 27 -7 36t-7 29q0 16 18.5 30.5t50 25t72.5 15.5t86 5q70 0 70 -53q0 -16 -6 -39 t-17.5 -71t-27.5 -127t-39 -208q-14 -80 -29.5 -165t-39 -165.5t-56.5 -153.5t-81 -127t-112.5 -86t-150.5 -32q-59 0 -109.5 16.5t-87 48t-58 77t-21.5 100.5zM68 858q0 31 12 60.5t33.5 54t48 39t57.5 14.5q55 0 85 -30.5t30 -77.5q0 -31 -12.5 -62t-34 -54.5t-49 -38.5 t-56.5 -15q-47 0 -80.5 31.5t-33.5 78.5z"/>
<glyph unicode="k" horiz-adv-x="718" d="M-51 35q0 45 13 108.5t33.5 139t43 160.5t43 172t34 172t13.5 161q0 51 -22.5 76t-55.5 25q-31 0 -31 24q0 16 18.5 35.5t50.5 36t73 28t84 11.5q82 0 128 -41t46 -119q0 -33 -11.5 -88t-26.5 -121.5t-34.5 -137.5t-35 -133.5t-27 -110.5t-11.5 -68q23 0 45.5 11t40 29.5 t27.5 39t10 38.5q0 16 -7 23.5t-7 23.5t21.5 35t54.5 35t71.5 27.5t73.5 11.5q59 0 60 -47q0 -66 -62.5 -141.5t-177.5 -139.5q8 -27 25.5 -54.5t40 -50t51 -36.5t61.5 -14q29 0 46.5 11t37.5 32q20 20 35 20q14 0 21.5 -9t7.5 -20q0 -16 -8.5 -30.5t-24.5 -34.5 q-16 -23 -41 -46.5t-56.5 -43t-70.5 -32.5t-82 -13q-45 0 -77 20.5t-53.5 50t-34.5 65.5t-21.5 65.5t-14.5 50t-10 20.5q-14 -51 -25 -94q-10 -37 -17 -74t-7 -51q0 -27 -10.5 -35t-32.5 -8q-47 0 -99.5 -5t-76.5 -5q-18 0 -28.5 9t-10.5 36z"/>
<glyph unicode="l" horiz-adv-x="430" d="M-31 182q0 70 24.5 154t54.5 180t54.5 204.5t24.5 227.5q0 51 -22.5 76t-57.5 25q-29 0 -29 24q0 16 18.5 35.5t50.5 36t73 28t84 11.5q80 0 127 -41t47 -119q0 -66 -25.5 -168t-56.5 -215t-56.5 -220.5t-25.5 -180.5q0 -41 18.5 -62.5t46.5 -21.5q27 0 42.5 11t35.5 32 q20 20 35 20q14 0 21.5 -9t7.5 -20q0 -16 -8.5 -30.5t-24.5 -34.5t-41 -44t-56.5 -44.5t-71.5 -33.5t-89 -13q-104 0 -152.5 56t-48.5 136z"/>
<glyph unicode="m" horiz-adv-x="1331" d="M-41 35q0 29 13.5 89t29.5 129t29.5 136.5t13.5 108.5q0 27 -7 36t-7 29q0 16 19.5 30.5t51 25t72.5 15.5t86 5q70 0 70 -53q0 -12 -2 -28.5t-6 -31.5q-4 -16 -9 -32q8 8 31 31.5t59.5 49t85 45t107.5 19.5q47 0 79 -15.5t50 -37t27.5 -43t11.5 -33.5q6 6 28.5 26.5 t58.5 44t84 41t103 17.5q174 0 174 -139q0 -33 -9 -68t-19 -69.5t-19.5 -68.5t-9.5 -65q0 -41 18.5 -57t47.5 -16q27 0 42 11t35 32q20 20 35 20q14 0 21.5 -9t7.5 -20q0 -16 -8 -30.5t-25 -34.5q-16 -20 -40.5 -44t-57.5 -44.5t-73 -33.5t-89 -13q-88 0 -138 46t-50 111 q0 47 10 86t22.5 74t22.5 65.5t10 61.5q0 57 -49 58q-29 0 -61.5 -28t-63.5 -87q-16 -31 -32.5 -73t-29 -88t-20.5 -91t-8 -82q0 -27 -10 -35t-33 -8q-47 0 -99.5 -5t-78.5 -5q-18 0 -29.5 9t-11.5 36q0 45 12 100t25.5 110.5t26 103.5t12.5 81q0 29 -11.5 45.5t-33.5 16.5 q-29 0 -68 -30t-76 -95q-14 -25 -29.5 -68t-28.5 -90t-21.5 -91t-8.5 -75q0 -27 -11 -35t-34 -8q-47 0 -98 -5t-74 -5q-20 0 -31.5 9t-11.5 36z"/>
<glyph unicode="n" horiz-adv-x="868" d="M-41 35q0 29 13.5 89t29.5 129t29.5 136.5t13.5 108.5q0 27 -7 36t-7 29q0 16 19.5 30.5t51 25t72.5 15.5t86 5q70 0 70 -53q0 -12 -2 -28.5t-6 -31.5q-4 -16 -9 -32q14 16 42 40.5t66 48t82 40t89 16.5q86 0 122 -35t36 -94q0 -35 -9.5 -72t-19.5 -72.5t-19.5 -70.5 t-9.5 -66q0 -41 18.5 -57t47.5 -16q27 0 42 11t36 32q20 20 34 20t21.5 -9t7.5 -20q0 -16 -8 -30.5t-25 -34.5q-16 -20 -40.5 -44t-57.5 -44.5t-73 -33.5t-89 -13q-88 0 -138 46t-50 111q0 47 10 86t22.5 74t22.5 65.5t10 61.5q0 25 -12 41.5t-35 16.5q-27 0 -60.5 -29 t-68.5 -96q-12 -27 -27.5 -69t-28.5 -89t-22.5 -91t-9.5 -75q0 -27 -11 -35t-34 -8q-47 0 -98 -5t-74 -5q-20 0 -31.5 9t-11.5 36z"/>
<glyph unicode="o" horiz-adv-x="724" d="M-31 250q0 74 29 145.5t85 128t138.5 90t186.5 33.5q115 0 185.5 -66.5t70.5 -172.5q0 -86 -27 -164t-78 -136.5t-125 -92t-168 -33.5q-135 0 -216 72.5t-81 195.5zM244 283q0 -70 36.5 -111t96.5 -41q31 0 55.5 14.5t43 37t27.5 50t9 54.5t-9 47t-32 31 q-47 18 -64.5 36.5t-17.5 47.5q0 39 15.5 54t15.5 25q0 16 -19 17q-6 0 -20 -6.5t-37 -22.5q-39 -31 -69.5 -88t-30.5 -145z"/>
<glyph unicode="p" horiz-adv-x="808" d="M-154 -434q0 70 10.5 129t27 126.5t38 149.5t45.5 197q16 80 26.5 135t14.5 92t6 61t2 42q0 27 -7 36t-7 29q0 16 19.5 30.5t51 25t72.5 15.5t86 5q70 0 70 -53q0 -20 -4 -41q-2 -8 -2 -17q6 10 27.5 28.5t53.5 37t72.5 32t88.5 13.5q98 0 154.5 -60.5t56.5 -164.5 q0 -68 -26 -141.5t-75 -137t-121.5 -104.5t-167.5 -41q-66 0 -106.5 22.5t-50.5 32.5q-10 -37 -21.5 -92t-22 -113.5t-17.5 -114t-7 -87.5q0 -51 24.5 -74t59.5 -23q29 0 29 -24q0 -12 -16.5 -30.5t-47 -37t-72.5 -31t-94 -12.5q-82 0 -126 44t-44 116zM246 154 q0 -59 65 -60q43 0 74 38t51.5 91t29.5 111.5t9 99.5q0 78 -63 78q-29 0 -58.5 -26.5t-50.5 -73.5q-18 -41 -37.5 -116.5t-19.5 -141.5z"/>
<glyph unicode="q" horiz-adv-x="798" d="M-31 229q0 76 24.5 150t75 132t130.5 93t190 35q41 0 68.5 -6t48 -13.5t34 -13.5t25.5 -6q33 0 76 19.5t86 19.5q31 0 31 -31q0 -16 -5 -36.5t-17.5 -64.5t-31 -122t-45.5 -209q-29 -141 -55 -274t-26 -252q0 -63 29.5 -86t56.5 -23q29 0 28 -24q0 -8 -12 -26.5t-38 -37 t-63.5 -33t-89.5 -14.5q-98 0 -145 51t-47 144q0 49 11 111.5t28.5 127t36.5 128t33 114.5q-12 -14 -34 -30.5t-50.5 -30t-62.5 -22.5t-71 -9q-104 0 -161.5 65.5t-57.5 173.5zM240 209q0 -84 65 -84q29 0 59.5 24.5t47.5 71.5q8 25 17 57.5t17.5 69.5t14.5 73.5t6 67.5 q0 59 -64 60q-43 0 -73.5 -35t-51 -86t-29.5 -110.5t-9 -108.5z"/>
<glyph unicode="r" horiz-adv-x="612" d="M-41 35q0 29 13.5 89t29.5 129t29.5 136.5t13.5 108.5q0 27 -7 36t-7 29q0 16 19.5 30.5t51 25t72.5 15.5t86 5q70 0 70 -53q0 -23 -4 -48.5t-9 -35.5q2 6 14.5 26.5t35 43t55.5 41t76 18.5t68.5 -24.5t25.5 -71.5q0 -29 -9.5 -57.5t-25.5 -52.5t-42 -38t-56 -14 q-43 0 -64.5 24.5t-21.5 53.5q-10 -4 -28.5 -25t-41.5 -64q-14 -27 -28.5 -68.5t-26.5 -87.5t-20.5 -89t-8.5 -74q0 -27 -11 -35t-34 -8q-47 0 -98 -5t-74 -5q-20 0 -31.5 9t-11.5 36z"/>
<glyph unicode="s" horiz-adv-x="600" d="M-51 164q0 49 29.5 76.5t64.5 27.5q88 0 88 -75q0 -39 13.5 -63t41.5 -24q45 0 45 56q0 45 -31.5 74.5t-69.5 59.5t-69.5 65.5t-31.5 93.5q0 49 22.5 84.5t61.5 60.5t90 37t108 12q113 0 165 -39t52 -102q0 -41 -22.5 -73t-73.5 -32q-29 0 -51.5 20.5t-22.5 49.5 q0 23 8.5 35t8.5 27q0 29 -39 28q-20 0 -40 -19.5t-20 -47.5q0 -45 35 -75t78 -58.5t78 -63.5t35 -90q0 -100 -76 -161.5t-211 -61.5q-117 0 -191.5 47t-74.5 131z"/>
<glyph unicode="t" horiz-adv-x="481" d="M-31 186q0 49 10.5 93.5t21.5 85.5t21.5 79.5t10.5 77.5q0 10 -8.5 13.5t-19.5 6.5t-19.5 8t-8.5 19q0 16 9.5 38t25.5 22q41 0 80 18.5t73 46t61.5 61t47.5 66.5q29 45 56 45q16 0 24 -10t8 -22q0 -16 -4 -40t-10 -46.5t-10 -44t-4 -33.5q0 -20 11 -30.5t58 -10.5 q29 0 29 -23q0 -31 -14.5 -50t-32.5 -19q-39 0 -58.5 -14.5t-29.5 -51.5q-12 -45 -27.5 -112.5t-15.5 -118.5q0 -47 21.5 -65.5t58.5 -18.5q23 0 45 13t41.5 29.5t37 30t27.5 13.5q12 0 19.5 -7.5t7.5 -17.5q0 -23 -29.5 -60.5t-78 -74.5t-107.5 -64.5t-117 -27.5 q-111 0 -161 57t-50 139z"/>
<glyph unicode="u" horiz-adv-x="880" d="M-31 147q0 47 11.5 97.5t23.5 97.5t23.5 87t11.5 69q0 27 -7 36t-7 29q0 16 19 30.5t51 25t73 15.5t86 5q70 0 70 -53q0 -35 -12.5 -78t-26 -92t-25.5 -102.5t-12 -108.5q0 -23 13 -37t36 -14q35 0 68.5 23.5t54.5 60.5q35 59 53.5 130.5t18.5 129.5q0 27 -7.5 36 t-7.5 29q0 16 19.5 30.5t51.5 25t73 15.5t86 5q69 0 69 -52q0 -32 -11 -74t-24.5 -89t-24.5 -95t-11 -89t18 -62.5t47 -21.5q27 0 42 11t36 32q20 20 35 20q14 0 21 -9t7 -20q0 -16 -8 -30.5t-24 -34.5t-41 -44t-56.5 -44.5t-71.5 -33.5t-89 -13q-61 0 -97.5 19.5 t-54.5 41.5q-23 27 -29 64q-39 -37 -86 -64q-41 -23 -97 -42t-126 -19q-78 0 -120 47t-42 110z"/>
<glyph unicode="v" horiz-adv-x="737" d="M-31 147q0 51 10.5 101.5t23.5 96.5t23.5 85t10.5 68q0 27 -6 36t-6 29q0 16 18 30.5t50 25t73 15.5t86 5q70 0 70 -53q0 -35 -11.5 -81t-26 -98.5t-25.5 -105.5t-11 -100t45 -47q33 0 67.5 23.5t63.5 59t47 78.5t18 82q0 14 -8 25.5t-17 25t-17.5 31t-8.5 43.5 q0 55 36 86t87 31q59 0 92 -39t33 -106q0 -80 -47 -169t-124 -163t-175 -123t-203 -49q-86 0 -127 47t-41 110z"/>
<glyph unicode="w" horiz-adv-x="1177" d="M-31 154q0 51 10.5 98t23.5 90t23.5 82t10.5 74q0 27 -6 36t-6 29q0 16 18 30.5t50 25t73 15.5t86 5q70 0 70 -53q0 -35 -11.5 -77t-24 -90t-23.5 -98.5t-11 -99.5q0 -31 15.5 -53.5t43.5 -22.5q35 0 67 26t54 69q12 25 23.5 58.5t18.5 68t11 68.5t4 63q0 27 -7 36t-7 29 q0 16 18.5 30.5t50 25t72.5 15.5t86 5q70 0 70 -53q0 -35 -10 -78t-22.5 -91t-22.5 -98.5t-10 -97.5q0 -37 19 -56.5t52 -19.5t62.5 21.5t51 55.5t34 77t12.5 84q0 23 -9 37t-21.5 27.5t-21.5 31t-9 43.5q0 53 34.5 85t87.5 32q127 0 127 -150q0 -74 -28.5 -160.5 t-81.5 -161.5t-131 -126t-178 -51q-51 0 -91.5 13t-70 33.5t-49 44t-31.5 46.5q-12 -12 -39 -35.5t-65.5 -46t-90 -39t-114.5 -16.5q-90 0 -138.5 48t-48.5 116z"/>
<glyph unicode="x" horiz-adv-x="702" d="M-102 113q0 20 12 44.5t30.5 46t38 35t31.5 13.5q14 0 26.5 -5t24 -12.5t24.5 -12.5t32 -5q27 0 47 15.5t31 31.5q-6 12 -18.5 40t-31 57.5t-41 55t-45.5 34.5q-14 6 -23 13t-9 21t15 41t41 51.5t59.5 43t68.5 18.5q27 0 51.5 -21.5t47 -55.5t43 -73.5t40.5 -76.5 q20 23 41 52.5t21 63.5q0 47 27.5 79t76.5 32q43 0 68.5 -25.5t25.5 -68.5q0 -35 -17.5 -69t-45 -65.5t-64.5 -63.5t-73 -60q14 -20 30.5 -44t34 -43.5t35.5 -31.5t39 -12q27 0 42 11t36 32q20 20 35 20q14 0 21 -9t7 -20q0 -16 -8 -30.5t-25 -34.5q-16 -20 -40.5 -44 t-57.5 -44.5t-73 -33.5t-89 -13q-37 0 -63.5 15t-48 39t-38 52.5t-28.5 53.5q-20 -25 -46 -52.5t-53.5 -51t-55 -40t-52.5 -16.5q-29 0 -56.5 14t-50 33.5t-36.5 40t-14 35.5z"/>
<glyph unicode="y" horiz-adv-x="837" d="M-51 -360q0 61 21.5 105t50 71.5t58.5 41t48 13.5q23 0 23 -18q0 -16 -9.5 -28.5t-9.5 -47.5q0 -45 32 -70.5t85 -25.5q55 0 95 38.5t66.5 101t43 139.5t28.5 153q-18 -18 -46.5 -40t-66.5 -40.5t-87.5 -30.5t-110.5 -12q-78 0 -127 45t-49 112q0 51 10 102.5t23.5 97.5 t23.5 84t10 67q0 27 -7 36t-7 29q0 16 19.5 30.5t51.5 25t72.5 15.5t83.5 5q70 0 70 -53q0 -35 -11 -78t-24.5 -92t-25 -100.5t-11.5 -98.5q0 -27 14.5 -45t39.5 -18q35 0 70.5 25.5t58.5 60.5q14 23 25.5 55.5t19.5 68t11 70.5t3 64q0 27 -7 36t-7 29q0 16 19.5 30.5t51 25 t72.5 15.5t84 5q70 0 70 -53q0 -18 -4.5 -38t-14.5 -61t-25.5 -113.5t-35.5 -197.5q-12 -78 -28.5 -165t-40 -173t-57.5 -162.5t-84 -136t-119 -94.5t-161 -35q-55 0 -106 15.5t-89 45t-60.5 72.5t-22.5 97z"/>
<glyph unicode="z" horiz-adv-x="657" d="M-49 14v39q0 72 12 125t72 82q90 41 149.5 74t100.5 57q25 14 24 29q0 10 -19.5 18t-90.5 8q-31 0 -65 -11t-60 -32q-16 -10 -23.5 -16t-19.5 -6q-23 0 -23 29q0 18 16.5 57t45 77t66.5 66.5t85 28.5q59 0 124 -14.5t128 -14.5q45 0 65.5 8.5t34.5 8.5q31 0 31 -29 q0 -14 -4 -40t-15.5 -54.5t-29.5 -55t-45 -45.5q-59 -39 -110.5 -66.5t-116.5 -68.5q-10 -8 -18.5 -15t-8.5 -17q0 -20 25 -23q29 -6 81 -8t93 -2t82 6t77 31q14 10 23.5 16t19.5 6q23 0 23 -22q0 -16 -10.5 -36t-26.5 -42q-55 -72 -118.5 -122t-149.5 -50q-53 0 -90 7 t-68 16.5t-59.5 17.5t-61.5 8q-23 0 -39 -8t-29.5 -17.5t-23.5 -16.5t-22 -7t-21.5 6t-9.5 18z"/>
<glyph unicode="{" horiz-adv-x="477" d="M-8 678q0 39 45 55q31 12 58.5 40t27.5 83q0 57 -5 94t-10.5 72t-10.5 81t-5 124q0 55 29 93t74 61.5t98 33.5t100 10q20 0 35.5 -9t15.5 -25q0 -14 -14 -22.5t-35 -14.5q-104 -35 -104 -203q0 -104 2 -155.5t3 -78t3 -40t2 -39.5q0 -49 -22.5 -96.5t-49.5 -63.5 q27 -16 48.5 -61.5t21.5 -98.5q0 -27 -1 -40t-3 -39.5t-3 -78t-1 -155.5q0 -170 104 -203q20 -6 34.5 -14t14.5 -23q0 -16 -15 -25.5t-36 -9.5q-47 0 -100 10.5t-98 34t-74 61.5t-29 93q0 78 5 124t10.5 81t10.5 70.5t5 95.5q0 55 -22.5 83.5t-63.5 39.5q-45 12 -45 55z"/>
<glyph unicode="|" horiz-adv-x="290" d="M53 -59v1253q0 12 10.5 21.5t24.5 16.5t29.5 10t25.5 3q27 0 61 -13t34 -38v-1257q0 -23 -30 -34.5t-58 -11.5q-12 0 -29 3.5t-32 9.5t-25.5 15t-10.5 22z"/>
<glyph unicode="}" horiz-adv-x="481" d="M-8 -35q0 14 14 22.5t35 14.5q104 33 104 203q0 104 -1 155.5t-3 78t-3 40t-1 39.5q0 53 21.5 98.5t48.5 61.5q-27 16 -49.5 63t-22.5 97q0 27 2 40t3 39.5t3 78t2 155.5q0 168 -104 203q-20 6 -34.5 14t-14.5 23q0 16 15.5 25t35.5 9q47 0 100.5 -10t97.5 -33.5 t73.5 -61.5t29.5 -93q0 -78 -5 -124t-10 -81t-10.5 -72t-5.5 -94q0 -55 28 -83t58 -40q45 -16 45 -55q0 -43 -45 -55q-41 -10 -63.5 -39t-22.5 -84q0 -59 5.5 -95t10.5 -71t10 -81t5 -124q0 -55 -29.5 -93t-73.5 -61.5t-97.5 -34t-100.5 -10.5q-20 0 -35.5 9.5t-15.5 25.5z "/>
<glyph unicode="~" horiz-adv-x="884" d="M18 385q0 8 7.5 36t21.5 50q14 23 29.5 43.5t36 35.5t49 24.5t69.5 9.5q55 0 107.5 -17.5t104 -38t103.5 -38t105 -17.5q63 0 94 15.5t54 31.5q10 8 20 15.5t17 7.5q10 0 17 -6.5t7 -16.5q0 -14 -17.5 -44t-27.5 -46q-33 -47 -69.5 -80t-102.5 -33q-45 0 -99.5 17.5 t-109.5 38t-110.5 38t-100.5 17.5q-63 0 -94 -10t-57 -35l-13.5 -13.5t-15.5 -7.5q-25 0 -25 23z"/>
<glyph unicode="¡" horiz-adv-x="448" d="M-37 -360q0 12 9.5 59t23.5 116.5t33.5 156.5t40 180.5t42.5 188.5t40 181q6 27 14 35t29 18q29 14 60.5 22.5t45.5 8.5q16 0 27.5 -9t11.5 -38q0 -6 -8 -67.5t-21.5 -151.5t-29 -194.5t-29.5 -196.5t-24.5 -160t-12.5 -82q-4 -23 -13 -38t-40 -25q-45 -14 -89 -26.5 t-73 -12.5q-14 0 -25.5 9t-11.5 26zM182 793q0 25 10.5 52t29 48.5t44 36t56.5 14.5q35 0 56 -27.5t21 -68.5q0 -25 -11 -51.5t-29.5 -48t-43 -36t-51.5 -14.5q-37 0 -59.5 27t-22.5 68z"/>
<glyph unicode="¢" horiz-adv-x="702" d="M20 256q0 72 24 135.5t69 114.5t109.5 85t146.5 46v51q0 25 23.5 38t45.5 13q27 0 50.5 -13t23.5 -38v-49q78 -10 112.5 -45t34.5 -76q0 -35 -18 -52t-43 -17q-51 0 -51 57q0 12 -6 25.5t-29 17.5v-420q29 8 52.5 20.5t39.5 24.5q16 10 26.5 17.5t20.5 7.5 q12 0 19.5 -7.5t7.5 -17.5q0 -16 -10.5 -30.5t-34.5 -39.5q-20 -20 -50 -43.5t-71 -42.5v-71q0 -23 -19.5 -37t-48.5 -14q-25 0 -50 12t-25 37v39h-21q-143 0 -235.5 71.5t-92.5 200.5zM307 297q0 -113 62 -156v342q-29 -35 -45.5 -82t-16.5 -104z"/>
<glyph unicode="£" horiz-adv-x="899" d="M0 139q0 18 14.5 37t34 43.5t40 58t34.5 87.5q12 45 17 105t10 146h-99q-31 0 -31 33q0 10 5.5 29.5t14.5 38t21.5 33t24.5 14.5h66v55q0 266 114.5 408.5t317.5 142.5q141 0 226 -71.5t85 -200.5q0 -78 -40 -122t-105 -44q-41 0 -72 29.5t-31 72.5q0 31 9.5 48.5 t20.5 30.5t20.5 25.5t9.5 35.5q0 86 -105 86q-35 0 -63.5 -21.5t-49 -58.5t-32 -87.5t-11.5 -107.5q0 -59 -1 -114.5t-3 -106.5h105q23 0 30 -6t7 -23q0 -10 -6.5 -29.5t-16.5 -40t-23.5 -35t-25.5 -14.5h-82q-25 -250 -98 -360q16 2 33.5 3t37.5 1q61 0 127 -5t107 -5 q35 0 58.5 4t40 12t30.5 22.5t31 33.5q27 33 43 32q31 0 30 -37q0 -33 -19.5 -88t-58 -108t-97 -92t-136.5 -39q-53 0 -94 8t-80 19.5t-80 19.5t-90 8q-18 0 -34.5 -7t-33 -15.5t-33 -15.5t-32.5 -7t-31.5 15.5t-27 37t-17.5 46t-6 40.5z"/>
<glyph unicode="¥" horiz-adv-x="952" d="M27 418q0 27 22 39q8 6 23 8h180l27 135h-201q-8 0 -15 8q-12 12 -12 41q0 16 6 24.5t17 12.5q8 6 22 8h166l-205 559q0 18 9 35q6 12 22 23.5t45 11.5q31 0 49.5 -10t28.5 -21q10 -14 16 -30l181 -492l340 492q12 18 28 32q14 12 36 22.5t54 10.5q45 0 57.5 -17.5 t12.5 -33.5q0 -6 -1 -10t-1 -9q-2 -4 -2 -6l-414 -557h146q12 0 20 -6q8 -4 15.5 -13t7.5 -26q0 -18 -10.5 -28.5t-20.5 -14.5q-12 -6 -29 -6h-205l-26 -135h231q8 0 21.5 -6t13.5 -33q0 -20 -9 -31.5t-20 -15.5q-12 -6 -28 -6h-226l-63 -326q-4 -16 -14 -29 q-10 -10 -25.5 -19t-40.5 -9q-29 0 -45 9t-27 19q-10 12 -14 29l63 326h-178q-8 0 -14 6q-14 10 -14 39z"/>
<glyph unicode="¦" horiz-adv-x="245" d="M47 -287v604q0 23 6 30t23 7q10 0 29.5 -6t40 -16t35 -23.5t14.5 -25.5v-605q0 -31 -33 -30q-10 0 -29.5 5t-38 14t-33 21.5t-14.5 24.5zM47 635v604q0 23 6 30t23 7q10 0 29.5 -6t40 -16.5t35 -23.5t14.5 -26v-604q0 -31 -33 -31q-10 0 -29.5 5.5t-38 14.5t-33 21.5 t-14.5 24.5z"/>
<glyph unicode="§" horiz-adv-x="698" d="M20 102q0 45 31 70t62 25t46 -16.5t25.5 -37t19.5 -37t27 -16.5q35 0 49.5 32t14.5 66q0 49 -35 95.5t-77 98.5t-76.5 115.5t-34.5 151.5q0 115 40 211t108.5 167t157.5 111t187 40q43 0 82 -28t39 -73t-24.5 -70.5t-61.5 -25.5t-54.5 16.5t-25.5 36t-15 35.5t-26 16 q-35 0 -50 -33.5t-15 -70.5q0 -45 33.5 -89t74.5 -98.5t75 -124t34 -165.5t-37 -187.5t-101.5 -162t-150.5 -112.5t-182 -42q-72 0 -106 28.5t-34 73.5zM215 768q0 -63 32 -123.5t69.5 -120t69.5 -119t32 -120.5q0 -16 -2 -32.5t-6 -31.5q-4 -16 -7 -31q25 29 46 64 q16 29 30.5 67.5t14.5 84.5q0 43 -32 107.5t-71 132t-70.5 131t-31.5 106.5q0 47 6 71q4 15 8 27q-10 -10 -25.5 -29.5t-30 -47t-23.5 -62.5t-9 -74z"/>
<glyph unicode="¨" horiz-adv-x="581" d="M41 829q0 25 10 51.5t28.5 48t43 36t53.5 14.5q37 0 59.5 -26.5t22.5 -67.5q0 -25 -10 -52.5t-28.5 -49t-44 -36t-56.5 -14.5q-35 0 -56.5 27.5t-21.5 68.5zM324 829q0 25 10 51.5t28.5 48t43 36t53.5 14.5q37 0 59.5 -26.5t22.5 -67.5q0 -25 -10.5 -52.5t-29 -49 t-44 -36t-56.5 -14.5q-35 0 -56 27.5t-21 68.5z"/>
<glyph unicode="©" horiz-adv-x="1024" d="M25 889q0 98 37.5 185t104 153.5t155 104.5t186.5 38q100 0 188 -38t153.5 -104.5t104.5 -153.5t39 -185q0 -100 -39 -188.5t-104.5 -155t-153.5 -104.5t-188 -38q-98 0 -186.5 38t-155 104.5t-104 155t-37.5 188.5zM145 889q0 -78 29 -144.5t78 -115.5t114.5 -77 t141.5 -28t143.5 28t116.5 77t77.5 115.5t28.5 144.5q0 76 -28.5 141.5t-77.5 114.5t-116.5 77.5t-143.5 28.5t-141.5 -28.5t-114.5 -77.5t-78 -114.5t-29 -141.5zM211 883q0 68 23.5 123t66.5 95t103.5 61.5t132.5 21.5q29 0 58.5 -6.5t53 -15.5t38.5 -20.5t15 -21.5 q0 -82 -38 -82q-16 0 -46 18.5t-77 18.5q-92 0 -146.5 -50t-54.5 -138q0 -90 51 -140.5t141 -50.5q31 0 53.5 5.5t38 12.5t27 12t23.5 5q41 0 41 -59q0 -23 -20.5 -38.5t-50.5 -24.5t-63.5 -13t-60.5 -4q-68 0 -124 17.5t-97 54t-64.5 91t-23.5 128.5z"/>
<glyph unicode="ª" d="M-31 954q0 76 23.5 150t75 131t129 93t188.5 36q41 0 68.5 -6t46 -13.5t32 -13.5t25.5 -6t33.5 6t46.5 13.5t48.5 13.5t41.5 6q31 0 31 -31q0 -18 -11.5 -56t-24.5 -87t-24.5 -107.5t-11.5 -117.5q0 -41 20.5 -62.5t49.5 -21.5q27 0 42 11t36 32q20 20 34 20t21.5 -9 t7.5 -20q0 -16 -8.5 -30.5t-24.5 -34.5t-40.5 -44t-57.5 -44.5t-73 -33.5t-89 -13q-47 0 -76.5 16.5t-48.5 36.5q-23 23 -33 55q-35 -33 -73 -55q-35 -20 -82 -36.5t-103 -16.5q-92 0 -155.5 60.5t-63.5 178.5zM236 946q0 -41 17 -68.5t52 -27.5q29 0 57.5 24.5t49.5 71.5 q8 20 18 53t17.5 71t12.5 75.5t5 68.5q0 59 -62 60q-43 0 -74.5 -36t-52 -86t-30.5 -106.5t-10 -99.5z"/>
<glyph unicode="«" horiz-adv-x="1116" d="M33 575q0 45 14 88.5t66 96.5q41 43 130 123t220 209q10 12 23.5 22t35.5 10q27 0 58.5 -29.5t31.5 -62.5q0 -20 -8 -30.5t-24 -22.5q-80 -78 -135.5 -131t-92.5 -87t-56.5 -52.5t-25.5 -24.5q-23 -23 -41 -51.5t-18 -57.5q0 -23 16.5 -41t34.5 -38q70 -76 153 -162 t167 -156q16 -16 23 -23.5t7 -29.5q0 -29 -26.5 -59.5t-59.5 -30.5q-16 0 -28.5 7t-24.5 15q-68 59 -162 153.5t-205 201.5q-29 29 -51 72.5t-22 90.5zM483 575q0 45 14.5 88.5t65.5 96.5q41 43 130 123t220 209q10 12 23.5 22t36.5 10q27 0 58.5 -29.5t31.5 -62.5 q0 -20 -8 -30.5t-25 -22.5q-80 -78 -135 -131t-92 -87t-56.5 -52.5t-25.5 -24.5q-23 -23 -41 -51.5t-18 -57.5q0 -23 16 -41t35 -38q70 -76 155.5 -160t163.5 -158q18 -14 24.5 -22.5t6.5 -30.5q0 -29 -26.5 -59.5t-59.5 -30.5q-16 0 -28.5 7t-24.5 15q-68 59 -162 153.5 t-205 201.5q-29 29 -51.5 72.5t-22.5 90.5z"/>
<glyph unicode="¬" horiz-adv-x="870" d="M0 559q0 27 13.5 50.5t47.5 23.5h693q53 0 69.5 -26.5t16.5 -45.5v-309q0 -35 -22.5 -47t-53.5 -12q-27 0 -53.5 11t-26.5 50v227h-623q-35 0 -48 23.5t-13 54.5z"/>
<glyph unicode="­" horiz-adv-x="708" d="M61 305q0 10 5.5 29.5t14.5 38t21.5 33t24.5 14.5h467q23 0 30 -6t7 -23q0 -10 -6.5 -29.5t-16.5 -40t-23.5 -35t-25.5 -14.5h-467q-31 0 -31 33z"/>
<glyph unicode="®" horiz-adv-x="1005" d="M12 889q0 98 38 186t103.5 154.5t153.5 104.5t187 38q100 0 188 -38t153.5 -104.5t104.5 -154.5t39 -186t-39 -186.5t-104.5 -154t-153.5 -103t-188 -37.5q-98 0 -186.5 37.5t-154 103t-103.5 154t-38 186.5zM127 889q0 -76 29.5 -142.5t80 -115.5t117 -77t140.5 -28 q76 0 142 28t116.5 77t79 115.5t28.5 142.5t-28.5 142.5t-79 116.5t-117 78.5t-141.5 28.5q-74 0 -140.5 -28.5t-117 -78.5t-80 -116.5t-29.5 -142.5zM299 655v488q0 20 23 24q27 4 66.5 8.5t78.5 4.5q63 0 105 -12.5t75 -34.5q53 -37 53 -115q0 -45 -19 -76t-56 -55 q37 -33 51 -90l41 -135q2 -4 2 -11q0 -23 -23 -22h-78q-4 0 -10 4t-6 8q-20 29 -45 125q-20 78 -90 80h-47v-191q0 -27 -23 -26h-73q-25 0 -25 26zM420 942h51q49 0 78 18.5t29 49.5q0 35 -31 51t-78 16h-25.5t-23.5 -4v-131z"/>
<glyph unicode="°" horiz-adv-x="495" d="M31 1055q0 45 17.5 85t47 69.5t69.5 47t85 17.5t85 -17.5t69.5 -47t47 -69.5t17.5 -85t-17.5 -85t-47 -70t-69.5 -47t-85 -17t-85 17t-69.5 47t-47 70t-17.5 85zM154 1055q0 -41 27.5 -69t68.5 -28t67.5 28t26.5 69t-26.5 67.5t-67.5 26.5t-68.5 -26.5t-27.5 -67.5z"/>
<glyph unicode="±" horiz-adv-x="942" d="M41 205q0 10 5 29.5t14.5 38t21.5 32.5t24 14h748q23 0 30 -6t7 -22q0 -10 -6 -29.5t-16.5 -40t-24 -35t-25.5 -14.5h-747q-31 0 -31 33zM68 819q0 29 10 50.5t28 21.5h302v299q0 23 21.5 33t49.5 10q29 0 52.5 -10.5t23.5 -28.5v-303h299q23 0 33 -21.5t10 -50.5 t-10 -52.5t-29 -23.5h-303v-297q0 -23 -23.5 -33t-52.5 -10t-50 10.5t-21 28.5v301h-297q-23 0 -33 24t-10 52z"/>
<glyph unicode="²" horiz-adv-x="579" d="M18 735q0 27 12.5 41.5t37.5 36.5q51 47 105 98.5t97 102.5t71 103t28 102q0 41 -20.5 59t-53.5 18t-56.5 -23.5t-23.5 -49.5q0 -14 6 -22.5t12.5 -16.5t12.5 -19.5t6 -29.5q0 -29 -19.5 -48.5t-56.5 -19.5q-41 0 -67.5 29.5t-26.5 77.5q0 41 18.5 77.5t50 65.5t75.5 45 t96 16q119 0 189.5 -46t70.5 -161q0 -59 -36 -109t-84 -93t-98.5 -81t-80.5 -77q10 2 30 2q29 0 51.5 -4t51.5 -4q57 0 96 45q14 20 27 20q18 0 18 -22q0 -20 -15.5 -58t-43 -76t-66.5 -65.5t-88 -27.5q-33 0 -54.5 5t-41 12t-40.5 12t-52 5q-23 0 -43.5 -14t-42.5 -14 q-10 0 -19.5 13t-16.5 30.5t-11.5 36t-4.5 28.5z"/>
<glyph unicode="³" horiz-adv-x="514" d="M0 838q0 16 7 26t24 10q18 0 30 -32q10 -25 40 -46.5t63 -21.5q51 0 76.5 32t25.5 77q0 37 -25.5 59.5t-62.5 28.5q-16 4 -20 18.5t-4 30.5q0 23 12 35t39 22q47 18 75.5 63.5t28.5 94.5q0 63 -63 63q-25 0 -43.5 -14t-18.5 -35q0 -12 4.5 -19t9.5 -13.5t9 -14.5t4 -24 q0 -27 -22.5 -44.5t-47.5 -17.5q-37 0 -59.5 24.5t-22.5 61.5q0 45 21.5 79t55.5 54.5t75 30.5t78 10q86 0 148.5 -38t62.5 -117q0 -37 -16.5 -67t-39 -51.5t-49 -34.5t-47.5 -21q18 -4 44 -18.5t49.5 -39t39 -57.5t15.5 -76q0 -47 -17.5 -89t-50.5 -76t-80 -53.5 t-108 -19.5q-63 0 -108.5 24t-75 58.5t-43 71.5t-13.5 66z"/>
<glyph unicode="´" horiz-adv-x="385" d="M12 719q0 12 6.5 20.5t24.5 18.5q45 27 92 75t76 134q14 39 47 39q12 0 28.5 -13.5t33 -34t27.5 -42t11 -37.5q0 -25 -9 -41.5t-38 -40.5q-31 -27 -67.5 -47.5t-72.5 -34t-68.5 -19.5t-55.5 -6q-16 0 -25.5 9.5t-9.5 19.5z"/>
<glyph unicode="µ" horiz-adv-x="901" d="M-139 -434q0 70 10 129t26.5 126.5t38 149.5t46.5 197q16 80 26 135t14.5 92t6.5 60.5t2 42.5q0 27 -7.5 36t-7.5 29q0 16 19.5 30.5t51.5 25t73 15.5t86 5q70 0 69 -53q0 -20 -4 -41q-2 -8 -2 -17q-16 -66 -28 -125q-10 -51 -19.5 -101t-9.5 -79q0 -55 24.5 -77.5 t53.5 -22.5q70 0 110 80q16 31 28.5 69.5t21 79.5t12.5 79t4 67q0 27 -7 36t-7 29q0 16 19 30.5t51 25t73 15.5t86 5q70 0 70 -53q0 -31 -11.5 -73t-25 -89t-24.5 -95t-11 -89t18.5 -62.5t46.5 -21.5q25 0 46.5 13t37.5 24q10 8 19.5 14t17.5 6q25 0 25 -23 q0 -16 -8.5 -30.5t-24.5 -34.5t-41 -44t-57.5 -44.5t-73.5 -33.5t-90 -13q-41 0 -68.5 12t-46 26.5t-27 28t-8.5 15.5q-2 -2 -13 -14.5t-31.5 -28t-49.5 -27.5t-65 -12q-29 0 -50.5 5t-37.5 13q-18 8 -31 21q-10 -37 -20.5 -89.5t-18.5 -108.5t-14.5 -108.5t-6.5 -84.5 q0 -51 25 -74t59 -23q29 0 29 -24q0 -12 -16.5 -30.5t-47 -37t-72.5 -31t-93 -12.5q-82 0 -126 44t-44 116z"/>
<glyph unicode="¶" horiz-adv-x="770" d="M10 903q0 74 34 125t87 84t119.5 48.5t132.5 15.5h350q29 0 35 -18.5t6 -43.5q0 -16 -11 -36.5t-28 -20.5h-78v-975q0 -18 -22.5 -28.5t-40.5 -10.5q-20 0 -39.5 10t-19.5 29v975h-97v-975q0 -18 -22.5 -28.5t-38.5 -10.5q-23 0 -44.5 10t-21.5 29v541q-61 2 -115.5 21.5 t-95.5 54t-65.5 85.5t-24.5 119z"/>
<glyph unicode="·" horiz-adv-x="299" d="M41 618q0 25 10 51.5t28.5 48t43 36t53.5 14.5q37 0 59.5 -26.5t22.5 -67.5q0 -25 -10 -52.5t-28.5 -49t-44 -36t-56.5 -14.5q-35 0 -56.5 27.5t-21.5 68.5z"/>
<glyph unicode="¸" horiz-adv-x="432" d="M14 -276q0 25 18.5 46t43.5 21q18 0 28.5 -8t20.5 -17.5t23.5 -17.5t39.5 -8q31 0 56.5 10t44 24.5t29 31t10.5 26.5q-29 -8 -74 -15t-74 -7q-23 0 -34 13t-11 27q0 16 4 43t8 50q6 27 13 57h92q0 -6 1 -19.5t4 -25.5t9 -21.5t17 -9.5q23 0 46 3t40 3q25 0 36 -15t11 -40 q0 -35 -17.5 -76t-51.5 -75.5t-87 -59t-123 -24.5q-53 0 -88 22.5t-35 61.5z"/>
<glyph unicode="¹" horiz-adv-x="346" d="M10 645q0 27 8.5 74t19.5 102.5t25.5 111.5t25.5 103t19.5 78t8.5 35q-10 -4 -27.5 -9t-34.5 -5q-12 0 -20 10t-8 22q0 16 9 28.5t19 21.5q80 61 144 114q23 20 42 32.5t29 12.5q27 0 55.5 -18.5t28.5 -40.5q0 -18 -13 -47t-34 -105q-8 -27 -26.5 -95.5t-37 -148 t-32.5 -155.5t-14 -117q0 -27 -27 -26q-16 0 -35.5 -1t-39 -2.5t-36 -2.5t-24.5 -1q-25 0 -25 29z"/>
<glyph unicode="º" horiz-adv-x="724" d="M-31 969q0 74 29 145.5t85 127.5t138.5 90t186.5 34q115 0 185.5 -66.5t70.5 -173.5q0 -86 -27 -163.5t-78 -136t-125 -92.5t-168 -34q-135 0 -216 73t-81 196zM244 1001q0 -70 36.5 -110.5t96.5 -40.5q31 0 55.5 14.5t43 37t27.5 50t9 54.5t-9 47t-32 30 q-47 18 -64.5 37t-17.5 47q0 39 15.5 54.5t15.5 25.5q0 16 -19 17q-6 0 -20 -6.5t-37 -22.5q-39 -31 -69.5 -88t-30.5 -146z"/>
<glyph unicode="»" horiz-adv-x="1101" d="M33 125q0 23 7 30l23 23q84 70 167 156t153 162q18 20 34.5 38.5t16.5 40.5q0 29 -18.5 58t-40.5 51q-6 6 -24.5 25.5t-53.5 54.5t-91 88t-140 127q-16 12 -24.5 22.5t-8.5 30.5q0 33 31.5 62.5t58.5 29.5q23 0 36 -10t23 -22q127 -135 218.5 -212t131.5 -120 q51 -53 65.5 -96t14.5 -89q0 -47 -22.5 -91t-50.5 -72q-111 -106 -203 -203.5t-164 -151.5q-12 -10 -24.5 -16t-28.5 -6q-33 0 -59.5 30.5t-26.5 59.5zM483 125q0 23 7.5 30t23.5 23q84 70 167 156t153 162q18 20 34.5 38.5t16.5 40.5q0 29 -18.5 58t-41.5 51 q-6 6 -24.5 25.5t-53 54.5t-91 88t-140.5 127q-16 12 -24.5 22.5t-8.5 30.5q0 33 32 62.5t58 29.5q23 0 36.5 -10t23.5 -22q127 -135 218 -212t132 -120q51 -53 65.5 -96t14.5 -89q0 -47 -22.5 -91t-51.5 -72q-111 -106 -203 -203.5t-163 -151.5q-12 -10 -24.5 -16t-29.5 -6 q-33 0 -59.5 30.5t-26.5 59.5z"/>
<glyph unicode="¼" horiz-adv-x="1144" d="M35 481q0 27 8 74t19.5 102.5t25.5 111.5t25.5 103.5t19.5 78t8 34.5q-10 -4 -27.5 -9t-33.5 -5q-12 0 -20.5 10t-8.5 23q0 16 9.5 28t19.5 21q80 61 143 114q23 20 42.5 32.5t29.5 12.5q27 0 55.5 -18t28.5 -41q0 -18 -13.5 -47t-33.5 -105q-8 -27 -26.5 -95t-37 -148 t-33 -156t-14.5 -117q0 -27 -26 -26q-16 0 -36 -1t-39.5 -2t-35.5 -2t-25 -1q-25 0 -24 28zM96 41q0 10 10 35q12 27 43 99.5t73 171.5t91 214t97.5 228.5t90.5 216t72 174.5q4 10 16.5 20t28.5 10q55 0 96.5 -11.5t41.5 -27.5t-4 -31.5t-15 -41.5q-20 -47 -49 -116 t-62.5 -150.5t-71.5 -171t-75 -175.5t-71.5 -165.5t-61.5 -143t-45 -105.5t-25 -55q-4 -16 -17 -22t-28 -6q-35 0 -74.5 7t-50.5 19q-10 14 -10 27zM522 352q0 14 22.5 39t48 56.5t48.5 68.5t23 78q0 14 -5.5 23.5t-11.5 18.5t-11 19.5t-5 28.5q0 29 24.5 50.5t57.5 21.5 q45 0 64.5 -28t19.5 -69q0 -63 -26 -125.5t-64 -109.5q14 4 26 4h25q18 0 39.5 -2t56.5 -6q10 41 22.5 85t27 82t29.5 68.5t34 42.5q10 8 28.5 18.5t39 18.5t38 13.5t27.5 5.5q20 0 20 -19q0 -10 -8 -26.5t-18 -51.5q-4 -16 -13.5 -49t-18.5 -71.5t-18.5 -78.5t-15.5 -71 q10 -4 21.5 -4h21.5q20 0 21 -14q0 -10 -8.5 -25.5t-20.5 -31t-28.5 -28t-33.5 -16.5q-16 -82 -24 -139t-8 -98q0 -29 -27 -29q-16 0 -36.5 -1t-42 -2t-39 -2t-25.5 -1q-27 0 -27 29q0 37 10.5 97t26.5 138q-47 8 -96 9t-74 1q-27 0 -38 -4t-28 -4q-10 0 -19 11.5 t-16.5 25.5t-11.5 29.5t-4 23.5z"/>
<glyph unicode="½" horiz-adv-x="1105" d="M10 481q0 27 8.5 74t19.5 102.5t25.5 111.5t25.5 103.5t19.5 78t8.5 34.5q-10 -4 -27.5 -9t-34.5 -5q-12 0 -20 10t-8 23q0 16 9 28t19 21q80 61 144 114q23 20 42 32.5t29 12.5q27 0 55.5 -18t28.5 -41q0 -18 -13 -47t-34 -105q-8 -27 -26.5 -95t-37 -148t-32.5 -156 t-14 -117q0 -27 -27 -26q-16 0 -35.5 -1l-39 -2t-36 -2t-24.5 -1q-25 0 -25 28zM72 41q0 10 10 35q12 27 43 99.5t73 171.5t91 214t97 228.5t90 216t73 174.5q4 10 16.5 20t28.5 10q55 0 96 -11.5t41 -27.5t-4 -31.5t-14 -41.5q-20 -47 -49 -116t-63 -150.5t-71.5 -171 t-74.5 -175.5t-72 -165.5t-61.5 -143t-45 -105.5t-24.5 -55q-4 -16 -17.5 -22t-27.5 -6q-35 0 -75 7t-50 19q-10 14 -10 27zM498 113q0 27 12 41t37 36q51 47 105.5 98.5t97.5 102.5t70.5 103.5t27.5 101.5q0 41 -20.5 59.5t-53.5 18.5t-56.5 -23.5t-23.5 -50.5 q0 -14 6.5 -22.5t12.5 -16.5t12 -19.5t6 -29.5q0 -29 -19.5 -48.5t-56.5 -19.5q-41 0 -67.5 30t-26.5 77q0 41 18.5 78t50.5 65.5t76 45t95 16.5q119 0 189.5 -46t70.5 -161q0 -59 -36 -109.5t-84 -93.5t-98 -81t-81 -77q10 2 31 2q29 0 51 -4t51 -4q57 0 96 45q14 20 27 21 q18 0 18 -23q0 -20 -15 -58t-43 -76t-67 -65.5t-88 -27.5q-33 0 -54 5t-40.5 12.5t-41 12.5t-52.5 5q-23 0 -43.5 -14.5t-42.5 -14.5q-10 0 -19.5 13.5t-16.5 31t-11 35.5t-4 29z"/>
<glyph unicode="¾" horiz-adv-x="1404" d="M33 674q0 16 7 26.5t23 10.5q18 0 31 -33q10 -25 40 -46.5t63 -21.5q51 0 76.5 32t25.5 77q0 37 -25.5 59.5t-62.5 28.5q-16 4 -20.5 18.5t-4.5 30.5q0 23 12.5 35t39.5 22q47 18 75.5 63.5t28.5 94.5q0 63 -63 64q-25 0 -43.5 -14.5t-18.5 -35.5q0 -12 4 -19t9.5 -13 t9.5 -14.5t4 -24.5q0 -27 -22.5 -44.5t-47.5 -17.5q-37 0 -59.5 24.5t-22.5 61.5q0 45 21.5 79t55.5 54.5t75 30.5t78 10q86 0 148 -37.5t62 -117.5q0 -37 -16 -66.5t-38.5 -51t-49.5 -35t-47 -21.5q18 -4 44 -18.5t49.5 -39t38.5 -57.5t15 -76q0 -47 -17 -89t-50 -75.5 t-80 -53t-109 -19.5q-63 0 -108 23.5t-75 58t-43 71.5t-13 66zM350 41q0 10 10 35q12 27 43 99.5t73 171.5t91 214t97.5 228.5t90.5 216t72 174.5q4 10 16.5 20t28.5 10q55 0 96.5 -11.5t41.5 -27.5t-4.5 -31.5t-14.5 -41.5q-20 -47 -49 -116t-62.5 -150.5t-71.5 -171 t-75 -175.5t-71.5 -165.5t-61.5 -143t-45 -105.5t-25 -55q-4 -16 -17 -22t-28 -6q-35 0 -74.5 7t-50.5 19q-10 14 -10 27zM776 352q0 14 22.5 39t48 56.5t48.5 68.5t23 78q0 14 -5.5 23.5t-11.5 18.5t-11 19.5t-5 28.5q0 29 24.5 50.5t57.5 21.5q45 0 64.5 -28t19.5 -69 q0 -63 -26 -125.5t-64 -109.5q14 4 26 4h25q18 0 39.5 -2t56.5 -6q10 41 22.5 85t26.5 82t29.5 68.5t34.5 42.5q10 8 28.5 18.5t39 18.5t37.5 13.5t28 5.5q20 0 20 -19q0 -10 -8 -26.5t-18 -51.5q-4 -16 -13.5 -49t-18.5 -71.5t-18.5 -78.5t-15.5 -71q10 -4 21.5 -4h21.5 q20 0 21 -14q0 -10 -8.5 -25.5t-20.5 -31t-28.5 -28t-33.5 -16.5q-16 -82 -24 -139t-8 -98q0 -29 -27 -29q-16 0 -36.5 -1t-42 -2t-39 -2t-25.5 -1q-27 0 -27 29q0 37 10.5 97t26.5 138q-47 8 -96 9t-74 1q-27 0 -38 -4t-28 -4q-10 0 -19 11.5t-16.5 25.5t-11.5 29.5 t-4 23.5z"/>
<glyph unicode="¿" horiz-adv-x="735" d="M4 -80q0 63 26.5 116.5t67.5 101.5t90.5 91t94.5 88t79 93.5t44 103.5q8 47 59 51q43 4 74.5 17.5t50.5 13.5q10 0 20.5 -8t10.5 -25q0 -74 -49.5 -157.5t-110 -172t-109.5 -181.5t-49 -185q0 -84 35 -124t119 -40q53 0 94 38t41 89q0 20 -9.5 35.5t-21.5 31t-21.5 34 t-9.5 49.5q0 43 32 67.5t73 24.5q66 0 105.5 -44t39.5 -122q0 -76 -29.5 -134.5t-81 -98.5t-120 -60.5t-143.5 -20.5q-80 0 -153 17.5t-128 56.5t-88 101.5t-33 152.5zM428 768q0 25 10.5 52.5t28.5 49t44 36t56 14.5q35 0 56.5 -28t21.5 -69q0 -25 -11 -51.5t-29.5 -48 t-43 -35.5t-51.5 -14q-37 0 -59.5 26.5t-22.5 67.5z"/>
<glyph unicode="À" horiz-adv-x="1476" d="M0 266q0 72 33 125t78 88t94 51.5t80 16.5q29 0 28 -27q0 -18 -18.5 -41.5t-18.5 -58.5q0 -47 28 -77t91 -30q47 0 92 33t88 84t82 112.5t76 121.5q43 70 86 143.5t86 141t88 127t92 102.5q-53 16 -122.5 28.5t-143.5 12.5q-88 0 -143 -46.5t-55 -103.5q0 -45 22.5 -67.5 t63.5 -22.5q25 0 38 10t23 10q23 0 23 -22q0 -29 -17.5 -64.5t-49.5 -67.5t-77 -53.5t-98 -21.5q-47 0 -90 17.5t-75 48t-50.5 74.5t-18.5 98q0 82 37 147.5t98.5 110.5t142.5 68.5t167 23.5q82 0 147.5 -8.5t117.5 -19.5t95 -19t82 -8q127 0 196.5 16t94.5 16 q20 0 28.5 -10t8.5 -25q0 -10 -6 -23t-16.5 -36.5t-26 -61.5t-33.5 -100q-20 -66 -46 -171t-48.5 -221t-38 -227.5t-15.5 -189.5q0 -53 16.5 -83.5t51.5 -30.5q27 0 42 11t36 32q20 20 35 20q14 0 21 -9t7 -20q0 -16 -8 -30.5t-24 -34.5t-41 -44t-57.5 -44.5t-72.5 -33.5 t-89 -13q-102 0 -150.5 62.5t-48.5 164.5q0 43 5 97.5t13 106.5t16.5 98t14.5 77q-78 0 -125 -36t-86 -107q-49 -92 -97 -177.5t-109.5 -152t-140.5 -105t-187 -38.5q-70 0 -128.5 20t-101.5 58t-67.5 90.5t-24.5 117.5zM969 725h133q27 115 73 228.5t80 189.5 q-47 -37 -91 -93.5t-82 -116t-67.5 -114.5t-45.5 -94zM981 1550q0 16 11.5 38t27.5 42.5t32.5 33.5t28.5 13q33 0 47 -39q29 -86 76 -134t92 -74q18 -10 24.5 -18.5t6.5 -20.5q0 -10 -9 -19.5t-26 -9.5q-23 0 -55.5 6t-68 19.5t-72.5 34t-68 46.5q-29 25 -38 41.5t-9 40.5z "/>
<glyph unicode="Á" horiz-adv-x="1476" d="M0 266q0 72 33 125t78 88t94 51.5t80 16.5q29 0 28 -27q0 -18 -18.5 -41.5t-18.5 -58.5q0 -47 28 -77t91 -30q47 0 92 33t88 84t82 112.5t76 121.5q43 70 86 143.5t86 141t88 127t92 102.5q-53 16 -122.5 28.5t-143.5 12.5q-88 0 -143 -46.5t-55 -103.5q0 -45 22.5 -67.5 t63.5 -22.5q25 0 38 10t23 10q23 0 23 -22q0 -29 -17.5 -64.5t-49.5 -67.5t-77 -53.5t-98 -21.5q-47 0 -90 17.5t-75 48t-50.5 74.5t-18.5 98q0 82 37 147.5t98.5 110.5t142.5 68.5t167 23.5q82 0 147.5 -8.5t117.5 -19.5t95 -19t82 -8q127 0 196.5 16t94.5 16 q20 0 28.5 -10t8.5 -25q0 -10 -6 -23t-16.5 -36.5t-26 -61.5t-33.5 -100q-20 -66 -46 -171t-48.5 -221t-38 -227.5t-15.5 -189.5q0 -53 16.5 -83.5t51.5 -30.5q27 0 42 11t36 32q20 20 35 20q14 0 21 -9t7 -20q0 -16 -8 -30.5t-24 -34.5t-41 -44t-57.5 -44.5t-72.5 -33.5 t-89 -13q-102 0 -150.5 62.5t-48.5 164.5q0 43 5 97.5t13 106.5t16.5 98t14.5 77q-78 0 -125 -36t-86 -107q-49 -92 -97 -177.5t-109.5 -152t-140.5 -105t-187 -38.5q-70 0 -128.5 20t-101.5 58t-67.5 90.5t-24.5 117.5zM969 725h133q27 115 73 228.5t80 189.5 q-47 -37 -91 -93.5t-82 -116t-67.5 -114.5t-45.5 -94zM1159 1405q0 12 6 20.5t25 18.5q45 27 92 75t76 134q14 39 47 39q12 0 28.5 -13.5t33 -34t27.5 -42t11 -37.5q0 -25 -9 -41.5t-38 -40.5q-31 -27 -67.5 -47.5t-72.5 -33.5t-68.5 -19.5t-55.5 -6.5q-16 0 -25.5 9.5 t-9.5 19.5z"/>
<glyph unicode="Â" horiz-adv-x="1476" d="M0 266q0 72 33 125t78 88t94 51.5t80 16.5q29 0 28 -27q0 -18 -18.5 -41.5t-18.5 -58.5q0 -47 28 -77t91 -30q47 0 92 33t88 84t82 112.5t76 121.5q43 70 86 143.5t86 141t88 127t92 102.5q-53 16 -122.5 28.5t-143.5 12.5q-88 0 -143 -46.5t-55 -103.5q0 -45 22.5 -67.5 t63.5 -22.5q25 0 38 10t23 10q23 0 23 -22q0 -29 -17.5 -64.5t-49.5 -67.5t-77 -53.5t-98 -21.5q-47 0 -90 17.5t-75 48t-50.5 74.5t-18.5 98q0 82 37 147.5t98.5 110.5t142.5 68.5t167 23.5q82 0 147.5 -8.5t117.5 -19.5t95 -19t82 -8q127 0 196.5 16t94.5 16 q20 0 28.5 -10t8.5 -25q0 -10 -6 -23t-16.5 -36.5t-26 -61.5t-33.5 -100q-20 -66 -46 -171t-48.5 -221t-38 -227.5t-15.5 -189.5q0 -53 16.5 -83.5t51.5 -30.5q27 0 42 11t36 32q20 20 35 20q14 0 21 -9t7 -20q0 -16 -8 -30.5t-24 -34.5t-41 -44t-57.5 -44.5t-72.5 -33.5 t-89 -13q-102 0 -150.5 62.5t-48.5 164.5q0 43 5 97.5t13 106.5t16.5 98t14.5 77q-78 0 -125 -36t-86 -107q-49 -92 -97 -177.5t-109.5 -152t-140.5 -105t-187 -38.5q-70 0 -128.5 20t-101.5 58t-67.5 90.5t-24.5 117.5zM926 1415q0 25 30 47q25 18 42.5 31.5t34 29t34.5 35 t47 50.5q23 27 41.5 46t56.5 19q43 0 54.5 -20.5t25.5 -53.5q23 -53 47.5 -80.5t49.5 -56.5q16 -16 25 -23t9 -22q0 -12 -9 -21.5t-25 -9.5t-65.5 21.5t-133.5 101.5q-35 -20 -72 -41.5t-68.5 -40t-56 -30t-35.5 -11.5q-16 0 -24 9.5t-8 19.5zM969 725h133q27 115 73 228.5 t80 189.5q-47 -37 -91 -93.5t-82 -116t-67.5 -114.5t-45.5 -94z"/>
<glyph unicode="Ã" horiz-adv-x="1476" d="M0 266q0 72 33 125t78 88t94 51.5t80 16.5q29 0 28 -27q0 -18 -18.5 -41.5t-18.5 -58.5q0 -47 28 -77t91 -30q47 0 92 33t88 84t82 112.5t76 121.5q43 70 86 143.5t86 141t88 127t92 102.5q-53 16 -122.5 28.5t-143.5 12.5q-88 0 -143 -46.5t-55 -103.5q0 -45 22.5 -67.5 t63.5 -22.5q25 0 38 10t23 10q23 0 23 -22q0 -29 -17.5 -64.5t-49.5 -67.5t-77 -53.5t-98 -21.5q-47 0 -90 17.5t-75 48t-50.5 74.5t-18.5 98q0 82 37 147.5t98.5 110.5t142.5 68.5t167 23.5q82 0 147.5 -8.5t117.5 -19.5t95 -19t82 -8q127 0 196.5 16t94.5 16 q20 0 28.5 -10t8.5 -25q0 -10 -6 -23t-16.5 -36.5t-26 -61.5t-33.5 -100q-20 -66 -46 -171t-48.5 -221t-38 -227.5t-15.5 -189.5q0 -53 16.5 -83.5t51.5 -30.5q27 0 42 11t36 32q20 20 35 20q14 0 21 -9t7 -20q0 -16 -8 -30.5t-24 -34.5t-41 -44t-57.5 -44.5t-72.5 -33.5 t-89 -13q-102 0 -150.5 62.5t-48.5 164.5q0 43 5 97.5t13 106.5t16.5 98t14.5 77q-78 0 -125 -36t-86 -107q-49 -92 -97 -177.5t-109.5 -152t-140.5 -105t-187 -38.5q-70 0 -128.5 20t-101.5 58t-67.5 90.5t-24.5 117.5zM922 1442q0 10 6 22.5t14 22.5q12 18 30.5 37.5 t41 36t48 27.5t52.5 11q35 0 63.5 -11t56.5 -25.5t57.5 -25.5t66.5 -11q47 0 82 22.5t51 22.5q10 0 18.5 -5t8.5 -16q0 -10 -4.5 -19t-8.5 -18q-35 -47 -78 -88t-102 -41q-35 0 -67.5 11.5t-63.5 25t-62.5 24.5t-66.5 11q-37 0 -70.5 -19.5t-48.5 -19.5q-10 0 -17 6.5 t-7 18.5zM969 725h133q27 115 73 228.5t80 189.5q-47 -37 -91 -93.5t-82 -116t-67.5 -114.5t-45.5 -94z"/>
<glyph unicode="Ä" horiz-adv-x="1476" d="M0 266q0 72 33 125t78 88t94 51.5t80 16.5q29 0 28 -27q0 -18 -18.5 -41.5t-18.5 -58.5q0 -47 28 -77t91 -30q47 0 92 33t88 84t82 112.5t76 121.5q43 70 86 143.5t86 141t88 127t92 102.5q-53 16 -122.5 28.5t-143.5 12.5q-88 0 -143 -46.5t-55 -103.5q0 -45 22.5 -67.5 t63.5 -22.5q25 0 38 10t23 10q23 0 23 -22q0 -29 -17.5 -64.5t-49.5 -67.5t-77 -53.5t-98 -21.5q-47 0 -90 17.5t-75 48t-50.5 74.5t-18.5 98q0 82 37 147.5t98.5 110.5t142.5 68.5t167 23.5q82 0 147.5 -8.5t117.5 -19.5t95 -19t82 -8q127 0 196.5 16t94.5 16 q20 0 28.5 -10t8.5 -25q0 -10 -6 -23t-16.5 -36.5t-26 -61.5t-33.5 -100q-20 -66 -46 -171t-48.5 -221t-38 -227.5t-15.5 -189.5q0 -53 16.5 -83.5t51.5 -30.5q27 0 42 11t36 32q20 20 35 20q14 0 21 -9t7 -20q0 -16 -8 -30.5t-24 -34.5t-41 -44t-57.5 -44.5t-72.5 -33.5 t-89 -13q-102 0 -150.5 62.5t-48.5 164.5q0 43 5 97.5t13 106.5t16.5 98t14.5 77q-78 0 -125 -36t-86 -107q-49 -92 -97 -177.5t-109.5 -152t-140.5 -105t-187 -38.5q-70 0 -128.5 20t-101.5 58t-67.5 90.5t-24.5 117.5zM969 725h133q27 115 73 228.5t80 189.5 q-47 -37 -91 -93.5t-82 -116t-67.5 -114.5t-45.5 -94zM1024 1489q0 25 10 51.5t28.5 48t43 35.5t53.5 14q37 0 59.5 -26.5t22.5 -67.5q0 -25 -10 -52.5t-28.5 -49t-44 -35.5t-56.5 -14q-35 0 -56.5 27.5t-21.5 68.5zM1307 1489q0 25 10 51.5t28.5 48t43 35.5t53.5 14 q37 0 59.5 -26.5t22.5 -67.5q0 -25 -10.5 -52.5t-29 -49t-44 -35.5t-56.5 -14q-35 0 -56 27.5t-21 68.5z"/>
<glyph unicode="Å" horiz-adv-x="1476" d="M0 266q0 72 33 125t78 88t94 51.5t80 16.5q29 0 28 -27q0 -18 -18.5 -41.5t-18.5 -58.5q0 -47 28 -77t91 -30q47 0 92 33t88 84t82 112.5t76 121.5q43 70 86 143.5t86 141t88 127t92 102.5q-53 16 -122.5 28.5t-143.5 12.5q-88 0 -143 -46.5t-55 -103.5q0 -45 22.5 -67.5 t63.5 -22.5q25 0 38 10t23 10q23 0 23 -22q0 -29 -17.5 -64.5t-49.5 -67.5t-77 -53.5t-98 -21.5q-47 0 -90 17.5t-75 48t-50.5 74.5t-18.5 98q0 82 37 147.5t98.5 110.5t142.5 68.5t167 23.5q82 0 147.5 -8.5t117.5 -19.5t95 -19t82 -8q127 0 196.5 16t94.5 16 q20 0 28.5 -10t8.5 -25q0 -10 -6 -23t-16.5 -36.5t-26 -61.5t-33.5 -100q-20 -66 -46 -171t-48.5 -221t-38 -227.5t-15.5 -189.5q0 -53 16.5 -83.5t51.5 -30.5q27 0 42 11t36 32q20 20 35 20q14 0 21 -9t7 -20q0 -16 -8 -30.5t-24 -34.5t-41 -44t-57.5 -44.5t-72.5 -33.5 t-89 -13q-102 0 -150.5 62.5t-48.5 164.5q0 43 5 97.5t13 106.5t16.5 98t14.5 77q-78 0 -125 -36t-86 -107q-49 -92 -97 -177.5t-109.5 -152t-140.5 -105t-187 -38.5q-70 0 -128.5 20t-101.5 58t-67.5 90.5t-24.5 117.5zM969 725h133q27 115 73 228.5t80 189.5 q-47 -37 -91 -93.5t-82 -116t-67.5 -114.5t-45.5 -94zM1049 1569q0 86 58 144.5t144 58.5t144.5 -58.5t58.5 -144.5t-58.5 -144.5t-144.5 -58.5t-144 58.5t-58 144.5zM1165 1569q0 -35 26 -60.5t60 -25.5q35 0 58.5 25.5t23.5 60.5t-23.5 58.5t-58.5 23.5t-60.5 -23.5 t-25.5 -58.5z"/>
<glyph unicode="Æ" horiz-adv-x="1953" d="M0 266q0 72 33 125t78 88t94 51.5t80 16.5q29 0 28 -27q0 -18 -18.5 -41.5t-18.5 -58.5q0 -37 25 -66.5t88 -29.5q49 0 98.5 30.5t96.5 79.5t90 109.5t80 120.5q43 70 86 143.5t86 141t88 127t92 102.5q-53 16 -123 28.5t-143 12.5q-88 0 -143.5 -46.5t-55.5 -103.5 q0 -45 22.5 -67.5t63.5 -22.5q25 0 38 10t23 10q23 0 23 -22q0 -29 -17.5 -64.5t-49 -67.5t-76.5 -53.5t-99 -21.5q-47 0 -90 17.5t-74.5 48t-50 74.5t-18.5 98q0 82 37 147.5t98 110.5t142 68.5t167 23.5q82 0 147.5 -8.5t118 -19.5t95.5 -19t82 -8q104 0 158.5 8t92 19 t74.5 19.5t107 8.5q135 0 208.5 -55.5t73.5 -161.5q0 -78 -37.5 -128t-103.5 -50q-41 0 -70.5 24.5t-29.5 65.5q0 31 13 48t29.5 30.5t30 28t13.5 36.5q0 51 -70 51q-41 0 -75.5 -21.5t-59.5 -57t-39 -84t-14 -103.5q0 -35 6 -57.5t14 -36.5q8 -16 23 -27q12 4 28 8 q14 4 34 6.5t48 2.5q49 0 79 -26t30 -67q0 -51 -37 -81.5t-96 -30.5q-57 0 -102.5 16.5t-63.5 26.5q-14 -10 -33.5 -36t-37 -62.5t-30 -81t-12.5 -93.5q0 -111 67.5 -169t164.5 -58q39 0 72.5 12.5t60 30.5t48 39.5t38.5 42.5q16 16 27.5 28.5t21.5 12.5q27 0 27 -23 q0 -16 -17 -55q-16 -41 -51 -97t-93.5 -108.5t-144.5 -88.5t-204 -36q-88 0 -152.5 27t-106.5 71t-62.5 101t-20.5 117q0 88 13 168t25 139q-78 0 -125 -36t-85 -107q-49 -92 -100.5 -177.5t-116 -152t-147.5 -105t-191 -38.5q-70 0 -128.5 20t-101.5 58t-67.5 90.5 t-24.5 117.5zM989 725h133q27 115 73 228.5t81 189.5q-47 -37 -91 -93.5t-82 -116t-67.5 -114.5t-46.5 -94z"/>
<glyph unicode="Ç" horiz-adv-x="976" d="M0 446q0 190 61.5 357.5t162 290.5t224 193.5t250.5 70.5q119 0 199 -65.5t80 -192.5q0 -86 -39 -142.5t-98 -56.5q-41 0 -71 24.5t-30 67.5q0 35 14.5 55.5t32 36t31.5 34t14 50.5q0 37 -27.5 55.5t-64.5 18.5q-78 0 -150.5 -60.5t-127.5 -161.5t-88 -236.5t-33 -282.5 q0 -145 77 -216t187 -71q41 0 76 14.5t64.5 35t52 43t39.5 38.5q31 35 47 35q27 0 26 -23q0 -14 -5 -28.5t-15 -34.5q-16 -37 -55 -90t-96.5 -103.5t-132.5 -87.5t-163 -41q2 -16 8.5 -36.5t22.5 -20.5q23 0 46.5 3t39.5 3q25 0 36 -15.5t11 -39.5q0 -35 -17.5 -76 t-51 -75.5t-87 -59.5t-122.5 -25q-53 0 -88 22.5t-35 61.5q0 25 18.5 46.5t42.5 21.5q18 0 28.5 -8t21 -17.5t23.5 -17.5t40 -8q31 0 56.5 10t44 24.5t28.5 31t10 26.5q-29 -8 -74 -15.5t-73 -7.5q-23 0 -34 13.5t-11 27.5q0 29 8 72t12 66q-78 8 -141.5 39.5t-109.5 88 t-70.5 140.5t-24.5 198z"/>
<glyph unicode="È" horiz-adv-x="815" d="M0 350q0 102 33 177t81 127.5t100 84t89 47.5q-47 47 -76.5 106.5t-29.5 127.5q0 70 33.5 131t90 107.5t130 73t151.5 26.5q135 0 209 -55.5t74 -161.5q0 -78 -38 -128t-104 -50q-41 0 -70.5 24.5t-29.5 65.5q0 31 13.5 48t29.5 30.5t29.5 28t13.5 36.5q0 51 -70 51 q-41 0 -75.5 -21.5t-59 -57t-39 -84t-14.5 -103.5q0 -35 6 -57.5t15 -36.5q8 -16 22 -27q12 4 29 8q14 4 33.5 6.5t48.5 2.5q49 0 78.5 -26t29.5 -67q0 -51 -37 -81.5t-96 -30.5q-57 0 -102 16.5t-64 26.5q-14 -10 -33.5 -36t-37 -62.5t-29.5 -81t-12 -93.5 q0 -111 67.5 -169t163.5 -58q39 0 72.5 12.5t60.5 30.5t48.5 39.5t37.5 42.5q16 16 27.5 28.5t21.5 12.5q27 0 27 -23q0 -16 -17 -55q-16 -41 -47.5 -97t-84 -108.5t-125 -88.5t-173.5 -36q-86 0 -158.5 29t-127 79t-85 119.5t-30.5 149.5zM477 1589q0 16 11.5 38t27.5 42.5 t33 33.5t29 13q33 0 47 -39q29 -86 76 -134t92 -75q18 -10 24 -18t6 -20q0 -10 -9 -19.5t-26 -9.5q-23 0 -55.5 6t-68 19.5t-72.5 34t-68 46.5q-29 25 -38 41.5t-9 40.5z"/>
<glyph unicode="É" horiz-adv-x="815" d="M0 350q0 102 33 177t81 127.5t100 84t89 47.5q-47 47 -76.5 106.5t-29.5 127.5q0 70 33.5 131t90 107.5t130 73t151.5 26.5q135 0 209 -55.5t74 -161.5q0 -78 -38 -128t-104 -50q-41 0 -70.5 24.5t-29.5 65.5q0 31 13.5 48t29.5 30.5t29.5 28t13.5 36.5q0 51 -70 51 q-41 0 -75.5 -21.5t-59 -57t-39 -84t-14.5 -103.5q0 -35 6 -57.5t15 -36.5q8 -16 22 -27q12 4 29 8q14 4 33.5 6.5t48.5 2.5q49 0 78.5 -26t29.5 -67q0 -51 -37 -81.5t-96 -30.5q-57 0 -102 16.5t-64 26.5q-14 -10 -33.5 -36t-37 -62.5t-29.5 -81t-12 -93.5 q0 -111 67.5 -169t163.5 -58q39 0 72.5 12.5t60.5 30.5t48.5 39.5t37.5 42.5q16 16 27.5 28.5t21.5 12.5q27 0 27 -23q0 -16 -17 -55q-16 -41 -47.5 -97t-84 -108.5t-125 -88.5t-173.5 -36q-86 0 -158.5 29t-127 79t-85 119.5t-30.5 149.5zM500 1432q0 12 6 20t24 18 q45 27 92.5 75t75.5 134q14 39 47 39q12 0 29 -13t33 -33.5t27.5 -42t11.5 -38.5q0 -25 -9.5 -41t-37.5 -41q-31 -27 -68 -47t-72.5 -33.5t-68.5 -19.5t-55 -6q-16 0 -25.5 9t-9.5 20z"/>
<glyph unicode="Ê" horiz-adv-x="815" d="M0 350q0 102 33 177t81 127.5t100 84t89 47.5q-47 47 -76.5 106.5t-29.5 127.5q0 70 33.5 131t90 107.5t130 73t151.5 26.5q135 0 209 -55.5t74 -161.5q0 -78 -38 -128t-104 -50q-41 0 -70.5 24.5t-29.5 65.5q0 31 13.5 48t29.5 30.5t29.5 28t13.5 36.5q0 51 -70 51 q-41 0 -75.5 -21.5t-59 -57t-39 -84t-14.5 -103.5q0 -35 6 -57.5t15 -36.5q8 -16 22 -27q12 4 29 8q14 4 33.5 6.5t48.5 2.5q49 0 78.5 -26t29.5 -67q0 -51 -37 -81.5t-96 -30.5q-57 0 -102 16.5t-64 26.5q-14 -10 -33.5 -36t-37 -62.5t-29.5 -81t-12 -93.5 q0 -111 67.5 -169t163.5 -58q39 0 72.5 12.5t60.5 30.5t48.5 39.5t37.5 42.5q16 16 27.5 28.5t21.5 12.5q27 0 27 -23q0 -16 -17 -55q-16 -41 -47.5 -97t-84 -108.5t-125 -88.5t-173.5 -36q-86 0 -158.5 29t-127 79t-85 119.5t-30.5 149.5zM369 1407q0 25 30 47 q25 18 42.5 31.5t34 29t34.5 35t47 49.5q23 27 41 46.5t57 19.5q43 0 54.5 -20.5t25.5 -53.5q23 -53 47.5 -80.5t48.5 -56.5q16 -16 25.5 -23.5t9.5 -21.5q0 -12 -9 -21.5t-26 -9.5q-16 0 -65 21.5t-133 101.5q-35 -20 -72 -41.5t-68.5 -40t-56 -30t-35.5 -11.5 q-16 0 -24 9.5t-8 19.5z"/>
<glyph unicode="Ë" horiz-adv-x="815" d="M0 350q0 102 33 177t81 127.5t100 84t89 47.5q-47 47 -76.5 106.5t-29.5 127.5q0 70 33.5 131t90 107.5t130 73t151.5 26.5q135 0 209 -55.5t74 -161.5q0 -78 -38 -128t-104 -50q-41 0 -70.5 24.5t-29.5 65.5q0 31 13.5 48t29.5 30.5t29.5 28t13.5 36.5q0 51 -70 51 q-41 0 -75.5 -21.5t-59 -57t-39 -84t-14.5 -103.5q0 -35 6 -57.5t15 -36.5q8 -16 22 -27q12 4 29 8q14 4 33.5 6.5t48.5 2.5q49 0 78.5 -26t29.5 -67q0 -51 -37 -81.5t-96 -30.5q-57 0 -102 16.5t-64 26.5q-14 -10 -33.5 -36t-37 -62.5t-29.5 -81t-12 -93.5 q0 -111 67.5 -169t163.5 -58q39 0 72.5 12.5t60.5 30.5t48.5 39.5t37.5 42.5q16 16 27.5 28.5t21.5 12.5q27 0 27 -23q0 -16 -17 -55q-16 -41 -47.5 -97t-84 -108.5t-125 -88.5t-173.5 -36q-86 0 -158.5 29t-127 79t-85 119.5t-30.5 149.5zM373 1495q0 25 10 51.5t28.5 48 t43 36t53.5 14.5q37 0 59.5 -27t22.5 -68q0 -25 -10.5 -52.5t-29 -49t-44 -35.5t-55.5 -14q-35 0 -56.5 27.5t-21.5 68.5zM655 1495q0 25 10.5 51.5t29 48t43 36t53.5 14.5q37 0 59 -27t22 -68q0 -25 -10 -52.5t-28.5 -49t-44 -35.5t-56.5 -14q-35 0 -56.5 27.5t-21.5 68.5z "/>
<glyph unicode="Ì" horiz-adv-x="972" d="M0 279q0 72 28.5 127t73.5 93t100.5 57t108.5 19q39 0 54.5 -8t15.5 -18q0 -23 -27 -29q-35 -10 -66.5 -46t-31.5 -83q0 -53 35 -87t90 -34q82 0 131 61.5t79 155t46 205t30.5 212t35 176t57.5 98.5q-57 -23 -110.5 -51.5t-93.5 -66.5t-64.5 -86t-24.5 -108 q0 -76 49 -108q16 -10 23.5 -15.5t7.5 -17.5q0 -10 -15.5 -20.5t-46.5 -10.5q-45 0 -93 15.5t-88 45t-66.5 72.5t-26.5 99q0 74 47 125t121 89t161 65.5t167 56.5q45 16 67.5 40.5t50.5 32.5q43 12 75 17.5t52 5.5q41 0 41 -31q0 -16 -10 -39t-35 -82q-25 -57 -35 -169.5 t-24.5 -250t-42 -281t-86 -261t-156.5 -193.5t-254 -76q-76 0 -139.5 22.5t-110.5 62.5t-73.5 96.5t-26.5 122.5zM608 1589q0 16 11.5 38t28 42.5t33 33.5t28.5 13q33 0 47 -39q29 -86 76 -134t92 -75q18 -10 24 -18t6 -20q0 -10 -9 -19.5t-25 -9.5q-23 0 -56 6t-68.5 19.5 t-72.5 34t-68 46.5q-29 25 -38 41.5t-9 40.5z"/>
<glyph unicode="Í" horiz-adv-x="972" d="M0 279q0 72 28.5 127t73.5 93t100.5 57t108.5 19q39 0 54.5 -8t15.5 -18q0 -23 -27 -29q-35 -10 -66.5 -46t-31.5 -83q0 -53 35 -87t90 -34q82 0 131 61.5t79 155t46 205t30.5 212t35 176t57.5 98.5q-57 -23 -110.5 -51.5t-93.5 -66.5t-64.5 -86t-24.5 -108 q0 -76 49 -108q16 -10 23.5 -15.5t7.5 -17.5q0 -10 -15.5 -20.5t-46.5 -10.5q-45 0 -93 15.5t-88 45t-66.5 72.5t-26.5 99q0 74 47 125t121 89t161 65.5t167 56.5q45 16 67.5 40.5t50.5 32.5q43 12 75 17.5t52 5.5q41 0 41 -31q0 -16 -10 -39t-35 -82q-25 -57 -35 -169.5 t-24.5 -250t-42 -281t-86 -261t-156.5 -193.5t-254 -76q-76 0 -139.5 22.5t-110.5 62.5t-73.5 96.5t-26.5 122.5zM641 1397q0 12 6 20t25 19q45 27 92 75t76 134q14 38 47 38q12 0 28.5 -13t33 -33.5t27.5 -42t11 -38.5q0 -25 -9 -41t-38 -40q-31 -27 -67.5 -47.5t-72.5 -34 t-69 -19.5t-55 -6q-16 0 -25.5 9t-9.5 20z"/>
<glyph unicode="Î" horiz-adv-x="972" d="M0 279q0 72 28.5 127t73.5 93t100.5 57t108.5 19q39 0 54.5 -8t15.5 -18q0 -23 -27 -29q-35 -10 -66.5 -46t-31.5 -83q0 -53 35 -87t90 -34q82 0 131 61.5t79 155t46 205t30.5 212t35 176t57.5 98.5q-57 -23 -110.5 -51.5t-93.5 -66.5t-64.5 -86t-24.5 -108 q0 -76 49 -108q16 -10 23.5 -15.5t7.5 -17.5q0 -10 -15.5 -20.5t-46.5 -10.5q-45 0 -93 15.5t-88 45t-66.5 72.5t-26.5 99q0 74 47 125t121 89t161 65.5t167 56.5q45 16 67.5 40.5t50.5 32.5q43 12 75 17.5t52 5.5q41 0 41 -31q0 -16 -10 -39t-35 -82q-25 -57 -35 -169.5 t-24.5 -250t-42 -281t-86 -261t-156.5 -193.5t-254 -76q-76 0 -139.5 22.5t-110.5 62.5t-73.5 96.5t-26.5 122.5zM561 1419q0 25 31 47q25 18 42 31.5t33.5 29t35 35t47.5 50.5q23 27 41 46t57 19q43 0 54 -20.5t26 -52.5q23 -53 47 -81t49 -57q16 -16 25.5 -23t9.5 -22 q0 -12 -9.5 -21t-25.5 -9t-65.5 21t-133.5 101q-35 -20 -71.5 -41.5t-68.5 -40t-56.5 -29.5t-34.5 -11q-16 0 -24.5 9t-8.5 19z"/>
<glyph unicode="Ï" horiz-adv-x="972" d="M0 279q0 72 28.5 127t73.5 93t100.5 57t108.5 19q39 0 54.5 -8t15.5 -18q0 -23 -27 -29q-35 -10 -66.5 -46t-31.5 -83q0 -53 35 -87t90 -34q82 0 131 61.5t79 155t46 205t30.5 212t35 176t57.5 98.5q-57 -23 -110.5 -51.5t-93.5 -66.5t-64.5 -86t-24.5 -108 q0 -76 49 -108q16 -10 23.5 -15.5t7.5 -17.5q0 -10 -15.5 -20.5t-46.5 -10.5q-45 0 -93 15.5t-88 45t-66.5 72.5t-26.5 99q0 74 47 125t121 89t161 65.5t167 56.5q45 16 67.5 40.5t50.5 32.5q43 12 75 17.5t52 5.5q41 0 41 -31q0 -16 -10 -39t-35 -82q-25 -57 -35 -169.5 t-24.5 -250t-42 -281t-86 -261t-156.5 -193.5t-254 -76q-76 0 -139.5 22.5t-110.5 62.5t-73.5 96.5t-26.5 122.5zM594 1491q0 25 10 51.5t28.5 48t43 35.5t53.5 14q37 0 59.5 -26.5t22.5 -67.5q0 -25 -10 -52.5t-28.5 -49t-44.5 -35.5t-56 -14q-35 0 -56.5 27.5t-21.5 68.5z M877 1491q0 25 10 51.5t28.5 48t43 35.5t53.5 14q37 0 59.5 -26.5t22.5 -67.5q0 -25 -10.5 -52.5t-29 -49t-44 -35.5t-56.5 -14q-35 0 -56 27.5t-21 68.5z"/>
<glyph unicode="Ð" horiz-adv-x="1531" d="M0 811q0 121 75 221.5t198.5 173t283.5 112.5t330 40q123 0 232.5 -27.5t192.5 -90t131 -163t48 -243.5q0 -129 -15.5 -232.5t-54.5 -202.5q-82 -205 -217 -307t-295 -102q-51 0 -98 11t-85 25.5t-65.5 25.5t-39.5 11q-18 0 -45 -11t-55.5 -25.5t-58.5 -25.5t-50 -11 q-33 0 -33 26q0 10 5 19.5t14.5 23t21.5 37t26 60.5q10 27 26.5 100.5t37.5 171.5h-92q-31 0 -31 33q0 10 5 29.5t14.5 38t21.5 32.5t25 14h86q12 63 25.5 128t25.5 124.5t23.5 111.5t21.5 91q12 51 29.5 87t37 60.5t41 42t41.5 31.5q-100 -6 -185 -43t-146.5 -88 t-96 -110.5t-34.5 -110.5q0 -96 84 -96q20 0 40.5 7t28.5 7q20 0 21 -22q0 -23 -20.5 -58t-57.5 -68.5t-87 -58t-112 -24.5q-96 0 -157.5 58t-61.5 167zM764 188q0 -80 84 -79q92 0 163.5 90t114.5 231q33 106 49.5 222t16.5 247q0 88 -14.5 150.5t-39 102.5t-56 61.5 t-68.5 27.5q-25 -31 -46.5 -81t-45.5 -140q-25 -86 -50.5 -205t-48.5 -240h97q23 0 29.5 -6t6.5 -22q0 -10 -6 -29.5t-16 -40t-23.5 -35t-25.5 -14.5h-86q-16 -92 -25.5 -157.5t-9.5 -82.5z"/>
<glyph unicode="Ñ" horiz-adv-x="1478" d="M0 180q0 55 25.5 103.5t61.5 84t76 55t68 19.5q29 0 29 -24q0 -18 -7 -35.5t-7 -52.5q0 -39 27.5 -72t91.5 -33q45 0 95 39t96 104.5t88 151.5t74 182.5t50 195.5t18 189q0 86 -33.5 121t-88.5 35q-41 0 -83 -30.5t-76 -80t-54.5 -112t-20.5 -123.5q0 -51 24.5 -74.5 t57.5 -23.5q20 0 37.5 8t28.5 8q20 0 20 -22q0 -23 -19.5 -59t-54.5 -69.5t-83 -57t-103 -23.5q-92 0 -153.5 62.5t-61.5 170.5q0 131 56.5 231.5t143.5 169t191 104.5t199 36q111 0 185.5 -27.5t123.5 -78t76.5 -119t46.5 -150.5q8 -37 14 -86t11.5 -101.5t7.5 -106.5 t4 -99q45 227 86 385t98 270q27 53 62.5 83t97.5 30q43 0 75.5 -11.5t53 -27.5t31 -35.5t10.5 -34.5q0 -31 -31 -30q-37 0 -63.5 -9.5t-57.5 -46.5q-35 -43 -82 -151.5t-93 -259t-86 -329.5t-58 -364q-2 -33 -16.5 -46t-37.5 -13h-202q-16 0 -26.5 9t-12.5 36 q-6 96 -7 193.5t-2 191.5t-4.5 184.5t-13.5 173.5h-10q-16 -74 -39 -168t-55.5 -191t-76.5 -190.5t-105.5 -166t-140.5 -116.5t-181 -44q-70 0 -124 21.5t-92 58.5t-58.5 86t-20.5 102zM872 1442q0 10 6.5 22.5t14.5 22.5q12 18 30.5 37.5t41 36t48 27.5t52.5 11 q35 0 63.5 -11t56 -25.5t57.5 -25.5t67 -11q47 0 81.5 22.5t51.5 22.5q10 0 18 -5t8 -16q0 -10 -4 -19l-8 -18q-35 -47 -78 -88t-102 -41q-35 0 -67.5 11.5t-63.5 25t-62.5 24.5t-66.5 11q-37 0 -71 -19.5t-48 -19.5q-10 0 -17.5 6.5t-7.5 18.5z"/>
<glyph unicode="Ò" horiz-adv-x="1159" d="M0 477q0 233 77 399t193.5 273.5t255 158t258.5 50.5q98 0 142.5 -18.5t44.5 -41.5q0 -20 -27 -20q-12 0 -35.5 2t-62.5 2q-98 0 -187.5 -51t-157 -150.5t-106.5 -244t-39 -330.5q0 -184 54.5 -268t134.5 -84q76 0 140.5 58t111.5 151.5t73.5 209t26.5 228.5 q0 121 -47 166t-111 45q-35 0 -63.5 -8.5t-52.5 -22.5q-14 -8 -21.5 -12t-17.5 -4q-18 0 -19 22q0 23 30 71t87 87q57 41 107.5 53t101.5 12q117 0 191.5 -78.5t74.5 -242.5q0 -168 -54 -331t-148.5 -292t-219.5 -209t-266 -80q-100 0 -186 31t-148.5 93.5t-98.5 156.5 t-36 219zM575 1602q0 16 11.5 37.5t28 42t33 34t28.5 13.5q33 0 47 -39q29 -86 76 -134.5t92 -74.5q18 -10 24.5 -18.5t6.5 -20.5q0 -10 -9.5 -19.5t-25.5 -9.5q-23 0 -55.5 6t-68.5 19.5t-73 34t-67 47.5q-29 25 -38.5 41t-9.5 41z"/>
<glyph unicode="Ó" horiz-adv-x="1159" d="M0 477q0 233 77 399t193.5 273.5t255 158t258.5 50.5q98 0 142.5 -18.5t44.5 -41.5q0 -20 -27 -20q-12 0 -35.5 2t-62.5 2q-98 0 -187.5 -51t-157 -150.5t-106.5 -244t-39 -330.5q0 -184 54.5 -268t134.5 -84q76 0 140.5 58t111.5 151.5t73.5 209t26.5 228.5 q0 121 -47 166t-111 45q-35 0 -63.5 -8.5t-52.5 -22.5q-14 -8 -21.5 -12t-17.5 -4q-18 0 -19 22q0 23 30 71t87 87q57 41 107.5 53t101.5 12q117 0 191.5 -78.5t74.5 -242.5q0 -168 -54 -331t-148.5 -292t-219.5 -209t-266 -80q-100 0 -186 31t-148.5 93.5t-98.5 156.5 t-36 219zM573 1438q0 12 6.5 20t24.5 19q45 27 92 74.5t76 134.5q14 38 47 38q12 0 28.5 -13t33 -33.5t28 -42t11.5 -38.5q0 -25 -9.5 -41t-38.5 -40q-31 -27 -67.5 -47.5t-72.5 -34t-68.5 -19.5t-55.5 -6q-16 0 -25.5 9t-9.5 20z"/>
<glyph unicode="Ô" horiz-adv-x="1159" d="M0 477q0 233 77 399t193.5 273.5t255 158t258.5 50.5q98 0 142.5 -18.5t44.5 -41.5q0 -20 -27 -20q-12 0 -35.5 2t-62.5 2q-98 0 -187.5 -51t-157 -150.5t-106.5 -244t-39 -330.5q0 -184 54.5 -268t134.5 -84q76 0 140.5 58t111.5 151.5t73.5 209t26.5 228.5 q0 121 -47 166t-111 45q-35 0 -63.5 -8.5t-52.5 -22.5q-14 -8 -21.5 -12t-17.5 -4q-18 0 -19 22q0 23 30 71t87 87q57 41 107.5 53t101.5 12q117 0 191.5 -78.5t74.5 -242.5q0 -168 -54 -331t-148.5 -292t-219.5 -209t-266 -80q-100 0 -186 31t-148.5 93.5t-98.5 156.5 t-36 219zM508 1419q0 25 31 47q25 18 42 31.5t33.5 29t35 35t46.5 50.5q23 27 41.5 46t57.5 19q43 0 54 -20.5t25 -52.5q23 -53 47.5 -81t49.5 -57q16 -16 25.5 -23t9.5 -22q0 -12 -9.5 -21t-25.5 -9t-65.5 21t-133.5 101q-35 -20 -71.5 -41.5t-68.5 -40t-56.5 -29.5 t-34.5 -11q-16 0 -24.5 9t-8.5 19z"/>
<glyph unicode="Õ" horiz-adv-x="1159" d="M0 477q0 233 77 399t193.5 273.5t255 158t258.5 50.5q98 0 142.5 -18.5t44.5 -41.5q0 -20 -27 -20q-12 0 -35.5 2t-62.5 2q-98 0 -187.5 -51t-157 -150.5t-106.5 -244t-39 -330.5q0 -184 54.5 -268t134.5 -84q76 0 140.5 58t111.5 151.5t73.5 209t26.5 228.5 q0 121 -47 166t-111 45q-35 0 -63.5 -8.5t-52.5 -22.5q-14 -8 -21.5 -12t-17.5 -4q-18 0 -19 22q0 23 30 71t87 87q57 41 107.5 53t101.5 12q117 0 191.5 -78.5t74.5 -242.5q0 -168 -54 -331t-148.5 -292t-219.5 -209t-266 -80q-100 0 -186 31t-148.5 93.5t-98.5 156.5 t-36 219zM477 1479q0 10 6 22t15 23q12 18 30.5 37.5t41 36t48 27.5t52.5 11q35 0 63.5 -11t56 -25.5t57.5 -25.5t66 -11q47 0 82 22.5t52 22.5q10 0 18 -5.5t8 -15.5t-4 -19l-8 -18q-35 -47 -78 -88t-102 -41q-35 0 -68 11.5t-63.5 24.5t-62.5 24.5t-66 11.5 q-37 0 -71 -19.5t-48 -19.5q-10 0 -17.5 6t-7.5 19z"/>
<glyph unicode="Ö" horiz-adv-x="1159" d="M0 477q0 233 77 399t193.5 273.5t255 158t258.5 50.5q98 0 142.5 -18.5t44.5 -41.5q0 -20 -27 -20q-12 0 -35.5 2t-62.5 2q-98 0 -187.5 -51t-157 -150.5t-106.5 -244t-39 -330.5q0 -184 54.5 -268t134.5 -84q76 0 140.5 58t111.5 151.5t73.5 209t26.5 228.5 q0 121 -47 166t-111 45q-35 0 -63.5 -8.5t-52.5 -22.5q-14 -8 -21.5 -12t-17.5 -4q-18 0 -19 22q0 23 30 71t87 87q57 41 107.5 53t101.5 12q117 0 191.5 -78.5t74.5 -242.5q0 -168 -54 -331t-148.5 -292t-219.5 -209t-266 -80q-100 0 -186 31t-148.5 93.5t-98.5 156.5 t-36 219zM547 1516q0 25 10 51t28.5 47.5t43 36t53.5 14.5q37 0 59.5 -26.5t22.5 -67.5q0 -25 -10.5 -52.5t-28.5 -49t-44 -36t-56 -14.5q-35 0 -56.5 28t-21.5 69zM829 1516q0 25 10.5 51t29 47.5t43 36t53.5 14.5q37 0 59.5 -26.5t22.5 -67.5q0 -25 -10.5 -52.5t-29 -49 t-44 -36t-56.5 -14.5q-35 0 -56.5 28t-21.5 69z"/>
<glyph unicode="×" horiz-adv-x="716" d="M35 340q0 12 6 18l213 213l-209 211q-8 8 -8 23q0 31 31 61q14 12 29.5 20.5t29.5 8.5q12 0 18 -6l213 -213l211 211q10 10 25 10q27 0 57 -31q14 -14 23.5 -30.5t9.5 -30.5q0 -12 -6 -19l-215 -215l211 -211q10 -10 10 -24q0 -27 -31 -57q-14 -14 -30.5 -23.5 t-30.5 -9.5q-12 0 -19 6l-215 215l-211 -209q-8 -8 -22 -8q-31 0 -62 31q-12 14 -20 29.5t-8 29.5z"/>
<glyph unicode="Ø" horiz-adv-x="1159" d="M0 477q0 233 77 399t193.5 273.5t255 158t258.5 50.5h21.5t21.5 -2l13 30q4 10 16 20.5t29 10.5q55 0 96 -11.5t41 -27.5t-4 -31.5t-14 -41.5l-43 -103q88 -23 142 -99.5t54 -213.5q0 -168 -54 -331t-148.5 -292t-219.5 -209t-266 -80q-16 0 -29.5 1.5t-27.5 3.5 q-2 -4 -5.5 -10.5t-3.5 -10.5q-4 -16 -17 -22.5t-28 -6.5h-65q-27 0 -48.5 5.5t-21.5 27.5q0 10 10 35l11 25q-111 53 -177.5 165.5t-66.5 286.5zM356 506q0 -115 21 -184l299 682q-16 -4 -28.5 -10.5t-24.5 -12.5q-14 -8 -21.5 -12t-17.5 -4q-18 0 -19 22q0 23 30 71t87 87 q39 27 72 41l41 92q-90 -12 -170 -69.5t-139.5 -156t-94.5 -235.5t-35 -311zM496 162q18 -8 49 -8q76 0 140.5 58t111.5 151.5t73.5 209t26.5 228.5q0 57 -11.5 96t-31.5 64z"/>
<glyph unicode="Ù" horiz-adv-x="1613" d="M0 782q0 131 60.5 236.5t155.5 181.5t214 117t238 41q147 0 236 -66.5t89 -201.5q0 -100 -25.5 -202t-57 -201t-57.5 -194.5t-26 -183.5q0 -43 21.5 -68.5t62.5 -25.5q31 0 62 20.5t61.5 56.5t60 83t58.5 100q39 74 70.5 174.5t56.5 202.5t44 193.5t38 146.5 q6 20 30.5 40.5t60.5 37t82 28t97 11.5q39 0 39 -37q0 -16 -23.5 -51t-39.5 -84q-8 -29 -24.5 -91.5t-35 -144.5t-38 -175t-36 -180t-26.5 -160t-10 -116q0 -53 16 -83.5t51 -30.5q27 0 42.5 11t35.5 32q20 20 35 20q14 0 21.5 -9t7.5 -20q0 -16 -8.5 -30.5t-24.5 -34.5 t-41 -44t-57.5 -44.5t-72.5 -33.5t-89 -13q-102 0 -150.5 62.5t-48.5 164.5q0 10 1 40t3 38q-29 -45 -68.5 -100.5t-93 -102.5t-118 -79.5t-142.5 -32.5q-55 0 -101 19t-78 52t-50.5 78t-18.5 98q0 92 35 204t76 231.5t76 239.5t35 228q0 59 -24.5 86t-65.5 27 q-59 0 -115.5 -36t-101 -92t-71 -123.5t-26.5 -129.5q0 -51 24.5 -74.5t57.5 -23.5q20 0 37.5 8t28.5 8q20 0 20 -22q0 -23 -19.5 -58.5t-54 -69.5t-83 -57.5t-103.5 -23.5q-92 0 -153.5 62.5t-61.5 170.5zM956 1493q0 16 11.5 37.5t28 42t33 34t28.5 13.5q33 0 47 -39 q29 -86 76 -134t92 -75q18 -10 24.5 -18t6.5 -21q0 -10 -9.5 -19t-25.5 -9q-23 0 -55.5 6t-68.5 19t-73 33.5t-67 47.5q-29 25 -38.5 41t-9.5 41z"/>
<glyph unicode="Ú" horiz-adv-x="1613" d="M0 782q0 131 60.5 236.5t155.5 181.5t214 117t238 41q147 0 236 -66.5t89 -201.5q0 -100 -25.5 -202t-57 -201t-57.5 -194.5t-26 -183.5q0 -43 21.5 -68.5t62.5 -25.5q31 0 62 20.5t61.5 56.5t60 83t58.5 100q39 74 70.5 174.5t56.5 202.5t44 193.5t38 146.5 q6 20 30.5 40.5t60.5 37t82 28t97 11.5q39 0 39 -37q0 -16 -23.5 -51t-39.5 -84q-8 -29 -24.5 -91.5t-35 -144.5t-38 -175t-36 -180t-26.5 -160t-10 -116q0 -53 16 -83.5t51 -30.5q27 0 42.5 11t35.5 32q20 20 35 20q14 0 21.5 -9t7.5 -20q0 -16 -8.5 -30.5t-24.5 -34.5 t-41 -44t-57.5 -44.5t-72.5 -33.5t-89 -13q-102 0 -150.5 62.5t-48.5 164.5q0 10 1 40t3 38q-29 -45 -68.5 -100.5t-93 -102.5t-118 -79.5t-142.5 -32.5q-55 0 -101 19t-78 52t-50.5 78t-18.5 98q0 92 35 204t76 231.5t76 239.5t35 228q0 59 -24.5 86t-65.5 27 q-59 0 -115.5 -36t-101 -92t-71 -123.5t-26.5 -129.5q0 -51 24.5 -74.5t57.5 -23.5q20 0 37.5 8t28.5 8q20 0 20 -22q0 -23 -19.5 -58.5t-54 -69.5t-83 -57.5t-103.5 -23.5q-92 0 -153.5 62.5t-61.5 170.5zM1069 1272q0 12 6 20t25 19q45 27 92 75t76 134q14 39 47 39 q12 0 28.5 -13.5t33 -34t27.5 -42t11 -37.5q0 -25 -9 -41.5t-38 -40.5q-31 -27 -67.5 -47.5t-72.5 -34t-69 -19.5t-55 -6q-16 0 -25.5 9.5t-9.5 19.5z"/>
<glyph unicode="Û" horiz-adv-x="1613" d="M0 782q0 131 60.5 236.5t155.5 181.5t214 117t238 41q147 0 236 -66.5t89 -201.5q0 -100 -25.5 -202t-57 -201t-57.5 -194.5t-26 -183.5q0 -43 21.5 -68.5t62.5 -25.5q31 0 62 20.5t61.5 56.5t60 83t58.5 100q39 74 70.5 174.5t56.5 202.5t44 193.5t38 146.5 q6 20 30.5 40.5t60.5 37t82 28t97 11.5q39 0 39 -37q0 -16 -23.5 -51t-39.5 -84q-8 -29 -24.5 -91.5t-35 -144.5t-38 -175t-36 -180t-26.5 -160t-10 -116q0 -53 16 -83.5t51 -30.5q27 0 42.5 11t35.5 32q20 20 35 20q14 0 21.5 -9t7.5 -20q0 -16 -8.5 -30.5t-24.5 -34.5 t-41 -44t-57.5 -44.5t-72.5 -33.5t-89 -13q-102 0 -150.5 62.5t-48.5 164.5q0 10 1 40t3 38q-29 -45 -68.5 -100.5t-93 -102.5t-118 -79.5t-142.5 -32.5q-55 0 -101 19t-78 52t-50.5 78t-18.5 98q0 92 35 204t76 231.5t76 239.5t35 228q0 59 -24.5 86t-65.5 27 q-59 0 -115.5 -36t-101 -92t-71 -123.5t-26.5 -129.5q0 -51 24.5 -74.5t57.5 -23.5q20 0 37.5 8t28.5 8q20 0 20 -22q0 -23 -19.5 -58.5t-54 -69.5t-83 -57.5t-103.5 -23.5q-92 0 -153.5 62.5t-61.5 170.5zM940 1354q0 25 31 47q25 18 42 31.5t33.5 29t35 35t46.5 49.5 q23 27 41.5 46.5t57.5 19.5q43 0 54 -20.5t26 -53.5q23 -53 47 -80.5t49 -56.5q16 -16 25.5 -23.5t9.5 -21.5q0 -12 -9.5 -21.5t-25.5 -9.5t-65.5 21.5t-133.5 101.5q-35 -20 -71.5 -42t-68.5 -40t-56.5 -29.5t-34.5 -11.5q-16 0 -24.5 9t-8.5 20z"/>
<glyph unicode="Ü" horiz-adv-x="1613" d="M0 782q0 131 60.5 236.5t155.5 181.5t214 117t238 41q147 0 236 -66.5t89 -201.5q0 -100 -25.5 -202t-57 -201t-57.5 -194.5t-26 -183.5q0 -43 21.5 -68.5t62.5 -25.5q31 0 62 20.5t61.5 56.5t60 83t58.5 100q39 74 70.5 174.5t56.5 202.5t44 193.5t38 146.5 q6 20 30.5 40.5t60.5 37t82 28t97 11.5q39 0 39 -37q0 -16 -23.5 -51t-39.5 -84q-8 -29 -24.5 -91.5t-35 -144.5t-38 -175t-36 -180t-26.5 -160t-10 -116q0 -53 16 -83.5t51 -30.5q27 0 42.5 11t35.5 32q20 20 35 20q14 0 21.5 -9t7.5 -20q0 -16 -8.5 -30.5t-24.5 -34.5 t-41 -44t-57.5 -44.5t-72.5 -33.5t-89 -13q-102 0 -150.5 62.5t-48.5 164.5q0 10 1 40t3 38q-29 -45 -68.5 -100.5t-93 -102.5t-118 -79.5t-142.5 -32.5q-55 0 -101 19t-78 52t-50.5 78t-18.5 98q0 92 35 204t76 231.5t76 239.5t35 228q0 59 -24.5 86t-65.5 27 q-59 0 -115.5 -36t-101 -92t-71 -123.5t-26.5 -129.5q0 -51 24.5 -74.5t57.5 -23.5q20 0 37.5 8t28.5 8q20 0 20 -22q0 -23 -19.5 -58.5t-54 -69.5t-83 -57.5t-103.5 -23.5q-92 0 -153.5 62.5t-61.5 170.5zM973 1423q0 25 10 51.5t28.5 48t43 36t53.5 14.5q37 0 59.5 -26.5 t22.5 -67.5q0 -25 -10.5 -52.5t-28.5 -49t-44 -36t-56 -14.5q-35 0 -56.5 27.5t-21.5 68.5zM1255 1423q0 25 10.5 51.5t29 48t43 36t53.5 14.5q37 0 59.5 -26.5t22.5 -67.5q0 -25 -10.5 -52.5t-29 -49t-44 -36t-56.5 -14.5q-35 0 -56.5 27.5t-21.5 68.5z"/>
<glyph unicode="Ý" horiz-adv-x="1622" d="M0 782q0 131 60.5 236.5t155.5 181.5t214 117t238 41q147 0 230 -65.5t83 -188.5q0 -90 -21.5 -178t-48 -173t-48 -169t-21.5 -166q0 -43 23.5 -71t64.5 -28q29 0 61.5 17.5t64 48.5t59.5 71t50 83q29 61 56.5 146t52 176t46 178t40.5 153q6 20 30.5 40.5t62.5 38t85 28 t98 10.5q39 0 39 -31q0 -16 -15 -40t-36 -73q-18 -43 -41.5 -123.5t-51.5 -187t-56.5 -232.5t-55.5 -260q-43 -211 -93 -399t-129 -330.5t-194.5 -225.5t-289.5 -83q-90 0 -163 24.5t-125 68.5t-81 105.5t-29 135.5q0 78 29 139.5t78 104.5t113.5 65.5t136.5 22.5 q53 0 77.5 -12.5t24.5 -26.5q0 -27 -31 -27q-37 0 -73.5 -32.5t-36.5 -96.5q0 -63 39 -102t110 -39q121 0 217.5 185.5t167.5 529.5q-29 -45 -71.5 -93.5t-96 -88.5t-113 -65.5t-120.5 -25.5q-106 0 -170 66.5t-64 177.5q0 84 28 177t61.5 195.5t61.5 212t28 226.5 q0 45 -24.5 68.5t-65.5 23.5q-59 0 -115.5 -36t-101 -92t-71 -123.5t-26.5 -129.5q0 -51 24.5 -74.5t57.5 -23.5q20 0 37.5 8t28.5 8q20 0 20 -22q0 -23 -19.5 -58.5t-54 -69.5t-83 -57.5t-103.5 -23.5q-92 0 -153.5 62.5t-61.5 170.5zM1073 1350q0 12 6 20t25 19 q45 27 92 74.5t76 133.5q14 39 47 39q12 0 28.5 -13t33 -33.5t27.5 -42t11 -38.5q0 -25 -9 -41t-38 -41q-31 -27 -67.5 -47t-72.5 -33.5t-69 -19.5t-55 -6q-16 0 -25.5 9t-9.5 20z"/>
<glyph unicode="Þ" horiz-adv-x="862" d="M-47 35q0 70 16.5 163t40 195.5t52 209t53 205.5t41 184t16.5 145q0 51 -22.5 75.5t-57.5 24.5q-29 0 -29 25q0 16 18.5 35.5t50.5 36t73 27.5t84 11q80 0 127 -41t47 -119q0 -12 -4 -36.5t-9.5 -51t-10.5 -51t-7 -39.5q37 31 96.5 60.5t137.5 29.5q123 0 175 -64.5 t52 -197.5q0 -84 -27.5 -178t-84 -174t-139.5 -133t-193 -53q-74 0 -117 26.5t-62 48.5q-4 -16 -13 -56t-19.5 -92t-17.5 -107.5t-7 -100.5q0 -27 -10 -35t-33 -8q-47 0 -100.5 -5t-77.5 -5q-18 0 -28.5 9t-10.5 36zM322 526q0 -35 18 -62.5t59 -27.5q55 0 94 47t64 115 t37 141.5t12 126.5q0 106 -82 107q-37 0 -71.5 -32t-61.5 -89q-8 -18 -20.5 -58t-22.5 -87.5t-18 -95.5t-8 -85z"/>
<glyph unicode="ß" horiz-adv-x="825" d="M-43 35q0 70 9 173t31.5 221t60.5 238.5t96 223.5q86 154 190.5 221.5t230.5 67.5q72 0 120 -17.5t77 -47.5t41 -69.5t12 -84.5q0 -59 -23.5 -103.5t-60 -77t-77.5 -55.5t-78 -41t-60.5 -34.5t-23.5 -33.5q0 -35 38 -67.5t84 -72.5t85 -94t39 -132q0 -57 -20.5 -104.5 t-55.5 -82t-81 -54t-97 -19.5t-93.5 17.5t-71 44t-45 57t-16.5 55.5q0 31 29 31q8 0 16.5 -7.5t19.5 -15.5t29.5 -15t49.5 -7q37 0 63.5 38.5t26.5 81.5q0 70 -19.5 112t-44 72.5t-44 61.5t-19.5 80t37 90t82 82t81.5 88t36.5 109q0 47 -51 47q-41 0 -91 -50.5t-85 -132.5 q-49 -115 -80 -218t-49 -199.5t-26.5 -187.5t-12.5 -181q0 -27 -10 -35t-33 -8q-47 0 -100.5 -5t-77.5 -5q-18 0 -28.5 9t-10.5 36z"/>
<glyph unicode="à" d="M-31 229q0 76 23.5 150t75 131t129 93t188.5 36q41 0 68.5 -6t46 -13.5t32 -13.5t25.5 -6t33.5 6t46.5 13.5t48.5 13.5t41.5 6q31 0 31 -31q0 -18 -11.5 -56t-24.5 -87t-24.5 -107.5t-11.5 -117.5q0 -41 20.5 -62.5t49.5 -21.5q27 0 42 11t36 32q20 20 34 20t21.5 -9 t7.5 -20q0 -16 -8.5 -30.5t-24.5 -34.5t-40.5 -44t-57.5 -44.5t-73 -33.5t-89 -13q-47 0 -76.5 16.5t-48.5 36.5q-23 23 -33 55q-35 -33 -73 -55q-35 -20 -82 -36.5t-103 -16.5q-92 0 -155.5 60.5t-63.5 178.5zM190 883q0 16 11.5 37.5t28 42t33 34t28.5 13.5q33 0 47 -39 q29 -86 76 -134.5t92 -74.5q18 -10 24.5 -18.5t6.5 -20.5q0 -10 -9.5 -19.5t-25.5 -9.5q-23 0 -55.5 6.5t-68.5 19.5t-73 33.5t-67 47.5q-29 25 -38.5 41t-9.5 41zM236 221q0 -41 17 -68.5t52 -27.5q29 0 57.5 24.5t49.5 71.5q8 20 18 53t17.5 71t12.5 75.5t5 68.5 q0 59 -62 60q-43 0 -74.5 -36t-52 -86t-30.5 -106.5t-10 -99.5z"/>
<glyph unicode="á" d="M-31 229q0 76 23.5 150t75 131t129 93t188.5 36q41 0 68.5 -6t46 -13.5t32 -13.5t25.5 -6t33.5 6t46.5 13.5t48.5 13.5t41.5 6q31 0 31 -31q0 -18 -11.5 -56t-24.5 -87t-24.5 -107.5t-11.5 -117.5q0 -41 20.5 -62.5t49.5 -21.5q27 0 42 11t36 32q20 20 34 20t21.5 -9 t7.5 -20q0 -16 -8.5 -30.5t-24.5 -34.5t-40.5 -44t-57.5 -44.5t-73 -33.5t-89 -13q-47 0 -76.5 16.5t-48.5 36.5q-23 23 -33 55q-35 -33 -73 -55q-35 -20 -82 -36.5t-103 -16.5q-92 0 -155.5 60.5t-63.5 178.5zM236 221q0 -41 17 -68.5t52 -27.5q29 0 57.5 24.5t49.5 71.5 q8 20 18 53t17.5 71t12.5 75.5t5 68.5q0 59 -62 60q-43 0 -74.5 -36t-52 -86t-30.5 -106.5t-10 -99.5zM301 719q0 12 6 20.5t25 18.5q45 27 92 75t76 134q14 39 47 39q12 0 28.5 -13.5t33 -34t27.5 -42t11 -37.5q0 -25 -9 -41.5t-38 -40.5q-31 -27 -67.5 -47.5t-72.5 -34 t-69 -19.5t-55 -6q-16 0 -25.5 9.5t-9.5 19.5z"/>
<glyph unicode="â" d="M-31 229q0 76 23.5 150t75 131t129 93t188.5 36q41 0 68.5 -6t46 -13.5t32 -13.5t25.5 -6t33.5 6t46.5 13.5t48.5 13.5t41.5 6q31 0 31 -31q0 -18 -11.5 -56t-24.5 -87t-24.5 -107.5t-11.5 -117.5q0 -41 20.5 -62.5t49.5 -21.5q27 0 42 11t36 32q20 20 34 20t21.5 -9 t7.5 -20q0 -16 -8.5 -30.5t-24.5 -34.5t-40.5 -44t-57.5 -44.5t-73 -33.5t-89 -13q-47 0 -76.5 16.5t-48.5 36.5q-23 23 -33 55q-35 -33 -73 -55q-35 -20 -82 -36.5t-103 -16.5q-92 0 -155.5 60.5t-63.5 178.5zM184 717q0 25 31 47q25 18 42 31.5t33.5 29t35 35t47.5 49.5 q23 27 41 46.5t57 19.5q43 0 54.5 -20.5t25.5 -53.5q23 -53 47.5 -80.5t48.5 -56.5q16 -16 25.5 -23.5t9.5 -21.5q0 -12 -9 -21.5t-26 -9.5q-16 0 -65 21.5t-133 101.5q-35 -20 -72 -41.5t-69 -40t-56.5 -30t-34.5 -11.5q-16 0 -24.5 9.5t-8.5 19.5zM236 221q0 -41 17 -68.5 t52 -27.5q29 0 57.5 24.5t49.5 71.5q8 20 18 53t17.5 71t12.5 75.5t5 68.5q0 59 -62 60q-43 0 -74.5 -36t-52 -86t-30.5 -106.5t-10 -99.5z"/>
<glyph unicode="ã" d="M-31 229q0 76 23.5 150t75 131t129 93t188.5 36q41 0 68.5 -6t46 -13.5t32 -13.5t25.5 -6t33.5 6t46.5 13.5t48.5 13.5t41.5 6q31 0 31 -31q0 -18 -11.5 -56t-24.5 -87t-24.5 -107.5t-11.5 -117.5q0 -41 20.5 -62.5t49.5 -21.5q27 0 42 11t36 32q20 20 34 20t21.5 -9 t7.5 -20q0 -16 -8.5 -30.5t-24.5 -34.5t-40.5 -44t-57.5 -44.5t-73 -33.5t-89 -13q-47 0 -76.5 16.5t-48.5 36.5q-23 23 -33 55q-35 -33 -73 -55q-35 -20 -82 -36.5t-103 -16.5q-92 0 -155.5 60.5t-63.5 178.5zM176 743q0 10 6 22.5t15 22.5q12 18 30.5 38t41 36.5t48 27.5 t52.5 11q35 0 63.5 -11t56 -25.5t57 -26t66.5 -11.5q47 0 82 22.5t51 22.5q10 0 18.5 -5t8.5 -15t-4 -19.5t-8 -17.5q-35 -47 -78 -88t-102 -41q-35 0 -68 11.5t-63.5 24.5t-62.5 24.5t-67 11.5q-37 0 -70.5 -19.5t-47.5 -19.5q-10 0 -17.5 6t-7.5 18zM236 221 q0 -41 17 -68.5t52 -27.5q29 0 57.5 24.5t49.5 71.5q8 20 18 53t17.5 71t12.5 75.5t5 68.5q0 59 -62 60q-43 0 -74.5 -36t-52 -86t-30.5 -106.5t-10 -99.5z"/>
<glyph unicode="ä" d="M-31 229q0 76 23.5 150t75 131t129 93t188.5 36q41 0 68.5 -6t46 -13.5t32 -13.5t25.5 -6t33.5 6t46.5 13.5t48.5 13.5t41.5 6q31 0 31 -31q0 -18 -11.5 -56t-24.5 -87t-24.5 -107.5t-11.5 -117.5q0 -41 20.5 -62.5t49.5 -21.5q27 0 42 11t36 32q20 20 34 20t21.5 -9 t7.5 -20q0 -16 -8.5 -30.5t-24.5 -34.5t-40.5 -44t-57.5 -44.5t-73 -33.5t-89 -13q-47 0 -76.5 16.5t-48.5 36.5q-23 23 -33 55q-35 -33 -73 -55q-35 -20 -82 -36.5t-103 -16.5q-92 0 -155.5 60.5t-63.5 178.5zM182 788q0 25 10.5 51.5t29 48t43 36t52.5 14.5 q37 0 59.5 -26.5t22.5 -67.5q0 -25 -10 -52.5t-28.5 -49t-44 -36t-56.5 -14.5q-35 0 -56.5 27.5t-21.5 68.5zM236 221q0 -41 17 -68.5t52 -27.5q29 0 57.5 24.5t49.5 71.5q8 20 18 53t17.5 71t12.5 75.5t5 68.5q0 59 -62 60q-43 0 -74.5 -36t-52 -86t-30.5 -106.5t-10 -99.5 zM465 788q0 25 10 51.5t28.5 48t43 36t53.5 14.5q37 0 59.5 -26.5t22.5 -67.5q0 -25 -10 -52.5t-28.5 -49t-44.5 -36t-56 -14.5q-35 0 -56.5 27.5t-21.5 68.5z"/>
<glyph unicode="å" d="M-31 229q0 76 23.5 150t75 131t129 93t188.5 36q41 0 68.5 -6t46 -13.5t32 -13.5t25.5 -6t33.5 6t46.5 13.5t48.5 13.5t41.5 6q31 0 31 -31q0 -18 -11.5 -56t-24.5 -87t-24.5 -107.5t-11.5 -117.5q0 -41 20.5 -62.5t49.5 -21.5q27 0 42 11t36 32q20 20 34 20t21.5 -9 t7.5 -20q0 -16 -8.5 -30.5t-24.5 -34.5t-40.5 -44t-57.5 -44.5t-73 -33.5t-89 -13q-47 0 -76.5 16.5t-48.5 36.5q-23 23 -33 55q-35 -33 -73 -55q-35 -20 -82 -36.5t-103 -16.5q-92 0 -155.5 60.5t-63.5 178.5zM229 883q0 86 58.5 144t144.5 58t144.5 -58t58.5 -144 t-58.5 -144.5t-144.5 -58.5t-144.5 58.5t-58.5 144.5zM236 221q0 -41 17 -68.5t52 -27.5q29 0 57.5 24.5t49.5 71.5q8 20 18 53t17.5 71t12.5 75.5t5 68.5q0 59 -62 60q-43 0 -74.5 -36t-52 -86t-30.5 -106.5t-10 -99.5zM346 883q0 -35 25.5 -60.5t60.5 -25.5t58.5 25.5 t23.5 60.5t-23.5 58.5t-58.5 23.5t-60.5 -23.5t-25.5 -58.5z"/>
<glyph unicode="æ" horiz-adv-x="1136" d="M-27 229q0 76 23.5 150t75 131t129.5 93t188 36q82 0 125 -28.5t66 -57.5q53 43 111.5 66.5t150.5 23.5q104 0 153 -42t49 -107q0 -43 -24.5 -85t-69.5 -76t-108.5 -56.5t-139.5 -28.5q0 -53 46.5 -90t119.5 -37q43 0 78 11t63.5 26.5t50 34t38.5 32.5q29 25 43 25 q12 0 18 -7t6 -18q0 -16 -9 -30.5t-32 -38.5q-25 -27 -58.5 -57.5t-79.5 -56.5t-105.5 -42t-137.5 -16q-96 0 -155.5 44t-100.5 107q-57 -61 -126.5 -103t-167.5 -42q-92 0 -156 60.5t-64 178.5zM240 227q0 -41 17 -68.5t52 -27.5q29 0 56.5 25.5t50.5 70.5q12 23 26.5 55.5 t26.5 66.5t20.5 67t8.5 55q0 45 -29 64.5t-61 19.5q-43 0 -75 -36t-52.5 -86t-30.5 -106.5t-10 -99.5zM702 334q43 8 79 29.5t61.5 47t39 52t13.5 45.5q0 47 -49 47q-23 0 -48.5 -17.5t-47 -48t-35 -70.5t-13.5 -85z"/>
<glyph unicode="ç" horiz-adv-x="673" d="M-31 256q0 80 30 150.5t85 123t135 83t178 30.5q117 0 165 -42t48 -101q0 -63 -34.5 -97t-86.5 -34q-35 0 -58 18.5t-23 48.5q0 35 15 52.5t17 35.5q0 27 -37 27q-23 0 -48 -19.5t-47.5 -53.5t-37 -80t-14.5 -101q0 -92 49 -134t115 -42q68 0 123 36t92 68q29 25 43 25 q12 0 18 -7t6 -18q0 -16 -10 -30.5t-33 -38.5q-25 -25 -56.5 -54.5t-73.5 -54t-94 -43t-118 -20.5q2 -18 8.5 -39t22.5 -21q23 0 46.5 3t39.5 3q25 0 36 -15t11 -40q0 -35 -17.5 -76t-51 -75.5t-87 -59t-122.5 -24.5q-53 0 -88 22.5t-35 61.5q0 25 18.5 46t42.5 21 q18 0 28.5 -8t21 -17.5t23.5 -17.5t40 -8q31 0 56.5 10t44 24.5t28.5 31t10 26.5q-29 -8 -74 -15t-73 -7q-23 0 -34 13t-11 27t2 34t5 40.5t7 38t6 27.5q-113 16 -182.5 84.5t-69.5 181.5z"/>
<glyph unicode="è" horiz-adv-x="675" d="M-31 266q0 74 30 142.5t85 121t135 83t182 30.5q104 0 153.5 -42t49.5 -107q0 -43 -24.5 -85t-69.5 -76t-108.5 -56.5t-139.5 -28.5q0 -53 40 -90t114 -37q39 0 71.5 11t60 27.5t50.5 34t39 31.5q29 25 43 25q12 0 18.5 -7t6.5 -18q0 -16 -9.5 -30.5t-31.5 -38.5 q-25 -27 -58 -57.5t-77 -56.5t-101 -42t-131 -16q-145 0 -236.5 67.5t-91.5 214.5zM164 879q0 16 11 37.5t27.5 42t33 34t28.5 13.5q33 0 47 -39q29 -86 76 -134.5t92 -74.5q18 -10 24.5 -18.5t6.5 -20.5q0 -10 -9 -19.5t-26 -9.5q-23 0 -55.5 6t-68.5 19.5t-72.5 34 t-67.5 47.5q-29 25 -38 41t-9 41zM262 334q43 8 79 29.5t61.5 47t39 52t13.5 45.5q0 47 -49 47q-23 0 -48.5 -17.5t-47 -48t-35 -70.5t-13.5 -85z"/>
<glyph unicode="é" horiz-adv-x="675" d="M-31 266q0 74 30 142.5t85 121t135 83t182 30.5q104 0 153.5 -42t49.5 -107q0 -43 -24.5 -85t-69.5 -76t-108.5 -56.5t-139.5 -28.5q0 -53 40 -90t114 -37q39 0 71.5 11t60 27.5t50.5 34t39 31.5q29 25 43 25q12 0 18.5 -7t6.5 -18q0 -16 -9.5 -30.5t-31.5 -38.5 q-25 -27 -58 -57.5t-77 -56.5t-101 -42t-131 -16q-145 0 -236.5 67.5t-91.5 214.5zM256 719q0 12 6 20.5t25 18.5q45 27 92 75t76 134q14 39 47 39q12 0 28.5 -13.5t33 -34t27.5 -42t11 -37.5q0 -25 -9 -41.5t-38 -40.5q-31 -27 -67.5 -47.5t-72.5 -34t-69 -19.5t-55 -6 q-16 0 -25.5 9.5t-9.5 19.5zM262 334q43 8 79 29.5t61.5 47t39 52t13.5 45.5q0 47 -49 47q-23 0 -48.5 -17.5t-47 -48t-35 -70.5t-13.5 -85z"/>
<glyph unicode="ê" horiz-adv-x="675" d="M-31 266q0 74 30 142.5t85 121t135 83t182 30.5q104 0 153.5 -42t49.5 -107q0 -43 -24.5 -85t-69.5 -76t-108.5 -56.5t-139.5 -28.5q0 -53 40 -90t114 -37q39 0 71.5 11t60 27.5t50.5 34t39 31.5q29 25 43 25q12 0 18.5 -7t6.5 -18q0 -16 -9.5 -30.5t-31.5 -38.5 q-25 -27 -58 -57.5t-77 -56.5t-101 -42t-131 -16q-145 0 -236.5 67.5t-91.5 214.5zM121 700q0 25 31 48q25 18 42 31.5t33.5 28.5t35 34.5t46.5 50.5q23 27 41.5 46t57.5 19q43 0 54 -20t25 -53q23 -53 47.5 -81t49.5 -56q16 -16 25 -23.5t9 -22.5q0 -12 -9 -21t-25 -9 t-65.5 21.5t-133.5 101.5q-35 -20 -72 -42t-68.5 -40.5t-56 -29.5t-34.5 -11q-16 0 -24.5 9t-8.5 19zM262 334q43 8 79 29.5t61.5 47t39 52t13.5 45.5q0 47 -49 47q-23 0 -48.5 -17.5t-47 -48t-35 -70.5t-13.5 -85z"/>
<glyph unicode="ë" horiz-adv-x="675" d="M-31 266q0 74 30 142.5t85 121t135 83t182 30.5q104 0 153.5 -42t49.5 -107q0 -43 -24.5 -85t-69.5 -76t-108.5 -56.5t-139.5 -28.5q0 -53 40 -90t114 -37q39 0 71.5 11t60 27.5t50.5 34t39 31.5q29 25 43 25q12 0 18.5 -7t6.5 -18q0 -16 -9.5 -30.5t-31.5 -38.5 q-25 -27 -58 -57.5t-77 -56.5t-101 -42t-131 -16q-145 0 -236.5 67.5t-91.5 214.5zM150 784q0 25 10 51.5t28.5 48t43 36t53.5 14.5q37 0 59.5 -26.5t22.5 -67.5q0 -25 -10.5 -52.5t-29 -49t-44 -36t-56.5 -14.5q-35 0 -56 27.5t-21 68.5zM262 334q43 8 79 29.5t61.5 47 t39 52t13.5 45.5q0 47 -49 47q-23 0 -48.5 -17.5t-47 -48t-35 -70.5t-13.5 -85zM432 784q0 25 10.5 51.5t28.5 48t43 36t53 14.5q37 0 59.5 -26.5t22.5 -67.5q0 -25 -10 -52.5t-28.5 -49t-44 -36t-56.5 -14.5q-35 0 -56.5 27.5t-21.5 68.5z"/>
<glyph unicode="ì" horiz-adv-x="434" d="M-31 160q0 49 10.5 97t23.5 93t23.5 82t10.5 66q0 27 -6 36t-6 29q0 16 18 30.5t50 25t73 15.5t86 5q70 0 70 -53q0 -31 -10.5 -70t-23 -84t-22.5 -93t-10 -99q0 -41 19.5 -62.5t48.5 -21.5q27 0 42 11t35 32q20 20 35 20q14 0 21.5 -9t7.5 -20q0 -16 -8 -30.5t-25 -34.5 q-16 -20 -40.5 -44t-57.5 -44.5t-73 -33.5t-89 -13q-102 0 -152.5 49t-50.5 121zM43 879q0 16 11.5 37.5t27.5 42t32.5 34t28.5 13.5q33 0 47 -39q29 -86 76 -134.5t92 -74.5q18 -10 24.5 -18.5t6.5 -20.5q0 -10 -9 -19.5t-26 -9.5q-23 0 -55.5 6t-68 19.5t-72.5 34 t-68 47.5q-29 25 -38 41t-9 41z"/>
<glyph unicode="í" horiz-adv-x="434" d="M-31 160q0 49 10.5 97t23.5 93t23.5 82t10.5 66q0 27 -6 36t-6 29q0 16 18 30.5t50 25t73 15.5t86 5q70 0 70 -53q0 -31 -10.5 -70t-23 -84t-22.5 -93t-10 -99q0 -41 19.5 -62.5t48.5 -21.5q27 0 42 11t35 32q20 20 35 20q14 0 21.5 -9t7.5 -20q0 -16 -8 -30.5t-25 -34.5 q-16 -20 -40.5 -44t-57.5 -44.5t-73 -33.5t-89 -13q-102 0 -152.5 49t-50.5 121zM43 719q0 12 6 20.5t25 18.5q45 27 92 75t76 134q14 39 47 39q12 0 28.5 -13.5t33 -34t27.5 -42t11 -37.5q0 -25 -9 -41.5t-38 -40.5q-31 -27 -67.5 -47.5t-72.5 -34t-69 -19.5t-55 -6 q-16 0 -25.5 9.5t-9.5 19.5z"/>
<glyph unicode="î" horiz-adv-x="434" d="M-31 160q0 49 10.5 97t23.5 93t23.5 82t10.5 66q0 27 -6 36t-6 29q0 16 18 30.5t50 25t73 15.5t86 5q70 0 70 -53q0 -31 -10.5 -70t-23 -84t-22.5 -93t-10 -99q0 -41 19.5 -62.5t48.5 -21.5q27 0 42 11t35 32q20 20 35 20q14 0 21.5 -9t7.5 -20q0 -16 -8 -30.5t-25 -34.5 q-16 -20 -40.5 -44t-57.5 -44.5t-73 -33.5t-89 -13q-102 0 -152.5 49t-50.5 121zM-31 717q0 25 31 47q25 18 42 31.5t33.5 29t35 35t47.5 49.5q23 27 41 46.5t57 19.5q43 0 54.5 -20.5t25.5 -53.5q23 -53 47.5 -80.5t48.5 -56.5q16 -16 25.5 -23.5t9.5 -21.5q0 -12 -9 -21.5 t-26 -9.5q-16 0 -65.5 21.5t-133.5 101.5q-35 -20 -71.5 -41.5t-68.5 -40t-56.5 -30t-34.5 -11.5q-16 0 -24.5 9.5t-8.5 19.5z"/>
<glyph unicode="ï" horiz-adv-x="434" d="M-33 829q0 25 10.5 51.5t29 48t43 36t52.5 14.5q37 0 59.5 -26.5t22.5 -67.5q0 -25 -10 -52.5t-28.5 -49t-44 -36t-56.5 -14.5q-35 0 -56.5 27.5t-21.5 68.5zM-31 160q0 49 10.5 97t23.5 93t23.5 82t10.5 66q0 27 -6 36t-6 29q0 16 18 30.5t50 25t73 15.5t86 5 q70 0 70 -53q0 -31 -10.5 -70t-23 -84t-22.5 -93t-10 -99q0 -41 19.5 -62.5t48.5 -21.5q27 0 42 11t35 32q20 20 35 20q14 0 21.5 -9t7.5 -20q0 -16 -8 -30.5t-25 -34.5q-16 -20 -40.5 -44t-57.5 -44.5t-73 -33.5t-89 -13q-102 0 -152.5 49t-50.5 121zM250 829q0 25 10 51.5 t28.5 48t43 36t53.5 14.5q37 0 59.5 -26.5t22.5 -67.5q0 -25 -10.5 -52.5t-28.5 -49t-44 -36t-56 -14.5q-35 0 -56.5 27.5t-21.5 68.5z"/>
<glyph unicode="ð" horiz-adv-x="729" d="M-27 250q0 63 21.5 124.5t63.5 114t102.5 91t140.5 55.5q-37 27 -63 53q-39 -25 -61.5 -38t-34 -20t-15.5 -8t-6 -1q-23 0 -34 29.5t-11 49.5q0 27 14 35l74 47q-10 23 -17.5 46.5t-7.5 50.5q0 35 20.5 72.5t48.5 69.5t55.5 52.5t41.5 20.5q25 0 25 -29q0 -84 28 -160 q51 33 81 51.5t45.5 27.5t19.5 11t8 2q10 0 20 -16q6 -10 11.5 -27.5t5.5 -35.5q0 -12 -3 -23.5t-14 -17.5l-116 -74q29 -45 68.5 -91t88.5 -96q35 -35 65 -93t30 -115q0 -86 -27 -164t-78 -136.5t-124.5 -92t-168.5 -33.5q-135 0 -216 72.5t-81 195.5zM248 283 q0 -70 30.5 -111t83.5 -41q37 0 68 23.5t51.5 63.5t31.5 94.5t11 115.5q0 55 -27.5 86t-68.5 31q-37 0 -69.5 -21.5t-57.5 -57.5t-39 -84t-14 -99z"/>
<glyph unicode="ñ" horiz-adv-x="868" d="M-41 35q0 29 13.5 89t29.5 129t29.5 136.5t13.5 108.5q0 27 -7 36t-7 29q0 16 19.5 30.5t51 25t72.5 15.5t86 5q70 0 70 -53q0 -12 -2 -28.5t-6 -31.5q-4 -16 -9 -32q14 16 42 40.5t66 48t82 40t89 16.5q86 0 122 -35t36 -94q0 -35 -9.5 -72t-19.5 -72.5t-19.5 -70.5 t-9.5 -66q0 -41 18.5 -57t47.5 -16q27 0 42 11t36 32q20 20 34 20t21.5 -9t7.5 -20q0 -16 -8 -30.5t-25 -34.5q-16 -20 -40.5 -44t-57.5 -44.5t-73 -33.5t-89 -13q-88 0 -138 46t-50 111q0 47 10 86t22.5 74t22.5 65.5t10 61.5q0 25 -12 41.5t-35 16.5q-27 0 -60.5 -29 t-68.5 -96q-12 -27 -27.5 -69t-28.5 -89t-22.5 -91t-9.5 -75q0 -27 -11 -35t-34 -8q-47 0 -98 -5t-74 -5q-20 0 -31.5 9t-11.5 36zM123 739q0 10 6 22.5t14 22.5q12 18 31 38t41.5 36t48 27.5t51.5 11.5q35 0 64 -11.5t56.5 -25.5t57 -25.5t66.5 -11.5q47 0 82 22.5t51 22.5 q10 0 18.5 -5t8.5 -15t-4 -19.5t-8 -17.5q-35 -47 -78.5 -88t-102.5 -41q-35 0 -67.5 11.5t-63 24.5t-62.5 24.5t-67 11.5q-37 0 -70.5 -19.5t-48.5 -19.5q-10 0 -17 6t-7 18z"/>
<glyph unicode="ò" horiz-adv-x="724" d="M-31 250q0 74 29 145.5t85 128t138.5 90t186.5 33.5q115 0 185.5 -66.5t70.5 -172.5q0 -86 -27 -164t-78 -136.5t-125 -92t-168 -33.5q-135 0 -216 72.5t-81 195.5zM188 879q0 16 11.5 37.5t28 42t33 34t28.5 13.5q33 0 47 -39q29 -86 76 -134.5t92 -74.5 q18 -10 24.5 -18.5t6.5 -20.5q0 -10 -9.5 -19.5t-25.5 -9.5q-23 0 -55.5 6t-68.5 19.5t-73 34t-67 47.5q-29 25 -38.5 41t-9.5 41zM244 283q0 -70 36.5 -111t96.5 -41q31 0 55.5 14.5t43 37t27.5 50t9 54.5t-9 47t-32 31q-47 18 -64.5 36.5t-17.5 47.5q0 39 15.5 54t15.5 25 q0 16 -19 17q-6 0 -20 -6.5t-37 -22.5q-39 -31 -69.5 -88t-30.5 -145z"/>
<glyph unicode="ó" horiz-adv-x="724" d="M-31 250q0 74 29 145.5t85 128t138.5 90t186.5 33.5q115 0 185.5 -66.5t70.5 -172.5q0 -86 -27 -164t-78 -136.5t-125 -92t-168 -33.5q-135 0 -216 72.5t-81 195.5zM244 283q0 -70 36.5 -111t96.5 -41q31 0 55.5 14.5t43 37t27.5 50t9 54.5t-9 47t-32 31 q-47 18 -64.5 36.5t-17.5 47.5q0 39 15.5 54t15.5 25q0 16 -19 17q-6 0 -20 -6.5t-37 -22.5q-39 -31 -69.5 -88t-30.5 -145zM244 715q0 12 6 20t24 19q45 27 92.5 75t75.5 134q14 38 47 38q12 0 29 -13t33 -33.5t27.5 -42t11.5 -38.5q0 -25 -9.5 -41t-37.5 -40 q-31 -27 -68 -47.5t-72.5 -34t-68.5 -19.5t-55 -6q-16 0 -25.5 9.5t-9.5 19.5z"/>
<glyph unicode="ô" horiz-adv-x="724" d="M-31 250q0 74 29 145.5t85 128t138.5 90t186.5 33.5q115 0 185.5 -66.5t70.5 -172.5q0 -86 -27 -164t-78 -136.5t-125 -92t-168 -33.5q-135 0 -216 72.5t-81 195.5zM150 705q0 25 30 47q25 18 42.5 31.5t33.5 28.5t34.5 34.5t47.5 50.5q23 27 41 46.5t57 19.5 q43 0 54.5 -20.5t25.5 -53.5q23 -53 47.5 -81t48.5 -56q16 -16 25.5 -23.5t9.5 -21.5q0 -12 -9 -21.5t-26 -9.5q-16 0 -65 21.5t-133 101.5q-35 -20 -72 -42t-68.5 -40.5t-56 -29.5t-35.5 -11q-16 0 -24 9t-8 20zM244 283q0 -70 36.5 -111t96.5 -41q31 0 55.5 14.5t43 37 t27.5 50t9 54.5t-9 47t-32 31q-47 18 -64.5 36.5t-17.5 47.5q0 39 15.5 54t15.5 25q0 16 -19 17q-6 0 -20 -6.5t-37 -22.5q-39 -31 -69.5 -88t-30.5 -145z"/>
<glyph unicode="õ" horiz-adv-x="724" d="M-31 250q0 74 29 145.5t85 128t138.5 90t186.5 33.5q115 0 185.5 -66.5t70.5 -172.5q0 -86 -27 -164t-78 -136.5t-125 -92t-168 -33.5q-135 0 -216 72.5t-81 195.5zM100 752q0 10 6.5 22t14.5 23q12 18 30.5 37.5t41 36t48 27.5t52.5 11q35 0 63.5 -11t56 -25.5 t57.5 -25.5t67 -11q47 0 81.5 22.5t51.5 22.5q10 0 18 -5.5t8 -15.5t-4 -19.5t-8 -17.5q-35 -47 -78 -88t-102 -41q-35 0 -68 11.5t-63.5 24.5t-62 24.5t-66.5 11.5q-37 0 -71 -19.5t-48 -19.5q-10 0 -17.5 6t-7.5 19zM244 283q0 -70 36.5 -111t96.5 -41q31 0 55.5 14.5 t43 37t27.5 50t9 54.5t-9 47t-32 31q-47 18 -64.5 36.5t-17.5 47.5q0 39 15.5 54t15.5 25q0 16 -19 17q-6 0 -20 -6.5t-37 -22.5q-39 -31 -69.5 -88t-30.5 -145z"/>
<glyph unicode="ö" horiz-adv-x="724" d="M-31 250q0 74 29 145.5t85 128t138.5 90t186.5 33.5q115 0 185.5 -66.5t70.5 -172.5q0 -86 -27 -164t-78 -136.5t-125 -92t-168 -33.5q-135 0 -216 72.5t-81 195.5zM156 797q0 25 10 51t28.5 48t43 36t53.5 14q37 0 59.5 -26.5t22.5 -67.5q0 -25 -10.5 -52.5t-29 -49 t-44 -36t-56.5 -14.5q-35 0 -56 28t-21 69zM244 283q0 -70 36.5 -111t96.5 -41q31 0 55.5 14.5t43 37t27.5 50t9 54.5t-9 47t-32 31q-47 18 -64.5 36.5t-17.5 47.5q0 39 15.5 54t15.5 25q0 16 -19 17q-6 0 -20 -6.5t-37 -22.5q-39 -31 -69.5 -88t-30.5 -145zM438 797 q0 25 10.5 51t29 48t43 36t52.5 14q37 0 59.5 -26.5t22.5 -67.5q0 -25 -10 -52.5t-28.5 -49t-44 -36t-56.5 -14.5q-35 0 -56.5 28t-21.5 69z"/>
<glyph unicode="÷" horiz-adv-x="931" d="M43 530q0 10 5 30t14.5 38t21.5 32.5t25 14.5h747q23 0 30 -6t7 -23q0 -10 -6 -29.5t-16.5 -40t-23.5 -34.5t-26 -14h-747q-31 0 -31 32zM342 283q0 25 10 51t28.5 47.5t43.5 36t53 14.5q37 0 59.5 -26.5t22.5 -67.5q0 -25 -10 -52.5t-28.5 -49t-44 -36t-56.5 -14.5 q-35 0 -56.5 28t-21.5 69zM387 803q0 25 10.5 51.5t28.5 48t43 35.5t53 14q37 0 59.5 -26.5t22.5 -67.5q0 -25 -10 -52.5t-28.5 -49t-44 -35.5t-56.5 -14q-35 0 -56.5 27.5t-21.5 68.5z"/>
<glyph unicode="ø" horiz-adv-x="724" d="M-31 250q0 74 29 145.5t85 128t138 90t187 33.5q4 0 9 -1t11 -1q4 12 9 24.5t12 24.5q4 10 16 20.5t29 10.5q55 0 96 -11.5t41 -27.5t-4 -31.5t-15 -42.5l-16 -37q68 -63 68 -167q0 -78 -21.5 -149t-62.5 -126t-101.5 -94t-136.5 -51l-6 -13q-4 -16 -17.5 -22t-27.5 -6 h-66q-27 0 -48 5t-21 28q0 10 2 16q-88 25 -138.5 90.5t-50.5 163.5zM244 283q0 -39 8 -64q29 72 63.5 153t69.5 169q-18 -6 -41 -25q-39 -31 -69.5 -88t-30.5 -145zM408 135q47 12 75.5 58.5t28.5 93.5q0 33 -14 55z"/>
<glyph unicode="ù" horiz-adv-x="880" d="M-31 147q0 47 11.5 97.5t23.5 97.5t23.5 87t11.5 69q0 27 -7 36t-7 29q0 16 19 30.5t51 25t73 15.5t86 5q70 0 70 -53q0 -35 -12.5 -78t-26 -92t-25.5 -102.5t-12 -108.5q0 -23 13 -37t36 -14q35 0 68.5 23.5t54.5 60.5q35 59 53.5 130.5t18.5 129.5q0 27 -7.5 36 t-7.5 29q0 16 19.5 30.5t51.5 25t73 15.5t86 5q70 0 69 -53q0 -31 -11 -73t-24.5 -89t-24.5 -95t-11 -89t18 -62.5t47 -21.5q27 0 42 11t36 32q20 20 35 20q14 0 21 -9t7 -20q0 -16 -8 -30.5t-24 -34.5t-41 -44t-56.5 -44.5t-71.5 -33.5t-89 -13q-61 0 -97.5 19.5 t-54.5 41.5q-23 27 -29 64q-39 -37 -86 -64q-41 -23 -97 -42t-126 -19q-78 0 -120 47t-42 110zM172 874q0 16 11.5 38t27.5 42.5t32.5 33.5t28.5 13q33 0 47 -38q29 -86 76 -134.5t92 -74.5q18 -10 24.5 -18.5t6.5 -20.5q0 -10 -9 -19.5t-26 -9.5q-23 0 -55.5 6t-68 19.5 t-72.5 34t-68 47.5q-29 25 -38 41t-9 40z"/>
<glyph unicode="ú" horiz-adv-x="880" d="M-31 147q0 47 11.5 97.5t23.5 97.5t23.5 87t11.5 69q0 27 -7 36t-7 29q0 16 19 30.5t51 25t73 15.5t86 5q70 0 70 -53q0 -35 -12.5 -78t-26 -92t-25.5 -102.5t-12 -108.5q0 -23 13 -37t36 -14q35 0 68.5 23.5t54.5 60.5q35 59 53.5 130.5t18.5 129.5q0 27 -7.5 36 t-7.5 29q0 16 19.5 30.5t51.5 25t73 15.5t86 5q70 0 69 -53q0 -31 -11 -73t-24.5 -89t-24.5 -95t-11 -89t18 -62.5t47 -21.5q27 0 42 11t36 32q20 20 35 20q14 0 21 -9t7 -20q0 -16 -8 -30.5t-24 -34.5t-41 -44t-56.5 -44.5t-71.5 -33.5t-89 -13q-61 0 -97.5 19.5 t-54.5 41.5q-23 27 -29 64q-39 -37 -86 -64q-41 -23 -97 -42t-126 -19q-78 0 -120 47t-42 110zM344 711q0 12 6 20t25 19q45 27 92 74.5t76 133.5q14 39 47 39q12 0 28.5 -13t33 -33.5t27.5 -42t11 -38.5q0 -25 -9 -41t-38 -41q-31 -27 -67.5 -47t-72.5 -33.5t-69 -19.5 t-55 -6q-16 0 -25.5 9t-9.5 20z"/>
<glyph unicode="û" horiz-adv-x="880" d="M-31 147q0 47 11.5 97.5t23.5 97.5t23.5 87t11.5 69q0 27 -7 36t-7 29q0 16 19 30.5t51 25t73 15.5t86 5q70 0 70 -53q0 -35 -12.5 -78t-26 -92t-25.5 -102.5t-12 -108.5q0 -23 13 -37t36 -14q35 0 68.5 23.5t54.5 60.5q35 59 53.5 130.5t18.5 129.5q0 27 -7.5 36 t-7.5 29q0 16 19.5 30.5t51.5 25t73 15.5t86 5q70 0 69 -53q0 -31 -11 -73t-24.5 -89t-24.5 -95t-11 -89t18 -62.5t47 -21.5q27 0 42 11t36 32q20 20 35 20q14 0 21 -9t7 -20q0 -16 -8 -30.5t-24 -34.5t-41 -44t-56.5 -44.5t-71.5 -33.5t-89 -13q-61 0 -97.5 19.5 t-54.5 41.5q-23 27 -29 64q-39 -37 -86 -64q-41 -23 -97 -42t-126 -19q-78 0 -120 47t-42 110zM154 721q0 25 30 47q25 18 42.5 31.5t33.5 29t34.5 35t47.5 49.5q23 27 41 46.5t57 19.5q43 0 54.5 -20.5t25.5 -53.5q23 -53 47.5 -80.5t48.5 -56.5q16 -16 25.5 -23.5 t9.5 -21.5q0 -12 -9 -21.5t-26 -9.5q-16 0 -65 21.5t-133 101.5q-35 -20 -72 -41.5t-68.5 -40t-56 -30t-35.5 -11.5q-16 0 -24 9.5t-8 19.5z"/>
<glyph unicode="ü" horiz-adv-x="880" d="M-31 147q0 47 11.5 97.5t23.5 97.5t23.5 87t11.5 69q0 27 -7 36t-7 29q0 16 19 30.5t51 25t73 15.5t86 5q70 0 70 -53q0 -35 -12.5 -78t-26 -92t-25.5 -102.5t-12 -108.5q0 -23 13 -37t36 -14q35 0 68.5 23.5t54.5 60.5q35 59 53.5 130.5t18.5 129.5q0 27 -7.5 36 t-7.5 29q0 16 19.5 30.5t51.5 25t73 15.5t86 5q70 0 69 -53q0 -31 -11 -73t-24.5 -89t-24.5 -95t-11 -89t18 -62.5t47 -21.5q27 0 42 11t36 32q20 20 35 20q14 0 21 -9t7 -20q0 -16 -8 -30.5t-24 -34.5t-41 -44t-56.5 -44.5t-71.5 -33.5t-89 -13q-61 0 -97.5 19.5 t-54.5 41.5q-23 27 -29 64q-39 -37 -86 -64q-41 -23 -97 -42t-126 -19q-78 0 -120 47t-42 110zM186 797q0 25 10.5 51t29 48t43 36t53.5 14q37 0 59 -26.5t22 -67.5q0 -25 -10 -52.5t-28.5 -49t-44 -36t-56.5 -14.5q-35 0 -56.5 28t-21.5 69zM469 797q0 25 10 51t28.5 48 t43 36t53.5 14q37 0 59.5 -26.5t22.5 -67.5q0 -25 -10 -52.5t-28.5 -49t-44 -36t-56.5 -14.5q-35 0 -56.5 28t-21.5 69z"/>
<glyph unicode="ý" horiz-adv-x="837" d="M-51 -360q0 61 21.5 105t50 71.5t58.5 41t48 13.5q23 0 23 -18q0 -16 -9.5 -28.5t-9.5 -47.5q0 -45 32 -70.5t85 -25.5q55 0 95 38.5t66.5 101t43 139.5t28.5 153q-18 -18 -46.5 -40t-66.5 -40.5t-87.5 -30.5t-110.5 -12q-78 0 -127 45t-49 112q0 51 10 102.5t23.5 97.5 t23.5 84t10 67q0 27 -7 36t-7 29q0 16 19.5 30.5t51.5 25t72.5 15.5t83.5 5q70 0 70 -53q0 -35 -11 -78t-24.5 -92t-25 -100.5t-11.5 -98.5q0 -27 14.5 -45t39.5 -18q35 0 70.5 25.5t58.5 60.5q14 23 25.5 55.5t19.5 68t11 70.5t3 64q0 27 -7 36t-7 29q0 16 19.5 30.5t51 25 t72.5 15.5t84 5q70 0 70 -53q0 -18 -4.5 -38t-14.5 -61t-25.5 -113.5t-35.5 -197.5q-12 -78 -28.5 -165t-40 -173t-57.5 -162.5t-84 -136t-119 -94.5t-161 -35q-55 0 -106 15.5t-89 45t-60.5 72.5t-22.5 97zM371 735q0 12 6 20.5t24 18.5q45 27 92.5 75t75.5 134 q14 39 47 39q12 0 29 -13.5t33 -34t27.5 -42t11.5 -37.5q0 -25 -9.5 -41t-37.5 -41q-31 -27 -68 -47.5t-72.5 -33.5t-68.5 -19t-55 -6q-16 0 -25.5 9t-9.5 19z"/>
<glyph unicode="þ" horiz-adv-x="827" d="M-102 -332q0 72 17 177.5t43 227.5t56.5 251t56 247.5t43 217t17.5 159.5q0 51 -22.5 76t-57.5 25q-29 0 -28 24q0 16 18 35.5t50 36t73 28t84 11.5q80 0 127 -41t47 -119q0 -37 -11.5 -94.5t-28.5 -125t-38 -139t-39 -137.5q6 6 26.5 23.5t52.5 37t74 35t89 15.5 q98 0 154.5 -60.5t56.5 -164.5q0 -68 -25.5 -141.5t-75 -137t-122 -104.5t-166.5 -41q-66 0 -107 22.5t-51 32.5q-37 -145 -37 -285q0 -51 29.5 -83.5t64.5 -32.5q29 0 29 -25q0 -12 -16.5 -30.5t-47 -37t-72.5 -31t-93 -12.5q-82 0 -126 44.5t-44 115.5zM256 154 q0 -59 66 -60q43 0 73.5 38t51 91t29.5 111.5t9 99.5q0 84 -65 84q-63 0 -105 -96q-10 -20 -20 -52t-18.5 -70t-14.5 -75.5t-6 -70.5z"/>
<glyph unicode="ÿ" horiz-adv-x="837" d="M-51 -360q0 61 21.5 105t50 71.5t58.5 41t48 13.5q23 0 23 -18q0 -16 -9.5 -28.5t-9.5 -47.5q0 -45 32 -70.5t85 -25.5q55 0 95 38.5t66.5 101t43 139.5t28.5 153q-18 -18 -46.5 -40t-66.5 -40.5t-87.5 -30.5t-110.5 -12q-78 0 -127 45t-49 112q0 51 10 102.5t23.5 97.5 t23.5 84t10 67q0 27 -7 36t-7 29q0 16 19.5 30.5t51.5 25t72.5 15.5t83.5 5q70 0 70 -53q0 -35 -11 -78t-24.5 -92t-25 -100.5t-11.5 -98.5q0 -27 14.5 -45t39.5 -18q35 0 70.5 25.5t58.5 60.5q14 23 25.5 55.5t19.5 68t11 70.5t3 64q0 27 -7 36t-7 29q0 16 19.5 30.5t51 25 t72.5 15.5t84 5q70 0 70 -53q0 -18 -4.5 -38t-14.5 -61t-25.5 -113.5t-35.5 -197.5q-12 -78 -28.5 -165t-40 -173t-57.5 -162.5t-84 -136t-119 -94.5t-161 -35q-55 0 -106 15.5t-89 45t-60.5 72.5t-22.5 97zM213 793q0 25 10 51t28.5 47.5t43 36t53.5 14.5q37 0 59.5 -26.5 t22.5 -67.5q0 -25 -10 -52.5t-28.5 -49t-44 -36t-56.5 -14.5q-35 0 -56.5 28t-21.5 69zM496 793q0 25 10 51t28.5 47.5t43 36t53.5 14.5q37 0 59.5 -26.5t22.5 -67.5q0 -25 -10.5 -52.5t-29 -49t-44 -36t-56.5 -14.5q-35 0 -56 28t-21 69z"/>
<glyph unicode="Œ" horiz-adv-x="1712" d="M0 477q0 233 77 399t193.5 273.5t255 158t258.5 50.5q98 0 142.5 -18.5t44.5 -41.5q0 -20 -27 -20q-12 0 -35.5 2t-62.5 2q-98 0 -187.5 -51t-157 -150.5t-106.5 -244t-39 -330.5q0 -184 54.5 -268t134.5 -84q76 0 141.5 57t114.5 148.5t76.5 205t27.5 226.5 q0 131 -44 178t-113 47q-35 0 -68 -10.5t-57 -24.5q-14 -8 -21.5 -12t-17.5 -4q-18 0 -19 22q0 23 30 71t87 87q57 41 107.5 53t101.5 12q104 0 176 -65q25 47 63.5 86t88 67.5t106.5 44t117 15.5q135 0 208.5 -55.5t73.5 -161.5q0 -78 -37.5 -128t-103.5 -50 q-41 0 -70.5 24.5t-29.5 65.5q0 31 13 48t29.5 30.5t30 28t13.5 36.5q0 51 -70 51q-41 0 -75.5 -21.5t-59.5 -57t-39 -84t-14 -103.5q0 -35 6 -57.5t14 -36.5q8 -16 23 -27q12 4 28 8q14 4 34 6.5t48 2.5q49 0 79 -26t30 -67q0 -51 -37 -81.5t-96 -30.5q-57 0 -102.5 16.5 t-63.5 26.5q-14 -10 -33.5 -36t-37 -62.5t-30 -81t-12.5 -93.5q0 -111 67.5 -169t164.5 -58q39 0 72.5 12.5t60 30.5t48 39.5t38.5 42.5q16 16 27.5 28.5t21.5 12.5q27 0 27 -23q0 -16 -17 -55q-16 -41 -48 -97t-84 -108.5t-125 -88.5t-173 -36q-123 0 -217 55.5t-143 149.5 q-86 -92 -190.5 -146.5t-221.5 -54.5q-100 0 -186 31t-148.5 93.5t-98.5 156.5t-36 219z"/>
<glyph unicode="œ" horiz-adv-x="1243" d="M-27 250q0 74 29 145.5t85 128t138 90t187 33.5q76 0 133 -30.5t88 -84.5q55 51 135 81t180 30q104 0 153.5 -42t49.5 -107q0 -43 -24.5 -85t-69.5 -76t-108.5 -56.5t-139.5 -28.5q0 -53 46 -90t120 -37q43 0 77.5 11t63.5 26.5t50.5 34t37.5 32.5q29 25 43 25 q12 0 18.5 -7t6.5 -18q0 -16 -9.5 -30.5t-31.5 -38.5q-25 -27 -58.5 -57.5t-79.5 -56.5t-105.5 -42t-137.5 -16q-98 0 -173 28.5t-118 91.5q-51 -57 -124 -89.5t-165 -32.5q-135 0 -216 72.5t-81 195.5zM248 283q0 -70 37 -111t96 -41t97 47.5t38 102.5q0 66 -41 84 q-47 18 -64.5 36.5t-17.5 47.5q0 39 15.5 54t15.5 25q0 16 -18 17q-6 0 -20.5 -6.5t-37.5 -22.5q-39 -31 -69.5 -88t-30.5 -145zM809 334q43 8 79 29.5t61.5 47t38.5 52t13 45.5q0 47 -49 47q-23 0 -48 -17.5t-46.5 -48t-35 -70.5t-13.5 -85z"/>
<glyph unicode="Ÿ" horiz-adv-x="1622" d="M0 782q0 131 60.5 236.5t155.5 181.5t214 117t238 41q147 0 230 -65.5t83 -188.5q0 -90 -21.5 -178t-48 -173t-48 -169t-21.5 -166q0 -43 23.5 -71t64.5 -28q29 0 61.5 17.5t64 48.5t59.5 71t50 83q29 61 56.5 146t52 176t46 178t40.5 153q6 20 30.5 40.5t62.5 38t85 28 t98 10.5q39 0 39 -31q0 -16 -15 -40t-36 -73q-18 -43 -41.5 -123.5t-51.5 -187t-56.5 -232.5t-55.5 -260q-43 -211 -93 -399t-129 -330.5t-194.5 -225.5t-289.5 -83q-90 0 -163 24.5t-125 68.5t-81 105.5t-29 135.5q0 78 29 139.5t78 104.5t113.5 65.5t136.5 22.5 q53 0 77.5 -12.5t24.5 -26.5q0 -27 -31 -27q-37 0 -73.5 -32.5t-36.5 -96.5q0 -63 39 -102t110 -39q121 0 217.5 185.5t167.5 529.5q-29 -45 -71.5 -93.5t-96 -88.5t-113 -65.5t-120.5 -25.5q-106 0 -170 66.5t-64 177.5q0 84 28 177t61.5 195.5t61.5 212t28 226.5 q0 45 -24.5 68.5t-65.5 23.5q-59 0 -115.5 -36t-101 -92t-71 -123.5t-26.5 -129.5q0 -51 24.5 -74.5t57.5 -23.5q20 0 37.5 8t28.5 8q20 0 20 -22q0 -23 -19.5 -58.5t-54 -69.5t-83 -57.5t-103.5 -23.5q-92 0 -153.5 62.5t-61.5 170.5zM946 1411q0 25 10.5 51.5t29 48t43 36 t52.5 14.5q37 0 59.5 -27t22.5 -68q0 -25 -10 -52.5t-28.5 -49t-44 -35.5t-56.5 -14q-35 0 -56.5 27.5t-21.5 68.5zM1229 1411q0 25 10 51.5t28.5 48t43 36t53.5 14.5q37 0 59.5 -27t22.5 -68q0 -25 -10.5 -52.5t-28.5 -49t-44 -35.5t-56 -14q-35 0 -56.5 27.5t-21.5 68.5z "/>
<glyph unicode="ˆ" horiz-adv-x="573" d="M39 717q0 25 31 47q25 18 42 31.5t33.5 29t35 35t46.5 49.5q23 27 41.5 46.5t57.5 19.5q43 0 54 -20.5t26 -53.5q23 -53 47 -80.5t49 -56.5q16 -16 25.5 -23.5t9.5 -21.5q0 -12 -9.5 -21.5t-25.5 -9.5t-65.5 21.5t-133.5 101.5q-35 -20 -71.5 -41.5t-68.5 -40t-56.5 -30 t-34.5 -11.5q-16 0 -24.5 9.5t-8.5 19.5z"/>
<glyph unicode="˜" horiz-adv-x="638" d="M20 760q0 10 6.5 22.5t14.5 22.5q12 18 30.5 37.5t41 36t48 28t52.5 11.5q35 0 63.5 -11.5t56 -26t57.5 -25.5t67 -11q47 0 81.5 22.5t51.5 22.5q10 0 18 -5t8 -16q0 -10 -4 -19l-8 -18q-35 -47 -78 -88t-102 -41q-35 0 -67.5 11.5t-63.5 25t-62.5 24.5t-66.5 11 q-37 0 -71 -19.5t-48 -19.5q-10 0 -17.5 6.5t-7.5 18.5z"/>
<glyph unicode=" " horiz-adv-x="886"/>
<glyph unicode=" " horiz-adv-x="1772"/>
<glyph unicode=" " horiz-adv-x="886"/>
<glyph unicode=" " horiz-adv-x="1772"/>
<glyph unicode=" " horiz-adv-x="590"/>
<glyph unicode=" " horiz-adv-x="443"/>
<glyph unicode=" " horiz-adv-x="295"/>
<glyph unicode=" " horiz-adv-x="295"/>
<glyph unicode=" " horiz-adv-x="221"/>
<glyph unicode=" " horiz-adv-x="354"/>
<glyph unicode=" " horiz-adv-x="98"/>
<glyph unicode="‐" horiz-adv-x="708" d="M61 305q0 10 5.5 29.5t14.5 38t21.5 33t24.5 14.5h467q23 0 30 -6t7 -23q0 -10 -6.5 -29.5t-16.5 -40t-23.5 -35t-25.5 -14.5h-467q-31 0 -31 33z"/>
<glyph unicode="‑" horiz-adv-x="708" d="M61 305q0 10 5.5 29.5t14.5 38t21.5 33t24.5 14.5h467q23 0 30 -6t7 -23q0 -10 -6.5 -29.5t-16.5 -40t-23.5 -35t-25.5 -14.5h-467q-31 0 -31 33z"/>
<glyph unicode="‒" horiz-adv-x="708" d="M61 305q0 10 5.5 29.5t14.5 38t21.5 33t24.5 14.5h467q23 0 30 -6t7 -23q0 -10 -6.5 -29.5t-16.5 -40t-23.5 -35t-25.5 -14.5h-467q-31 0 -31 33z"/>
<glyph unicode="–" horiz-adv-x="856" d="M51 305q0 10 5 29.5t14.5 38t21.5 33t25 14.5h651q23 0 30 -6t7 -23q0 -10 -6 -29.5t-16.5 -40t-24 -35t-25.5 -14.5h-651q-31 0 -31 33z"/>
<glyph unicode="—" horiz-adv-x="1163" d="M39 305q0 10 5 29.5t14.5 38t21.5 33t24 14.5h990q23 0 29.5 -6t6.5 -23q0 -10 -6 -29.5t-16 -40t-23.5 -35t-25.5 -14.5h-989q-31 0 -31 33z"/>
<glyph unicode="‘" horiz-adv-x="278" d="M6 922q0 55 30 109t69.5 98.5t77.5 71t55 26.5q29 0 28 -27q0 -14 -10 -30.5t-22.5 -38t-22.5 -49t-10 -64.5q0 -29 11 -47t11 -51q0 -45 -28.5 -76t-79.5 -31q-109 0 -109 109z"/>
<glyph unicode="’" horiz-adv-x="313" d="M6 840q0 14 10.5 29.5t22.5 37t22.5 49t10.5 66.5q0 29 -11.5 46t-11.5 50q0 47 28.5 78t80.5 31q55 0 81.5 -29t26.5 -82q0 -55 -29.5 -109.5t-69.5 -97.5t-78 -69.5t-52 -26.5q-31 0 -31 27z"/>
<glyph unicode="‚" horiz-adv-x="303" d="M47 -193q0 29 12.5 67t12.5 116q0 29 -11.5 46t-11.5 50q0 47 28.5 78t80.5 31q55 0 81.5 -29t26.5 -82q0 -43 -23.5 -95t-55 -98.5t-63.5 -78t-46 -31.5q-31 0 -31 26z"/>
<glyph unicode="“" horiz-adv-x="565" d="M6 922q0 55 30 109t69.5 98.5t77.5 71t55 26.5q29 0 28 -27q0 -14 -10 -30.5t-22.5 -38t-22.5 -49t-10 -64.5q0 -29 11 -47t11 -51q0 -45 -28.5 -76t-79.5 -31q-109 0 -109 109zM309 922q0 55 30 109t68.5 98.5t76.5 71t55 26.5q29 0 28 -27q0 -14 -10 -30.5t-22.5 -38 t-22.5 -49t-10 -64.5q0 -29 11 -47t11 -51q0 -45 -27.5 -76t-78.5 -31q-109 0 -109 109z"/>
<glyph unicode="”" horiz-adv-x="612" d="M6 840q0 14 10.5 29.5t22.5 37t22.5 49t10.5 66.5q0 29 -11.5 46t-11.5 50q0 47 28.5 78t80.5 31q55 0 81.5 -29t26.5 -82q0 -55 -29.5 -109.5t-69.5 -97.5t-78 -69.5t-52 -26.5q-31 0 -31 27zM309 840q0 14 10.5 29.5t22.5 37t22.5 49t10.5 66.5q0 29 -11.5 46t-11.5 50 q0 47 28 78t79 31q57 0 82.5 -29t25.5 -82q0 -55 -29.5 -109.5t-68.5 -97.5t-77 -69.5t-54 -26.5q-29 0 -29 27z"/>
<glyph unicode="„" horiz-adv-x="616" d="M6 -166q0 14 10.5 29.5t22.5 37t22.5 49t10.5 66.5q0 29 -11.5 46.5t-11.5 50.5q0 47 28.5 77.5t80.5 30.5q55 0 81.5 -28.5t26.5 -81.5q0 -55 -29.5 -109.5t-69.5 -97.5t-78 -70t-52 -27q-31 0 -31 27zM309 -166q0 14 10.5 29.5t22.5 37t22.5 49t10.5 66.5 q0 29 -11.5 46.5t-11.5 50.5q0 47 28 77.5t79 30.5q57 0 82.5 -28.5t25.5 -81.5q0 -55 -29.5 -109.5t-68.5 -97.5t-77 -70t-54 -27q-29 0 -29 27z"/>
<glyph unicode="•" horiz-adv-x="292" d="M41 557q0 25 10 51.5t28.5 48t43 36t53.5 14.5q37 0 59.5 -27t22.5 -68q0 -25 -10 -52.5t-28.5 -49t-44 -35.5t-56.5 -14q-35 0 -56.5 27.5t-21.5 68.5z"/>
<glyph unicode="…" horiz-adv-x="921" d="M20 84q0 25 10.5 51.5t29 48t43 35.5t53.5 14q37 0 59.5 -26.5t22.5 -67.5q0 -25 -10.5 -52.5t-29 -49t-44 -35.5t-56.5 -14q-35 0 -56.5 27.5t-21.5 68.5zM328 84q0 25 10 51.5t28.5 48t43 35.5t53.5 14q37 0 59.5 -26.5t22.5 -67.5q0 -25 -10.5 -52.5t-29 -49 t-44 -35.5t-55.5 -14q-35 0 -56.5 27.5t-21.5 68.5zM635 84q0 25 10 51.5t28.5 48t43 35.5t53.5 14q37 0 59.5 -26.5t22.5 -67.5q0 -25 -10.5 -52.5t-28.5 -49t-44 -35.5t-56 -14q-35 0 -56.5 27.5t-21.5 68.5z"/>
<glyph unicode=" " horiz-adv-x="354"/>
<glyph unicode="‹" horiz-adv-x="673" d="M33 575q0 45 14 88.5t66 96.5q41 43 130 123t220 209q10 12 23.5 22t35.5 10q27 0 58.5 -29.5t31.5 -62.5q0 -20 -8 -30.5t-24 -22.5q-80 -78 -133.5 -129t-89 -84t-55 -51.5t-32.5 -30.5q-23 -23 -41 -51.5t-18 -57.5q0 -23 16.5 -41t34.5 -38q70 -76 156 -160t164 -158 q18 -14 24 -22.5t6 -30.5q0 -29 -26.5 -59.5t-59.5 -30.5q-16 0 -28.5 7t-24.5 15q-68 59 -164 151.5t-203 203.5q-31 29 -52 72.5t-21 90.5z"/>
<glyph unicode="›" horiz-adv-x="645" d="M33 125q0 23 6 31t24 22q78 74 164 158t156 160q18 20 34.5 38.5t16.5 40.5q0 29 -18.5 58t-40.5 51q-6 6 -24.5 25.5t-53.5 54.5t-91 88t-140 127q-16 12 -24.5 22.5t-8.5 30.5q0 33 31.5 62.5t58.5 29.5q23 0 35 -11t24 -21q135 -129 222.5 -209t127.5 -123 q51 -53 65.5 -96t14.5 -89q0 -47 -22.5 -91t-50.5 -72q-111 -106 -205 -200.5t-162 -154.5q-12 -8 -24.5 -15t-28.5 -7q-33 0 -59.5 30.5t-26.5 59.5z"/>
<glyph unicode=" " horiz-adv-x="443"/>
<glyph unicode="€" horiz-adv-x="1071" d="M29 459q0 10 5 29.5t14 38t21.5 32.5t24.5 14h56q4 33 9 65t11 62h-70q-31 0 -30 33q0 10 5 29.5t14 38t21.5 33t24.5 14.5h76q43 115 108.5 209t145.5 160.5t170 103.5t184 37q127 0 199 -66.5t72 -171.5q0 -86 -39 -142t-99 -56q-41 0 -70.5 24.5t-29.5 67.5 q0 35 13.5 55.5t30.5 35.5t30.5 30.5t13.5 38.5q0 27 -16.5 43t-51.5 16q-33 0 -69.5 -16.5t-87.5 -63.5q-47 -45 -93.5 -126t-78.5 -179h196q23 0 30 -6t7 -23q0 -10 -6 -29.5t-16.5 -40t-23.5 -35t-25 -14.5h-201q-6 -33 -10.5 -64.5t-6.5 -62.5h211q23 0 30 -6t7 -22 q0 -10 -6 -29.5t-16.5 -40t-23.5 -35t-25 -14.5h-172q18 -111 77.5 -161t139.5 -50t128 41t81 84q31 41 49 41q23 0 22 -29q0 -23 -23.5 -85t-75.5 -127.5t-137 -116t-206 -50.5q-82 0 -152.5 30t-124 87t-86 141t-39.5 195h-86q-31 0 -30 33z"/>
<glyph unicode="™" horiz-adv-x="1224" d="M23 1188v69q0 16 20 17h463q18 0 18 -17v-69q0 -20 -18 -21h-174v-538q0 -18 -17 -19h-84q-16 0 -16 19v538h-172q-20 0 -20 21zM514 629l41 628q0 16 20 17h105q4 0 10 -3t6 -5q49 -145 78 -225t43 -124.5t21.5 -65t13.5 -44.5q4 18 11 40.5t24.5 71t46.5 130t78 217.5 q0 2 7 5t11 3h103q18 0 18 -17l41 -628q0 -18 -21 -19h-77q-21 1 -21 17q-6 123 -9 197.5t-6 120.5t-5 71.5t-2 48.5q-35 -111 -77 -217.5t-79 -220.5q-4 -14 -18 -15h-62q-16 0 -16 15q-53 154 -80 230.5t-39 112.5t-16.5 48t-10.5 37l-26 -428q0 -16 -17 -17h-78 q-18 0 -18 19z"/>
<glyph unicode="◼" horiz-adv-x="634" d="M0 0v635h635v-635h-635z"/>
</font>
</defs>
</svg>
